{
.appVersion = "3315";
.formatVersion = 3;
axes = (
{
name = Width;
tag = wdth;
},
{
name = Weight;
tag = wght;
}
);
customParameters = (
{
name = fsType;
value = (
);
},
{
name = "Use Typo Metrics";
value = 1;
},
{
name = "Axis Mappings";
value = {
wdth = {
60 = 60;
100 = 90;
140 = 140;
};
wght = {
100 = 100;
400 = 480;
900 = 900;
};
};
}
);
date = "2024-07-28 20:29:35 +0000";
familyName = Nigggli;
featurePrefixes = (
{
automatic = 1;
code = "languagesystem DFLT dflt;

languagesystem latn dflt;
languagesystem latn AZE;
languagesystem latn CRT;
languagesystem latn KAZ;
languagesystem latn TAT;
languagesystem latn TRK;
languagesystem latn ROM;
languagesystem latn MOL;
languagesystem latn MAH;
languagesystem latn CAT;
languagesystem latn NLD;
";
name = Languagesystems;
}
);
features = (
{
automatic = 1;
code = "feature locl;
feature ordn;
feature case;
";
tag = aalt;
},
{
automatic = 1;
code = "lookup ccmp_DFLT_1 {
	@CombiningTopAccents = [acutecomb brevecomb caroncomb circumflexcomb commaturnedabovecomb dieresiscomb dotaccentcomb gravecomb hookabovecomb hungarumlautcomb macroncomb ringcomb tildecomb];
	lookupflag UseMarkFilteringSet @CombiningTopAccents;
	sub i' @CombiningTopAccents by idotless;
	sub j' @CombiningTopAccents by jdotless;
} ccmp_DFLT_1;

lookup ccmp_DFLT_2 {
	lookupflag 0;
	sub brevecomb acutecomb by brevecomb_acutecomb;
	sub brevecomb gravecomb by brevecomb_gravecomb;
	sub brevecomb hookabovecomb by brevecomb_hookabovecomb;
	sub brevecomb tildecomb by brevecomb_tildecomb;
	sub circumflexcomb acutecomb by circumflexcomb_acutecomb;
	sub circumflexcomb gravecomb by circumflexcomb_gravecomb;
	sub circumflexcomb hookabovecomb by circumflexcomb_hookabovecomb;
	sub circumflexcomb tildecomb by circumflexcomb_tildecomb;
} ccmp_DFLT_2;
";
tag = ccmp;
},
{
automatic = 1;
code = "script latn;
language AZE;
lookup locl_latn_0 {
	sub i by idotaccent;
} locl_latn_0;
language CRT;
lookup locl_latn_0;
language KAZ;
lookup locl_latn_0;
language TAT;

glyphs = (
{
color = 9;
glyphname = A;
kernLeft = A;
kernRight = A;
lastChange = "2024-08-08 18:28:17 +0000";
layers = (
{
anchors = (
{
name = bottom;
pos = (260,0);
},
{
name = ogonek;
pos = (468,10);
},
{
name = top;
pos = (260,800);
}
);
layerId = m01;
shapes = (
{
closed = 1;
nodes = (
(152,0,l),
(185,146,l),
(335,146,l),
(368,0,l),
(520,0,l),
(350,800,l),
(170,800,l),
(0,0,l)
);
},
{
closed = 1;
nodes = (
(260,588,l),
(322,271,l),
(198,271,l)
);
}
);
width = 520;
},
{
anchors = (
{
name = bottom;
pos = (281,0);
},
{
name = ogonek;
pos = (536,0);
},
{
name = top;
pos = (281,800);
}
);
background = {
shapes = (
{
closed = 1;
nodes = (
(175,0,l),
(208,146,l),
(358,146,l),
(391,0,l),
(543,0,l),
(373,800,l),
(193,800,l),
(23,0,l)
);
},
{
closed = 1;
nodes = (
(283,588,l),
(345,271,l),
(221,271,l)
);
}
);
};
layerId = m002;
shapes = (
{
closed = 1;
nodes = (
(43,0,l),
(103,196,l),
(461,196,l),
(522,0,l),
(532,0,l),
(286,800,l),
(276,800,l),
(33,0,l)
);
},
{
closed = 1;
nodes = (
(281,779,l),
(458,206,l),
(106,206,l)
);
}
);
width = 566;
},
{
anchors = (
{
name = bottom;
pos = (566,0);
},
{
name = ogonek;
pos = (1018,10);
},
{
name = top;
pos = (562,800);
}
);
background = {
shapes = (
{
closed = 1;
nodes = (
(175,0,l),
(208,146,l),
(358,146,l),
(391,0,l),
(543,0,l),
(373,800,l),
(193,800,l),
(23,0,l)
);
},
{
closed = 1;
nodes = (
(283,588,l),
(345,271,l),
(221,271,l)
);
}
);
};
layerId = m003;
shapes = (
{
closed = 1;
nodes = (
(76,0,l),
(197,196,l),
(931,196,l),
(1053,0,l),
(1064,0,l),
(566,800,l),
(558,800,l),
(66,0,l)
);
},
{
closed = 1;
nodes = (
(562,788,l),
(925,206,l),
(203,206,l)
);
}
);
width = 1130;
},
{
anchors = (
{
name = bottom;
pos = (520,0);
},
{
name = ogonek;
pos = (936,10);
},
{
name = top;
pos = (520,800);
}
);
layerId = m004;
shapes = (
{
closed = 1;
nodes = (
(304,0,l),
(350,96,l),
(690,96,l),
(736,0,l),
(1040,0,l),
(700,800,l),
(340,800,l),
(0,0,l)
);
},
{
closed = 1;
nodes = (
(520,538,l),
(644,271,l),
(396,271,l)
);
}
);
width = 1041;
},
{
anchors = (
{
name = bottom;
pos = (377,0);
},
{
name = ogonek;
pos = (710,7);
},
{
name = top;
pos = (377,800);
}
);
layerId = "C42BF1BA-B3BB-492C-A865-1DF6B235F68F";
shapes = (
{
closed = 1;
nodes = (
(124,0,l),
(186,160,l),
(566,160,l),
(629,0,l),
(758,0,l),
(444,800,l),
(307,800,l),
(-5,0,l)
);
},
{
closed = 1;
nodes = (
(376,663,l),
(530,250,l),
(223,250,l)
);
}
);
width = 754;
}
);
unicode = 65;
},
{
color = 9;
glyphname = AE;
lastChange = "2024-08-08 19:46:59 +0000";
layers = (
{
anchors = (
{
name = bottom;
pos = (524,0);
},
{
name = top;
pos = (531,800);
}
);
layerId = m002;
shapes = (
{
closed = 1;
nodes = (
(846,0,l),
(846,10,l),
(524,10,l),
(524,0,l)
);
},
{
closed = 1;
nodes = (
(846,790,l),
(846,800,l),
(524,800,l),
(524,790,l)
);
},
{
closed = 1;
nodes = (
(826,405,l),
(826,415,l),
(524,415,l),
(524,405,l)
);
},
{
closed = 1;
nodes = (
(44,0,l),
(166,200,l),
(159,196,l),
(521,196,l),
(521,0,l),
(531,0,l),
(531,800,l),
(520,800,l),
(33,0,l)
);
},
{
closed = 1;
nodes = (
(521,782,l),
(521,206,l),
(170,206,l)
);
}
);
width = 936;
},
{
anchors = (
{
name = bottom;
pos = (453,0);
},
{
name = top;
pos = (453,800);
}
);
layerId = m01;
shapes = (
{
closed = 1;
nodes = (
(726,0,l),
(726,140,l),
(453,140,l),
(453,0,l)
);
},
{
closed = 1;
nodes = (
(726,660,l),
(726,800,l),
(453,800,l),
(453,660,l)
);
},
{
closed = 1;
nodes = (
(706,340,l),
(706,480,l),
(433,480,l),
(433,340,l)
);
},
{
closed = 1;
nodes = (
(175,0,l),
(265,212,l),
(165,146,l),
(389,146,l),
(389,0,l),
(553,0,l),
(553,800,l),
(326,800,l),
(0,0,l)
);
},
{
closed = 1;
nodes = (
(398,588,l),
(398,271,l),
(274,271,l)
);
}
);
width = 766;
},
{
anchors = (
{
name = bottom;
pos = (1042,0);
},
{
name = top;
pos = (1056,800);
}
);
layerId = m003;
shapes = (
{
closed = 1;
nodes = (
(1686,0,l),
(1686,10,l),
(1042,10,l),
(1042,0,l)
);
},
{
closed = 1;
nodes = (
(1686,790,l),
(1686,800,l),
(1042,800,l),
(1042,790,l)
);
},
{
closed = 1;
nodes = (
(1646,405,l),
(1646,415,l),
(1042,415,l),
(1042,405,l)
);
},
{
closed = 1;
nodes = (
(81,0,l),
(324,199,l),
(316,196,l),
(1036,196,l),
(1036,0,l),
(1046,0,l),
(1046,800,l),
(1040,800,l),
(66,0,l)
);
},
{
closed = 1;
nodes = (
(1036,783,l),
(1036,206,l),
(332,206,l)
);
}
);
width = 1866;
},
{
anchors = (
{
name = bottom;
pos = (896,0);
},
{
name = top;
pos = (896,800);
}
);
layerId = m004;
shapes = (
{
closed = 1;
nodes = (
(1476,0,l),
(1476,240,l),
(896,240,l),
(896,0,l)
);
},
{
closed = 1;
nodes = (
(1476,560,l),
(1476,800,l),
(896,800,l),
(896,560,l)
);
},
{
closed = 1;
nodes = (
(1436,320,l),
(1436,500,l),
(856,500,l),
(856,320,l)
);
},
{
closed = 1;
nodes = (
(340,0,l),
(511,201,l),
(392,131,l),
(768,131,l),
(768,0,l),
(1096,0,l),
(1096,800,l),
(652,800,l),
(0,0,l)
);
},
{
closed = 1;
nodes = (
(786,588,l),
(786,291,l),
(563,291,l)
);
}
);
width = 1556;
},
{
anchors = (
{
name = bottom;
pos = (688,0);
},
{
name = top;
pos = (694,800);
}
);
layerId = "C42BF1BA-B3BB-492C-A865-1DF6B235F68F";
shapes = (
{
closed = 1;
nodes = (
(1066,0,l),
(1066,100,l),
(638,100,l),
(638,0,l)
);
},
{
closed = 1;
nodes = (
(1066,700,l),
(1066,800,l),
(638,800,l),
(638,700,l)
);
},
{
closed = 1;
nodes = (
(1036,360,l),
(1036,460,l),
(624,460,l),
(624,360,l)
);
},
{
closed = 1;
nodes = (
(142,0,l),
(284,201,l),
(199,157,l),
(596,157,l),
(596,0,l),
(716,0,l),
(716,800,l),
(561,800,l),
(-5,0,l)
);
},
{
closed = 1;
nodes = (
(596,642,l),
(596,247,l),
(317,247,l)
);
}
);
width = 1154;
}
);
metricLeft = A;
metricRight = E;
unicode = 198;
},
{
color = 9;
glyphname = B;
kernLeft = H;
kernRight = O;
lastChange = "2024-08-08 18:28:48 +0000";
layers = (
{
anchors = (
{
name = bottom;
pos = (258,0);
},
{
name = center;
pos = (129,200);
},
{
name = top;
pos = (258,800);
}
);
layerId = m01;
shapes = (
{
closed = 1;
nodes = (
(237,468,l),
(185,468,l),
(185,665,l),
(227,665,l),
(227,800,l),
(40,800,l),
(40,0,l),
(237,0,l),
(237,135,l),
(186,137,l),
(187,343,l),
(237,343,l)
);
},
{
closed = 1;
nodes = (
(227,393,l),
(394,393,o),
(475,452,o),
(475,572,cs),
(475,725,o),
(394,800,o),
(227,800,c),
(227,665,l),
(286,665,o),
(315,634,o),
(315,572,cs),
(315,502,o),
(286,468,o),
(227,468,c)
);
},
{
closed = 1;
nodes = (
(299,343,o),
(330,304,o),
(330,223,cs),
(330,164,o),
(299,135,o),
(237,135,c),
(237,0,l),
(407,0,o),
(490,73,o),
(490,223,cs),
(490,354,o),
(407,418,o),
(237,418,c),
(237,343,l)
);
}
);
width = 515;
},
{
anchors = (
{
name = bottom;
pos = (283,0);
},
{
name = center;
pos = (141,200);
},
{
name = top;
pos = (283,800);
}
);
background = {
shapes = (
{
closed = 1;
nodes = (
(277,468,l),
(225,468,l),
(225,665,l),
(267,665,l),
(267,800,l),
(80,800,l),
(80,0,l),
(277,0,l),
(277,135,l),
(226,137,l),
(227,343,l),
(277,343,l)
);
},
{
closed = 1;
nodes = (
(267,393,l),
(434,393,o),
(515,452,o),
(515,572,cs),
(515,725,o),
(434,800,o),
(267,800,c),
(267,665,l),
(326,665,o),
(355,634,o),
(355,572,cs),
(355,502,o),
(326,468,o),
(267,468,c)
);
},
{
closed = 1;
nodes = (
(339,343,o),
(370,304,o),
(370,223,cs),
(370,164,o),
(339,135,o),
(277,135,c),
(277,0,l),
(447,0,o),
(530,73,o),
(530,223,cs),
(530,354,o),
(447,418,o),
(277,418,c),
(277,343,l)
);
}
);
};
layerId = m002;
shapes = (
{
closed = 1;
nodes = (
(257,410,l),
(100,410,l),
(100,790,l),
(247,790,l),
(247,800,l),
(90,800,l),
(90,0,l),
(257,0,l),
(257,10,l),
(99,10,l),
(100,400,l),
(257,400,l)
);
},
{
closed = 1;
nodes = (
(257,400,l),
(424,400,o),
(495,452,o),
(495,572,cs),
(495,732,o),
(421,800,o),
(247,800,c),
(247,790,l),
(414,790,o),
(485,725,o),
(485,572,cs),
(485,459,o),
(417,410,o),
(257,410,c)
);
},
{
closed = 1;
nodes = (
(427,400,o),
(500,347,o),
(500,223,cs),
(500,74,o),
(427,10,o),
(257,10,c),
(257,0,l),
(434,0,o),
(510,67,o),
(510,223,cs),
(510,354,o),
(434,410,o),
(257,410,c),
(257,400,l)
);
}
);
width = 565;
},
{
anchors = (
{
name = bottom;
pos = (566,0);
},
{
name = center;
pos = (282,200);
},
{
name = top;
pos = (566,800);
}
);
background = {
shapes = (
{
closed = 1;
nodes = (
(277,468,l),
(225,468,l),
(225,665,l),
(267,665,l),
(267,800,l),
(80,800,l),
(80,0,l),
(277,0,l),
(277,135,l),
(226,137,l),
(227,343,l),
(277,343,l)
);
},
{
closed = 1;
nodes = (
(267,393,l),
(434,393,o),
(515,452,o),
(515,572,cs),
(515,725,o),
(434,800,o),
(267,800,c),
(267,665,l),
(326,665,o),
(355,634,o),
(355,572,cs),
(355,502,o),
(326,468,o),
(267,468,c)
);
},
{
closed = 1;
nodes = (
(339,343,o),
(370,304,o),
(370,223,cs),
(370,164,o),
(339,135,o),
(277,135,c),
(277,0,l),
(447,0,o),
(530,73,o),
(530,223,cs),
(530,354,o),
(447,418,o),
(277,418,c),
(277,343,l)
);
}
);
};
layerId = m003;
shapes = (
{
closed = 1;
nodes = (
(614,410,l),
(190,410,l),
(190,790,l),
(594,790,l),
(594,800,l),
(180,800,l),
(180,0,l),
(614,0,l),
(614,10,l),
(188,10,l),
(190,400,l),
(614,400,l)
);
},
{
closed = 1;
nodes = (
(614,400,l),
(845,400,o),
(990,466,o),
(990,572,cs),
(990,712,o),
(837,800,o),
(594,800,c),
(594,790,l),
(831,790,o),
(980,706,o),
(980,572,cs),
(980,472,o),
(839,410,o),
(614,410,c)
);
},
{
closed = 1;
nodes = (
(857,400,o),
(1010,332,o),
(1010,223,cs),
(1010,92,o),
(857,10,o),
(614,10,c),
(614,0,l),
(863,0,o),
(1020,86,o),
(1020,223,cs),
(1020,338,o),
(863,410,o),
(614,410,c),
(614,400,l)
);
}
);
width = 1130;
},
{
anchors = (
{
name = bottom;
pos = (516,0);
},
{
name = center;
pos = (258,200);
},
{
name = top;
pos = (516,800);
}
);
layerId = m004;
shapes = (
{
closed = 1;
nodes = (
(574,478,l),
(370,478,l),
(370,565,l),
(554,565,l),
(554,800,l),
(80,800,l),
(80,0,l),
(574,0,l),
(574,235,l),
(372,237,l),
(374,323,l),
(574,323,l)
);
},
{
closed = 1;
nodes = (
(554,373,l),
(809,373,o),
(950,444,o),
(950,572,cs),
(950,719,o),
(809,800,o),
(554,800,c),
(554,565,l),
(603,565,o),
(630,549,o),
(630,521,cs),
(630,493,o),
(603,478,o),
(554,478,c)
);
},
{
closed = 1;
nodes = (
(629,323,o),
(660,309,o),
(660,285,cs),
(660,253,o),
(629,235,o),
(574,235,c),
(574,0,l),
(835,0,o),
(980,80,o),
(980,223,cs),
(980,348,o),
(835,418,o),
(574,418,c),
(574,323,l)
);
}
);
width = 1030;
},
{
anchors = (
{
name = bottom;
pos = (396,0);
},
{
name = center;
pos = (192,200);
},
{
name = top;
pos = (396,800);
}
);
layerId = "C42BF1BA-B3BB-492C-A865-1DF6B235F68F";
shapes = (
{
closed = 1;
nodes = (
(414,454,l),
(208,454,l),
(208,700,l),
(399,700,l),
(399,800,l),
(88,800,l),
(88,0,l),
(414,0,l),
(414,99,l),
(207,100,l),
(208,354,l),
(414,354,l)
);
},
{
closed = 1;
nodes = (
(407,392,l),
(573,392,o),
(677,459,o),
(677,566,cs),
(677,710,o),
(570,800,o),
(399,800,c),
(399,700,l),
(497,700,o),
(558,648,o),
(558,566,cs),
(558,497,o),
(500,454,o),
(407,454,c)
);
},
{
closed = 1;
nodes = (
(517,354,o),
(581,307,o),
(581,231,cs),
(581,150,o),
(517,99,o),
(414,99,c),
(414,0,l),
(590,0,o),
(700,89,o),
(700,231,cs),
(700,343,o),
(590,414,o),
(414,414,c),
(414,354,l)
);
}
);
width = 755;
}
);
metricLeft = N;
metricRight = O;
unicode = 66;
},
{
color = 9;
glyphname = C;
kernLeft = O;
kernRight = C;
lastChange = "2024-08-08 18:29:08 +0000";
layers = (
{
anchors = (
{
name = bottom;
pos = (250,0);
},
{
name = top;
pos = (259,800);
}
);
layerId = m01;
shapes = (
{
closed = 1;
nodes = (
(474,564,l),
(474,732,o),
(397,814,o),
(259,814,cs),
(109,814,o),
(25,685,o),
(25,422,cs),
(25,132,o),
(109,-10,o),
(259,-10,cs),
(395,-10,o),
(472,71,o),
(472,237,c),
(319,237,l),
(319,169,o),
(293,135,o),
(259,135,cs),
(219,135,o),
(190,229,o),
(190,422,cs),
(190,588,o),
(219,669,o),
(259,669,cs),
(293,669,o),
(320,634,o),
(320,564,c)
);
}
);
width = 499;
},
{
anchors = (
{
name = bottom;
pos = (268,0);
},
{
name = top;
pos = (289,800);
}
);
background = {
shapes = (
{
closed = 1;
nodes = (
(494,564,l),
(494,732,o),
(417,814,o),
(279,814,cs),
(129,814,o),
(45,685,o),
(45,422,cs),
(45,132,o),
(129,-10,o),
(279,-10,cs),
(415,-10,o),
(492,71,o),
(492,237,c),
(339,237,l),
(339,169,o),
(313,135,o),
(279,135,cs),
(239,135,o),
(210,229,o),
(210,422,cs),
(210,588,o),
(239,669,o),
(279,669,cs),
(313,669,o),
(340,634,o),
(340,564,c)
);
}
);
};
layerId = m002;
shapes = (
{
closed = 1;
nodes = (
(481,614,l),
(471,745,o),
(398,810,o),
(289,810,cs),
(132,810,o),
(55,682,o),
(55,422,cs),
(55,132,o),
(132,-10,o),
(289,-10,cs),
(397,-10,o),
(469,55,o),
(479,187,c),
(469,187,l),
(459,61,o),
(390,0,o),
(289,0,cs),
(139,0,o),
(65,139,o),
(65,422,cs),
(65,675,o),
(139,800,o),
(289,800,cs),
(391,800,o),
(461,738,o),
(471,614,c)
);
}
);
width = 536;
},
{
anchors = (
{
name = bottom;
pos = (536,0);
},
{
name = top;
pos = (578,800);
}
);
background = {
shapes = (
{
closed = 1;
nodes = (
(494,564,l),
(494,732,o),
(417,814,o),
(279,814,cs),
(129,814,o),
(45,685,o),
(45,422,cs),
(45,132,o),
(129,-10,o),
(279,-10,cs),
(415,-10,o),
(492,71,o),
(492,237,c),
(339,237,l),
(339,169,o),
(313,135,o),
(279,135,cs),
(239,135,o),
(210,229,o),
(210,422,cs),
(210,588,o),
(239,669,o),
(279,669,cs),
(313,669,o),
(340,634,o),
(340,564,c)
);
}
);
};
layerId = m003;
shapes = (
{
closed = 1;
nodes = (
(962,614,l),
(944,734,o),
(796,810,o),
(578,810,cs),
(291,810,o),
(110,660,o),
(110,422,cs),
(110,157,o),
(291,-10,o),
(578,-10,cs),
(793,-10,o),
(940,66,o),
(958,187,c),
(948,187,l),
(930,72,o),
(787,0,o),
(578,0,cs),
(297,0,o),
(120,163,o),
(120,422,cs),
(120,654,o),
(297,800,o),
(578,800,cs),
(789,800,o),
(934,728,o),
(952,614,c)
);
}
);
width = 1072;
},
{
anchors = (
{
name = bottom;
pos = (500,0);
},
{
name = top;
pos = (518,800);
}
);
layerId = m004;
shapes = (
{
closed = 1;
nodes = (
(948,464,l),
(948,689,o),
(794,814,o),
(518,814,cs),
(217,814,o),
(50,674,o),
(50,422,cs),
(50,144,o),
(217,-10,o),
(518,-10,cs),
(792,-10,o),
(944,114,o),
(944,337,c),
(638,337,l),
(638,271,o),
(595,235,o),
(518,235,cs),
(429,235,o),
(380,302,o),
(380,422,cs),
(380,516,o),
(429,569,o),
(518,569,cs),
(596,569,o),
(640,531,o),
(640,464,c)
);
}
);
width = 998;
},
{
anchors = (
{
name = bottom;
pos = (406,0);
},
{
name = top;
pos = (406,800);
}
);
layerId = "C42BF1BA-B3BB-492C-A865-1DF6B235F68F";
shapes = (
{
closed = 1;
nodes = (
(710,567,l),
(703,717,o),
(586,812,o),
(408,812,cs),
(191,812,o),
(55,662,o),
(55,422,cs),
(55,157,o),
(191,-10,o),
(408,-10,cs),
(588,-10,o),
(705,85,o),
(712,235,c),
(592,235,l),
(585,146,o),
(514,90,o),
(408,90,cs),
(268,90,o),
(180,218,o),
(180,422,cs),
(180,600,o),
(268,712,o),
(408,712,cs),
(513,712,o),
(583,656,o),
(590,567,c)
);
}
);
width = 767;
}
);
metricLeft = O;
metricRight = O;
unicode = 67;
},
{
color = 9;
glyphname = D;
kernLeft = H;
kernRight = O;
lastChange = "2024-08-08 18:29:17 +0000";
layers = (
{
anchors = (
{
name = bottom;
pos = (260,0);
},
{
name = center;
pos = (130,400);
},
{
name = top;
pos = (260,800);
}
);
layerId = m01;
shapes = (
{
closed = 1;
nodes = (
(247,135,l),
(185,135,l),
(185,665,l),
(247,665,l),
(247,800,l),
(40,800,l),
(40,0,l),
(247,0,l)
);
},
{
closed = 1;
nodes = (
(247,0,l),
(414,0,o),
(495,139,o),
(495,422,cs),
(495,676,o),
(414,800,o),
(247,800,c),
(247,665,l),
(306,665,o),
(335,585,o),
(335,422,cs),
(335,229,o),
(306,135,o),
(247,135,c)
);
}
);
width = 520;
},
{
anchors = (
{
name = bottom;
pos = (290,0);
},
{
name = center;
pos = (145,400);
},
{
name = top;
pos = (290,800);
}
);
background = {
shapes = (
{
closed = 1;
nodes = (
(287,135,l),
(225,135,l),
(225,665,l),
(287,665,l),
(287,800,l),
(80,800,l),
(80,0,l),
(287,0,l)
);
},
{
closed = 1;
nodes = (
(287,0,l),
(454,0,o),
(535,139,o),
(535,422,cs),
(535,676,o),
(454,800,o),
(287,800,c),
(287,665,l),
(346,665,o),
(375,585,o),
(375,422,cs),
(375,229,o),
(346,135,o),
(287,135,c)
);
}
);
};
layerId = m002;
shapes = (
{
closed = 1;
nodes = (
(287,10,l),
(100,10,l),
(100,790,l),
(287,790,l),
(287,800,l),
(90,800,l),
(90,0,l),
(287,0,l)
);
},
{
closed = 1;
nodes = (
(287,0,l),
(447,0,o),
(525,139,o),
(525,422,cs),
(525,676,o),
(447,800,o),
(287,800,c),
(287,790,l),
(440,790,o),
(515,669,o),
(515,422,cs),
(515,145,o),
(440,10,o),
(287,10,c)
);
}
);
width = 580;
},
{
anchors = (
{
name = bottom;
pos = (580,0);
},
{
name = center;
pos = (290,400);
},
{
name = top;
pos = (580,800);
}
);
background = {
shapes = (
{
closed = 1;
nodes = (
(287,135,l),
(225,135,l),
(225,665,l),
(287,665,l),
(287,800,l),
(80,800,l),
(80,0,l),
(287,0,l)
);
},
{
closed = 1;
nodes = (
(287,0,l),
(454,0,o),
(535,139,o),
(535,422,cs),
(535,676,o),
(454,800,o),
(287,800,c),
(287,665,l),
(346,665,o),
(375,585,o),
(375,422,cs),
(375,229,o),
(346,135,o),
(287,135,c)
);
}
);
};
layerId = m003;
shapes = (
{
closed = 1;
nodes = (
(674,10,l),
(190,10,l),
(190,790,l),
(674,790,l),
(674,800,l),
(180,800,l),
(180,0,l),
(674,0,l)
);
},
{
closed = 1;
nodes = (
(674,0,l),
(905,0,o),
(1050,163,o),
(1050,422,cs),
(1050,654,o),
(905,800,o),
(674,800,c),
(674,790,l),
(899,790,o),
(1040,648,o),
(1040,422,cs),
(1040,169,o),
(899,10,o),
(674,10,c)
);
}
);
width = 1160;
},
{
anchors = (
{
name = bottom;
pos = (520,0);
},
{
name = center;
pos = (260,400);
},
{
name = top;
pos = (520,800);
}
);
layerId = m004;
shapes = (
{
closed = 1;
nodes = (
(544,235,l),
(370,235,l),
(370,565,l),
(544,565,l),
(544,800,l),
(80,800,l),
(80,0,l),
(544,0,l)
);
},
{
closed = 1;
nodes = (
(544,0,l),
(831,0,o),
(990,151,o),
(990,422,cs),
(990,665,o),
(831,800,o),
(544,800,c),
(544,565,l),
(625,565,o),
(670,514,o),
(670,422,cs),
(670,302,o),
(625,235,o),
(544,235,c)
);
}
);
width = 1040;
},
{
anchors = (
{
name = bottom;
pos = (403,0);
},
{
name = center;
pos = (196,400);
},
{
name = top;
pos = (403,800);
}
);
layerId = "C42BF1BA-B3BB-492C-A865-1DF6B235F68F";
shapes = (
{
closed = 1;
nodes = (
(413,100,l),
(198,100,l),
(198,700,l),
(413,700,l),
(413,800,l),
(88,800,l),
(88,0,l),
(413,0,l)
);
},
{
closed = 1;
nodes = (
(413,0,l),
(623,0,o),
(755,163,o),
(755,422,cs),
(755,654,o),
(623,800,o),
(413,800,c),
(413,700,l),
(549,700,o),
(635,593,o),
(635,422,cs),
(635,224,o),
(549,100,o),
(413,100,c)
);
}
);
width = 810;
}
);
metricLeft = N;
metricRight = O;
unicode = 68;
},
{
color = 9;
glyphname = E;
kernLeft = H;
kernRight = H;
lastChange = "2024-08-08 09:07:16 +0000";
layers = (
{
anchors = (
{
name = bottom;
pos = (213,0);
},
{
name = ogonek;
pos = (383,10);
},
{
name = top;
pos = (213,800);
},
{
name = topleft;
pos = (20,800);
}
);
layerId = m01;
shapes = (
{
closed = 1;
nodes = (
(195,800,l),
(40,800,l),
(40,0,l),
(195,0,l)
);
},
{
closed = 1;
nodes = (
(385,0,l),
(385,140,l),
(112,140,l),
(112,0,l)
);
},
{
closed = 1;
nodes = (
(385,660,l),
(385,800,l),
(112,800,l),
(112,660,l)
);
},
{
closed = 1;
nodes = (
(365,340,l),
(365,480,l),
(92,480,l),
(92,340,l)
);
}
);
width = 425;
},
{
anchors = (
{
name = bottom;
pos = (253,0);
},
{
name = ogonek;
pos = (455,10);
},
{
name = top;
pos = (253,800);
},
{
name = topleft;
pos = (20,800);
}
);
background = {
shapes = (
{
closed = 1;
nodes = (
(235,800,l),
(80,800,l),
(80,0,l),
(235,0,l)
);
},
{
closed = 1;
nodes = (
(425,0,l),
(425,140,l),
(152,140,l),
(152,0,l)
);
},
{
closed = 1;
nodes = (
(425,660,l),
(425,800,l),
(152,800,l),
(152,660,l)
);
},
{
closed = 1;
nodes = (
(405,340,l),
(405,480,l),
(132,480,l),
(132,340,l)
);
}
);
};
layerId = m002;
shapes = (
{
closed = 1;
nodes = (
(100,800,l),
(90,800,l),
(90,0,l),
(100,0,l)
);
},
{
closed = 1;
nodes = (
(415,0,l),
(415,10,l),
(93,10,l),
(93,0,l)
);
},
{
closed = 1;
nodes = (
(415,790,l),
(415,800,l),
(93,800,l),
(93,790,l)
);
},
{
closed = 1;
nodes = (
(395,405,l),
(395,415,l),
(93,415,l),
(93,405,l)
);
}
);
width = 505;
},
{
anchors = (
{
name = bottom;
pos = (506,0);
},
{
name = ogonek;
pos = (910,10);
},
{
name = top;
pos = (506,800);
},
{
name = topleft;
pos = (40,800);
}
);
background = {
shapes = (
{
closed = 1;
nodes = (
(235,800,l),
(80,800,l),
(80,0,l),
(235,0,l)
);
},
{
closed = 1;
nodes = (
(425,0,l),
(425,140,l),
(152,140,l),
(152,0,l)
);
},
{
closed = 1;
nodes = (
(425,660,l),
(425,800,l),
(152,800,l),
(152,660,l)
);
},
{
closed = 1;
nodes = (
(405,340,l),
(405,480,l),
(132,480,l),
(132,340,l)
);
}
);
};
layerId = m003;
shapes = (
{
closed = 1;
nodes = (
(190,800,l),
(180,800,l),
(180,0,l),
(190,0,l)
);
},
{
closed = 1;
nodes = (
(830,0,l),
(830,10,l),
(186,10,l),
(186,0,l)
);
},
{
closed = 1;
nodes = (
(830,790,l),
(830,800,l),
(186,800,l),
(186,790,l)
);
},
{
closed = 1;
nodes = (
(790,405,l),
(790,415,l),
(186,415,l),
(186,405,l)
);
}
);
width = 1010;
},
{
anchors = (
{
name = bottom;
pos = (426,0);
},
{
name = ogonek;
pos = (766,10);
},
{
name = top;
pos = (426,800);
},
{
name = topleft;
pos = (40,800);
}
);
layerId = m004;
shapes = (
{
closed = 1;
nodes = (
(390,800,l),
(80,800,l),
(80,0,l),
(390,0,l)
);
},
{
closed = 1;
nodes = (
(770,0,l),
(770,240,l),
(224,240,l),
(224,0,l)
);
},
{
closed = 1;
nodes = (
(770,560,l),
(770,800,l),
(224,800,l),
(224,560,l)
);
},
{
closed = 1;
nodes = (
(730,310,l),
(730,490,l),
(184,490,l),
(184,310,l)
);
}
);
width = 850;
},
{
anchors = (
{
name = bottom;
pos = (341,0);
},
{
name = ogonek;
pos = (621,10);
},
{
name = top;
pos = (341,800);
},
{
name = topleft;
pos = (20,800);
}
);
layerId = "C42BF1BA-B3BB-492C-A865-1DF6B235F68F";
shapes = (
{
closed = 1;
nodes = (
(208,800,l),
(88,800,l),
(88,0,l),
(208,0,l)
);
},
{
closed = 1;
nodes = (
(591,0,l),
(591,100,l),
(143,100,l),
(143,0,l)
);
},
{
closed = 1;
nodes = (
(591,700,l),
(591,800,l),
(143,800,l),
(143,700,l)
);
},
{
closed = 1;
nodes = (
(561,358,l),
(561,458,l),
(129,458,l),
(129,358,l)
);
}
);
width = 679;
}
);
metricLeft = N;
metricRight = N;
unicode = 69;
},
{
color = 9;
glyphname = Schwa;
lastChange = "2024-08-08 19:47:40 +0000";
layers = (
{
anchors = (
{
name = bottom;
pos = (287,0);
},
{
name = top;
pos = (279,801);
}
);
layerId = m002;
shapes = (
{
closed = 1;
nodes = (
(160,810,o),
(87,743,o),
(77,620,c),
(87,620,l),
(97,736,o),
(165,800,o),
(279,800,cs),
(431,800,o),
(511,651,o),
(511,380,cs),
(511,136,o),
(431,0,o),
(287,0,cs),
(144,0,o),
(65,137,o),
(65,383,c),
(514,383,l),
(514,393,l),
(55,393,l),
(55,388,o),
(55,386,o),
(55,381,cs),
(55,130,o),
(138,-10,o),
(287,-10,cs),
(437,-10,o),
(521,129,o),
(521,380,cs),
(521,657,o),
(438,810,o),
(279,810,cs)
);
}
);
width = 576;
},
{
anchors = (
{
name = bottom;
pos = (296,0);
},
{
name = top;
pos = (300,800);
}
);
layerId = m01;
shapes = (
{
closed = 1;
nodes = (
(148,812,o),
(63,729,o),
(41,559,c),
(191,559,l),
(201,638,o),
(237,677,o),
(299,677,cs),
(377,677,o),
(415,579,o),
(415,380,cs),
(415,205,o),
(375,120,o),
(294,120,cs),
(213,120,o),
(173,187,o),
(173,325,c),
(469,325,l),
(469,455,l),
(29,455,l),
(26,431,o),
(25,406,o),
(25,380,cs),
(30,118,o),
(118,-10,o),
(294,-10,cs),
(476,-10,o),
(565,118,o),
(565,380,cs),
(565,670,o),
(478,812,o),
(299,812,cs)
);
}
);
width = 590;
},
{
anchors = (
{
name = bottom;
pos = (574,0);
},
{
name = top;
pos = (558,801);
}
);
layerId = m003;
shapes = (
{
closed = 1;
nodes = (
(329,810,o),
(173,737,o),
(154,620,c),
(164,620,l),
(183,731,o),
(335,800,o),
(558,800,cs),
(849,800,o),
(1032,638,o),
(1032,380,cs),
(1032,147,o),
(855,0,o),
(574,0,cs),
(295,0,o),
(119,148,o),
(119,383,c),
(1038,383,l),
(1038,393,l),
(110,393,l),
(110,388,o),
(110,386,o),
(110,381,cs),
(110,141,o),
(289,-10,o),
(574,-10,cs),
(861,-10,o),
(1042,140,o),
(1042,380,cs),
(1042,644,o),
(855,810,o),
(558,810,cs)
);
}
);
width = 1152;
},
{
anchors = (
{
name = bottom;
pos = (492,0);
},
{
name = top;
pos = (500,800);
}
);
layerId = m004;
shapes = (
{
closed = 1;
nodes = (
(279,812,o),
(111,694,o),
(62,505,c),
(362,505,l),
(374,549,o),
(427,577,o),
(498,577,cs),
(579,577,o),
(630,501,o),
(630,380,cs),
(630,282,o),
(575,220,o),
(488,220,cs),
(401,220,o),
(346,261,o),
(346,325,c),
(738,325,l),
(738,455,l),
(58,455,l),
(53,434,o),
(50,405,o),
(50,380,cs),
(60,140,o),
(229,-10,o),
(488,-10,cs),
(760,-10,o),
(930,140,o),
(930,380,cs),
(930,645,o),
(763,812,o),
(498,812,cs)
);
}
);
width = 980;
},
{
anchors = (
{
name = bottom;
pos = (344,0);
},
{
name = top;
pos = (341,801);
}
);
layerId = "C42BF1BA-B3BB-492C-A865-1DF6B235F68F";
shapes = (
{
closed = 1;
nodes = (
(191,811,o),
(83,726,o),
(61,591,c),
(181,591,l),
(191,665,o),
(253,711,o),
(340,711,cs),
(460,711,o),
(536,595,o),
(536,410,cs),
(536,213,o),
(462,90,o),
(343,90,cs),
(227,90,o),
(154,183,o),
(154,332,c),
(591,332,l),
(591,422,l),
(35,422,l),
(33,411,o),
(32,395,o),
(32,381,cs),
(36,141,o),
(156,-10,o),
(343,-10,cs),
(535,-10,o),
(656,152,o),
(656,410,cs),
(656,656,o),
(534,811,o),
(340,811,cs)
);
}
);
width = 688;
}
);
metricLeft = O;
metricRight = O;
unicode = 399;
},
{
color = 9;
glyphname = F;
kernLeft = H;
kernRight = V;
lastChange = "2024-08-08 18:29:47 +0000";
layers = (
{
anchors = (
{
name = bottom;
pos = (213,0);
},
{
name = top;
pos = (213,800);
}
);
layerId = m01;
shapes = (
{
closed = 1;
nodes = (
(195,800,l),
(40,800,l),
(40,0,l),
(195,0,l)
);
},
{
closed = 1;
nodes = (
(385,660,l),
(385,800,l),
(112,800,l),
(112,660,l)
);
},
{
closed = 1;
nodes = (
(365,340,l),
(365,480,l),
(92,480,l),
(92,340,l)
);
}
);
width = 425;
},
{
anchors = (
{
name = bottom;
pos = (253,0);
},
{
name = top;
pos = (253,800);
}
);
layerId = m002;
shapes = (
{
closed = 1;
nodes = (
(100,800,l),
(90,800,l),
(90,0,l),
(100,0,l)
);
},
{
closed = 1;
nodes = (
(415,790,l),
(415,800,l),
(93,800,l),
(93,790,l)
);
},
{
closed = 1;
nodes = (
(395,405,l),
(395,415,l),
(93,415,l),
(93,405,l)
);
}
);
width = 505;
},
{
anchors = (
{
name = bottom;
pos = (506,0);
},
{
name = top;
pos = (506,800);
}
);
layerId = m003;
shapes = (
{
closed = 1;
nodes = (
(190,800,l),
(180,800,l),
(180,0,l),
(190,0,l)
);
},
{
closed = 1;
nodes = (
(830,790,l),
(830,800,l),
(186,800,l),
(186,790,l)
);
},
{
closed = 1;
nodes = (
(790,405,l),
(790,415,l),
(186,415,l),
(186,405,l)
);
}
);
width = 1010;
},
{
anchors = (
{
name = bottom;
pos = (426,0);
},
{
name = top;
pos = (426,800);
}
);
layerId = m004;
shapes = (
{
closed = 1;
nodes = (
(390,800,l),
(80,800,l),
(80,0,l),
(390,0,l)
);
},
{
closed = 1;
nodes = (
(770,560,l),
(770,800,l),
(224,800,l),
(224,560,l)
);
},
{
closed = 1;
nodes = (
(730,240,l),
(730,480,l),
(184,480,l),
(184,240,l)
);
}
);
width = 850;
},
{
anchors = (
{
name = bottom;
pos = (340,0);
},
{
name = top;
pos = (340,800);
}
);
layerId = "C42BF1BA-B3BB-492C-A865-1DF6B235F68F";
shapes = (
{
closed = 1;
nodes = (
(208,800,l),
(88,800,l),
(88,0,l),
(208,0,l)
);
},
{
closed = 1;
nodes = (
(590,700,l),
(590,800,l),
(142,800,l),
(142,700,l)
);
},
{
closed = 1;
nodes = (
(560,346,l),
(560,446,l),
(128,446,l),
(128,346,l)
);
}
);
width = 601;
}
);
metricLeft = N;
unicode = 70;
},
{
color = 9;
glyphname = G;
kernLeft = O;
kernRight = O;
lastChange = "2024-08-08 18:30:05 +0000";
layers = (
{
anchors = (
{
name = bottom;
pos = (269,0);
},
{
name = top;
pos = (269,800);
}
);
layerId = m01;
shapes = (
{
closed = 1;
nodes = (
(509,564,l),
(509,732,o),
(439,814,o),
(286,814,cs),
(111,814,o),
(25,685,o),
(25,422,cs),
(25,132,o),
(111,-10,o),
(286,-10,cs),
(438,-10,o),
(512,92,o),
(512,300,c),
(376,300,l),
(376,189,o),
(346,135,o),
(286,135,cs),
(222,135,o),
(190,229,o),
(190,422,cs),
(190,588,o),
(222,669,o),
(286,669,cs),
(338,669,o),
(359,634,o),
(359,564,c)
);
},
{
closed = 1;
nodes = (
(512,300,l),
(512,430,l),
(296,430,l),
(296,300,l)
);
},
{
closed = 1;
nodes = (
(373,300,l),
(373,151,l),
(459,0,l),
(512,0,l),
(512,300,l)
);
}
);
width = 537;
},
{
anchors = (
{
name = bottom;
pos = (290,0);
},
{
name = top;
pos = (290,800);
}
);
background = {
shapes = (
{
closed = 1;
nodes = (
(529,564,l),
(529,732,o),
(459,814,o),
(306,814,cs),
(131,814,o),
(45,685,o),
(45,422,cs),
(45,132,o),
(131,-10,o),
(306,-10,cs),
(458,-10,o),
(532,92,o),
(532,300,c),
(396,300,l),
(396,189,o),
(366,135,o),
(306,135,cs),
(242,135,o),
(210,229,o),
(210,422,cs),
(210,588,o),
(242,669,o),
(306,669,cs),
(358,669,o),
(379,634,o),
(379,564,c)
);
},
{
closed = 1;
nodes = (
(532,300,l),
(532,430,l),
(316,430,l),
(316,300,l)
);
}
);
};
layerId = m002;
shapes = (
{
closed = 1;
nodes = (
(507,614,l),
(502,734,o),
(424,810,o),
(306,810,cs),
(152,810,o),
(55,660,o),
(55,422,cs),
(55,157,o),
(152,-10,o),
(306,-10,cs),
(439,-10,o),
(522,133,o),
(522,360,c),
(512,360,l),
(512,139,o),
(433,0,o),
(306,0,cs),
(158,0,o),
(65,163,o),
(65,422,cs),
(65,654,o),
(158,800,o),
(306,800,cs),
(418,800,o),
(492,728,o),
(497,614,c)
);
},
{
closed = 1;
nodes = (
(522,360,l),
(522,370,l),
(336,370,l),
(336,360,l)
);
},
{
closed = 1;
nodes = (
(512,360,l),
(512,151,l),
(512,0,l),
(522,0,l),
(522,360,l)
);
}
);
width = 579;
},
{
anchors = (
{
name = bottom;
pos = (580,0);
},
{
name = top;
pos = (580,800);
}
);
background = {
shapes = (
{
closed = 1;
nodes = (
(529,564,l),
(529,732,o),
(459,814,o),
(306,814,cs),
(131,814,o),
(45,685,o),
(45,422,cs),
(45,132,o),
(131,-10,o),
(306,-10,cs),
(458,-10,o),
(532,92,o),
(532,300,c),
(396,300,l),
(396,189,o),
(366,135,o),
(306,135,cs),
(242,135,o),
(210,229,o),
(210,422,cs),
(210,588,o),
(242,669,o),
(306,669,cs),
(358,669,o),
(379,634,o),
(379,564,c)
);
},
{
closed = 1;
nodes = (
(532,300,l),
(532,430,l),
(316,430,l),
(316,300,l)
);
}
);
};
layerId = m003;
shapes = (
{
closed = 1;
nodes = (
(1014,614,l),
(1003,734,o),
(840,810,o),
(592,810,cs),
(296,810,o),
(110,660,o),
(110,422,cs),
(110,157,o),
(296,-10,o),
(592,-10,cs),
(870,-10,o),
(1044,133,o),
(1044,360,c),
(1034,360,l),
(1034,139,o),
(864,0,o),
(592,0,cs),
(302,0,o),
(120,163,o),
(120,422,cs),
(120,654,o),
(302,800,o),
(592,800,cs),
(834,800,o),
(993,728,o),
(1004,614,c)
);
},
{
closed = 1;
nodes = (
(1044,360,l),
(1044,370,l),
(672,370,l),
(672,360,l)
);
},
{
closed = 1;
nodes = (
(1034,360,l),
(1034,151,l),
(1034,0,l),
(1044,0,l),
(1044,360,l)
);
}
);
width = 1158;
},
{
anchors = (
{
name = bottom;
pos = (572,0);
},
{
name = top;
pos = (572,800);
}
);
layerId = m004;
shapes = (
{
closed = 1;
nodes = (
(1018,514,l),
(1018,698,o),
(846,814,o),
(572,814,cs),
(251,814,o),
(50,663,o),
(50,422,cs),
(50,157,o),
(251,-10,o),
(572,-10,cs),
(838,-10,o),
(1012,110,o),
(1024,300,c),
(742,300,l),
(723,260,o),
(657,235,o),
(572,235,cs),
(454,235,o),
(380,307,o),
(380,422,cs),
(380,512,o),
(454,569,o),
(572,569,cs),
(662,569,o),
(718,548,o),
(718,514,c)
);
},
{
closed = 1;
nodes = (
(1024,300,l),
(1024,460,l),
(592,460,l),
(592,300,l)
);
},
{
closed = 1;
nodes = (
(752,300,l),
(752,151,l),
(916,0,l),
(1024,0,l),
(1024,300,l)
);
}
);
width = 1074;
},
{
anchors = (
{
name = bottom;
pos = (422,0);
},
{
name = top;
pos = (435,800);
}
);
background = {
shapes = (
{
closed = 1;
nodes = (
(636,-10,o),
(775,157,o),
(775,422,cs),
(775,663,o),
(636,814,o),
(414,814,cs),
(193,814,o),
(55,663,o),
(55,422,cs),
(55,157,o),
(193,-10,o),
(414,-10,cs)
);
},
{
closed = 1;
nodes = (
(270,90,o),
(180,217,o),
(180,420,cs),
(180,601,o),
(270,714,o),
(414,714,cs),
(559,714,o),
(650,601,o),
(650,420,cs),
(650,217,o),
(559,90,o),
(414,90,cs)
);
}
);
};
layerId = "C42BF1BA-B3BB-492C-A865-1DF6B235F68F";
shapes = (
{
closed = 1;
nodes = (
(744,578,l),
(739,722,o),
(617,812,o),
(427,812,cs),
(198,812,o),
(55,662,o),
(55,422,cs),
(55,157,o),
(198,-10,o),
(427,-10,cs),
(628,-10,o),
(760,122,o),
(770,332,c),
(658,332,l),
(658,183,o),
(569,90,o),
(427,90,cs),
(275,90,o),
(180,218,o),
(180,422,cs),
(180,600,o),
(275,712,o),
(427,712,cs),
(543,712,o),
(619,660,o),
(624,578,c)
);
},
{
closed = 1;
nodes = (
(770,326,l),
(770,416,l),
(470,416,l),
(470,326,l)
);
},
{
closed = 1;
nodes = (
(658,326,l),
(658,151,l),
(717,0,l),
(770,0,l),
(770,326,l)
);
}
);
width = 825;
}
);
metricLeft = O;
metricRight = O;
unicode = 71;
},
{
color = 9;
glyphname = H;
kernLeft = H;
kernRight = H;
lastChange = "2024-08-08 06:06:40 +0000";
layers = (
{
anchors = (
{
name = bottom;
pos = (260,0);
},
{
name = center;
pos = (260,600);
},
{
name = top;
pos = (260,800);
},
{
name = topleft;
pos = (20,800);
}
);
layerId = m01;
shapes = (
{
closed = 1;
nodes = (
(200,0,l),
(200,336,l),
(320,336,l),
(320,0,l),
(480,0,l),
(480,800,l),
(320,800,l),
(320,471,l),
(200,471,l),
(200,800,l),
(40,800,l),
(40,0,l)
);
}
);
width = 520;
},
{
anchors = (
{
name = bottom;
pos = (290,0);
},
{
name = center;
pos = (290,601);
},
{
name = top;
pos = (290,800);
},
{
name = topleft;
pos = (20,800);
}
);
background = {
shapes = (
{
closed = 1;
nodes = (
(230,2,l),
(230,336,l),
(350,336,l),
(350,4,l),
(510,4,l),
(510,800,l),
(350,800,l),
(350,471,l),
(230,471,l),
(230,802,l),
(70,802,l),
(70,2,l)
);
}
);
};
layerId = m002;
shapes = (
{
closed = 1;
nodes = (
(100,0,l),
(100,398,l),
(480,398,l),
(480,0,l),
(490,0,l),
(490,800,l),
(480,800,l),
(480,408,l),
(100,408,l),
(100,800,l),
(90,800,l),
(90,0,l)
);
}
);
width = 580;
},
{
anchors = (
{
name = bottom;
pos = (580,0);
},
{
name = center;
pos = (580,601);
},
{
name = top;
pos = (580,800);
},
{
name = topleft;
pos = (40,800);
}
);
background = {
shapes = (
{
closed = 1;
nodes = (
(230,2,l),
(230,336,l),
(350,336,l),
(350,4,l),
(510,4,l),
(510,800,l),
(350,800,l),
(350,471,l),
(230,471,l),
(230,802,l),
(70,802,l),
(70,2,l)
);
}
);
};
layerId = m003;
shapes = (
{
closed = 1;
nodes = (
(190,0,l),
(190,398,l),
(970,398,l),
(970,0,l),
(980,0,l),
(980,800,l),
(970,800,l),
(970,408,l),
(190,408,l),
(190,800,l),
(180,800,l),
(180,0,l)
);
}
);
width = 1160;
},
{
anchors = (
{
name = bottom;
pos = (520,0);
},
{
name = center;
pos = (520,600);
},
{
name = top;
pos = (520,800);
},
{
name = topleft;
pos = (40,800);
}
);
layerId = m004;
shapes = (
{
closed = 1;
nodes = (
(400,0,l),
(400,286,l),
(640,286,l),
(640,0,l),
(960,0,l),
(960,800,l),
(640,800,l),
(640,521,l),
(400,521,l),
(400,800,l),
(80,800,l),
(80,0,l)
);
}
);
width = 1040;
},
{
anchors = (
{
name = bottom;
pos = (401,0);
},
{
name = center;
pos = (401,601);
},
{
name = top;
pos = (401,800);
},
{
name = topleft;
pos = (17,800);
}
);
layerId = "C42BF1BA-B3BB-492C-A865-1DF6B235F68F";
shapes = (
{
closed = 1;
nodes = (
(208,0,l),
(208,354,l),
(593,354,l),
(593,0,l),
(713,0,l),
(713,800,l),
(593,800,l),
(593,454,l),
(208,454,l),
(208,800,l),
(88,800,l),
(88,0,l)
);
}
);
width = 801;
}
);
metricLeft = N;
metricRight = N;
unicode = 72;
},
{
color = 9;
glyphname = I;
kernLeft = H;
kernRight = H;
lastChange = "2024-08-08 09:09:38 +0000";
layers = (
{
anchors = (
{
name = bottom;
pos = (118,0);
},
{
name = ogonek;
pos = (212,10);
},
{
name = top;
pos = (118,800);
},
{
name = topleft;
pos = (20,800);
}
);
layerId = m01;
shapes = (
{
closed = 1;
nodes = (
(40,800,l),
(40,0,l),
(195,0,l),
(195,800,l)
);
}
);
width = 235;
},
{
anchors = (
{
name = bottom;
pos = (118,0);
},
{
name = ogonek;
pos = (128,0);
},
{
name = top;
pos = (118,800);
},
{
name = topleft;
pos = (20,800);
}
);
layerId = m002;
shapes = (
{
closed = 1;
nodes = (
(112,800,l),
(112,0,l),
(122,0,l),
(122,800,l)
);
}
);
width = 235;
},
{
anchors = (
{
name = bottom;
pos = (236,0);
},
{
name = ogonek;
pos = (256,0);
},
{
name = top;
pos = (236,800);
},
{
name = topleft;
pos = (40,800);
}
);
layerId = m003;
shapes = (
{
closed = 1;
nodes = (
(229,800,l),
(229,0,l),
(239,0,l),
(239,800,l)
);
}
);
width = 470;
},
{
anchors = (
{
name = bottom;
pos = (236,0);
},
{
name = ogonek;
pos = (424,10);
},
{
name = top;
pos = (236,800);
},
{
name = topleft;
pos = (40,800);
}
);
layerId = m004;
shapes = (
{
closed = 1;
nodes = (
(80,800,l),
(80,0,l),
(390,0,l),
(390,800,l)
);
}
);
width = 470;
},
{
anchors = (
{
name = bottom;
pos = (138,0);
},
{
name = ogonek;
pos = (213,5);
},
{
name = top;
pos = (138,800);
},
{
name = topleft;
pos = (-9,800);
}
);
layerId = "C42BF1BA-B3BB-492C-A865-1DF6B235F68F";
shapes = (
{
closed = 1;
nodes = (
(77,800,l),
(77,0,l),
(197,0,l),
(197,800,l)
);
}
);
width = 274;
}
);
unicode = 73;
},
{
color = 9;
glyphname = J;
kernLeft = H;
kernRight = H;
lastChange = "2024-08-07 14:00:03 +0000";
layers = (
{
anchors = (
{
name = bottom;
pos = (120,0);
},
{
name = top;
pos = (120,800);
}
);
layerId = m01;
shapes = (
{
closed = 1;
nodes = (
(40,800,l),
(40,0,l),
(200,0,l),
(200,800,l)
);
},
{
closed = 1;
nodes = (
(109,-216,o),
(200,-127,o),
(200,0,c),
(40,0,l),
(40,-50,o),
(15,-86,o),
(-20,-86,c),
(-20,-216,l)
);
}
);
width = 240;
},
{
anchors = (
{
name = bottom;
pos = (120,0);
},
{
name = top;
pos = (120,800);
}
);
layerId = m002;
shapes = (
{
closed = 1;
nodes = (
(115,800,l),
(115,-110,l),
(125,-110,l),
(125,800,l)
);
},
{
closed = 1;
nodes = (
(87,-203,o),
(125,-155,o),
(125,-110,c),
(115,-110,l),
(115,-150,o),
(82,-193,o),
(40,-208,c),
(40,-218,l)
);
}
);
width = 240;
},
{
anchors = (
{
name = bottom;
pos = (240,0);
},
{
name = top;
pos = (240,800);
}
);
layerId = m003;
shapes = (
{
closed = 1;
nodes = (
(235,800,l),
(235,-10,l),
(245,-10,l),
(245,800,l)
);
},
{
closed = 1;
nodes = (
(181,-202,o),
(245,-122,o),
(245,-10,c),
(235,-10,l),
(235,-115,o),
(175,-191,o),
(80,-208,c),
(80,-218,l)
);
}
);
width = 480;
},
{
anchors = (
{
name = bottom;
pos = (240,0);
},
{
name = top;
pos = (240,800);
}
);
layerId = m004;
shapes = (
{
closed = 1;
nodes = (
(80,800,l),
(80,100,l),
(400,0,l),
(400,800,l)
);
},
{
closed = 1;
nodes = (
(243,-216,o),
(400,-139,o),
(400,0,c),
(80,100,l),
(80,45,o),
(37,14,o),
(-40,14,c),
(-40,-216,l)
);
}
);
width = 480;
},
{
anchors = (
{
name = bottom;
pos = (137,0);
},
{
name = top;
pos = (137,800);
}
);
layerId = "C42BF1BA-B3BB-492C-A865-1DF6B235F68F";
shapes = (
{
closed = 1;
nodes = (
(77,800,l),
(77,-8,l),
(197,-31,l),
(197,800,l)
);
},
{
closed = 1;
nodes = (
(111,-209,o),
(197,-137,o),
(197,-31,c),
(77,-8,l),
(77,-67,o),
(37,-109,o),
(-26,-117,c),
(-26,-217,l)
);
}
);
width = 274;
}
);
unicode = 74;
},
{
color = 9;
glyphname = K;
kernLeft = H;
kernRight = C;
lastChange = "2024-08-08 18:30:33 +0000";
layers = (
{
anchors = (
{
name = bottom;
pos = (280,0);
},
{
name = top;
pos = (280,800);
}
);
layerId = m01;
shapes = (
{
closed = 1;
nodes = (
(40,800,l),
(40,0,l),
(195,0,l),
(195,800,l)
);
},
{
closed = 1;
nodes = (
(371,800,l),
(181,429,l),
(352,429,l),
(541,800,l)
);
},
{
closed = 1;
nodes = (
(352,429,l),
(162,429,l),
(371,0,l),
(560,0,l)
);
}
);
width = 560;
},
{
anchors = (
{
name = bottom;
pos = (242,0);
},
{
name = top;
pos = (242,800);
}
);
background = {
shapes = (
{
closed = 1;
nodes = (
(80,800,l),
(80,0,l),
(235,0,l),
(235,800,l)
);
},
{
closed = 1;
nodes = (
(411,800,l),
(221,429,l),
(392,429,l),
(581,800,l)
);
},
{
closed = 1;
nodes = (
(392,429,l),
(202,429,l),
(411,0,l),
(600,0,l)
);
}
);
};
layerId = m002;
shapes = (
{
closed = 1;
nodes = (
(90,800,l),
(90,0,l),
(100,0,l),
(100,800,l)
);
},
{
closed = 1;
nodes = (
(490,800,l),
(91,429,l),
(105,429,l),
(505,800,l)
);
},
{
closed = 1;
nodes = (
(104,429,l),
(91,429,l),
(501,0,l),
(513,0,l)
);
}
);
width = 513;
},
{
anchors = (
{
name = bottom;
pos = (484,0);
},
{
name = top;
pos = (484,800);
}
);
background = {
shapes = (
{
closed = 1;
nodes = (
(80,800,l),
(80,0,l),
(235,0,l),
(235,800,l)
);
},
{
closed = 1;
nodes = (
(411,800,l),
(221,429,l),
(392,429,l),
(581,800,l)
);
},
{
closed = 1;
nodes = (
(392,429,l),
(202,429,l),
(411,0,l),
(600,0,l)
);
}
);
};
layerId = m003;
shapes = (
{
closed = 1;
nodes = (
(180,800,l),
(180,0,l),
(190,0,l),
(190,800,l)
);
},
{
closed = 1;
nodes = (
(880,800,l),
(182,429,l),
(203,429,l),
(910,800,l)
);
},
{
closed = 1;
nodes = (
(201,429,l),
(182,429,l),
(902,0,l),
(926,0,l)
);
}
);
width = 966;
},
{
anchors = (
{
name = bottom;
pos = (560,0);
},
{
name = top;
pos = (560,800);
}
);
layerId = m004;
shapes = (
{
closed = 1;
nodes = (
(80,800,l),
(80,0,l),
(390,0,l),
(390,800,l)
);
},
{
closed = 1;
nodes = (
(692,800,l),
(362,429,l),
(704,429,l),
(1082,800,l)
);
},
{
closed = 1;
nodes = (
(704,429,l),
(324,429,l),
(692,0,l),
(1120,0,l)
);
}
);
width = 1120;
},
{
anchors = (
{
name = bottom;
pos = (379,0);
},
{
name = top;
pos = (379,800);
}
);
layerId = "C42BF1BA-B3BB-492C-A865-1DF6B235F68F";
shapes = (
{
closed = 1;
nodes = (
(88,800,l),
(88,0,l),
(208,0,l),
(208,800,l)
);
},
{
closed = 1;
nodes = (
(546,800,l),
(190,399,l),
(342,399,l),
(693,800,l)
);
},
{
closed = 1;
nodes = (
(342,399,l),
(166,399,l),
(585,0,l),
(753,0,l)
);
}
);
width = 741;
}
);
metricLeft = N;
unicode = 75;
},
{
color = 9;
glyphname = L;
kernLeft = H;
kernRight = A;
lastChange = "2024-08-08 18:30:39 +0000";
layers = (
{
anchors = (
{
name = bottom;
pos = (203,0);
},
{
name = center;
pos = (203,400);
},
{
name = top;
pos = (203,800);
},
{
name = topright;
pos = (385,800);
}
);
layerId = m01;
shapes = (
{
closed = 1;
nodes = (
(195,800,l),
(40,800,l),
(40,0,l),
(195,0,l)
);
},
{
closed = 1;
nodes = (
(385,0,l),
(385,140,l),
(40,140,l),
(40,0,l)
);
}
);
width = 405;
},
{
anchors = (
{
name = bottom;
pos = (203,0);
},
{
name = center;
pos = (203,400);
},
{
name = top;
pos = (203,800);
},
{
name = topright;
pos = (385,800);
}
);
layerId = m002;
shapes = (
{
closed = 1;
nodes = (
(70,800,l),
(60,800,l),
(60,0,l),
(70,0,l)
);
},
{
closed = 1;
nodes = (
(355,0,l),
(355,10,l),
(60,10,l),
(60,0,l)
);
}
);
width = 405;
},
{
anchors = (
{
name = bottom;
pos = (406,0);
},
{
name = center;
pos = (406,400);
},
{
name = top;
pos = (406,800);
},
{
name = topright;
pos = (770,800);
}
);
layerId = m003;
shapes = (
{
closed = 1;
nodes = (
(130,800,l),
(120,800,l),
(120,0,l),
(130,0,l)
);
},
{
closed = 1;
nodes = (
(710,0,l),
(710,10,l),
(120,10,l),
(120,0,l)
);
}
);
width = 810;
},
{
anchors = (
{
name = bottom;
pos = (406,0);
},
{
name = center;
pos = (406,400);
},
{
name = top;
pos = (406,800);
},
{
name = topright;
pos = (770,800);
}
);
layerId = m004;
shapes = (
{
closed = 1;
nodes = (
(390,800,l),
(80,800,l),
(80,0,l),
(390,0,l)
);
},
{
closed = 1;
nodes = (
(770,0,l),
(770,240,l),
(80,240,l),
(80,0,l)
);
}
);
width = 810;
},
{
anchors = (
{
name = bottom;
pos = (306,0);
},
{
name = center;
pos = (306,400);
},
{
name = top;
pos = (306,800);
},
{
name = topright;
pos = (428,800);
}
);
layerId = "C42BF1BA-B3BB-492C-A865-1DF6B235F68F";
shapes = (
{
closed = 1;
nodes = (
(197,800,l),
(77,800,l),
(77,0,l),
(197,0,l)
);
},
{
closed = 1;
nodes = (
(555,0,l),
(555,100,l),
(77,100,l),
(77,0,l)
);
}
);
width = 553;
}
);
unicode = 76;
},
{
color = 9;
glyphname = M;
kernLeft = A;
kernRight = A;
lastChange = "2024-08-08 18:31:16 +0000";
layers = (
{
anchors = (
{
name = bottom;
pos = (345,0);
},
{
name = top;
pos = (345,800);
}
);
layerId = m01;
shapes = (
{
closed = 1;
nodes = (
(25,0,l),
(165,0,l),
(182,540,l),
(161,540,l),
(280,0,l),
(410,0,l),
(217,800,l),
(57,800,l)
);
},
{
closed = 1;
nodes = (
(279,0,l),
(409,0,l),
(538,540,l),
(517,540,l),
(525,0,l),
(665,0,l),
(643,800,l),
(483,800,l)
);
}
);
width = 690;
},
{
anchors = (
{
name = bottom;
pos = (362,0);
},
{
name = top;
pos = (362,800);
}
);
layerId = m002;
shapes = (
{
closed = 1;
nodes = (
(33,0,l),
(43,0,l),
(140,789,l),
(134,789,l),
(358,0,l),
(368,0,l),
(141,800,l),
(131,800,l)
);
},
{
closed = 1;
nodes = (
(358,0,l),
(368,0,l),
(597,789,l),
(591,789,l),
(680,0,l),
(690,0,l),
(600,800,l),
(590,800,l)
);
}
);
width = 723;
},
{
anchors = (
{
name = bottom;
pos = (724,0);
},
{
name = top;
pos = (724,800);
}
);
layerId = m003;
shapes = (
{
closed = 1;
nodes = (
(66,0,l),
(76,0,l),
(270,789,l),
(268,789,l),
(721,0,l),
(732,0,l),
(273,800,l),
(262,800,l)
);
},
{
closed = 1;
nodes = (
(721,0,l),
(732,0,l),
(1194,789,l),
(1192,789,l),
(1370,0,l),
(1380,0,l),
(1200,800,l),
(1189,800,l)
);
}
);
width = 1446;
},
{
anchors = (
{
name = bottom;
pos = (690,0);
},
{
name = top;
pos = (690,800);
}
);
layerId = m004;
shapes = (
{
closed = 1;
nodes = (
(50,0,l),
(330,0,l),
(364,540,l),
(322,540,l),
(560,0,l),
(820,0,l),
(484,800,l),
(114,800,l)
);
},
{
closed = 1;
nodes = (
(558,0,l),
(818,0,l),
(1076,540,l),
(1034,540,l),
(1050,0,l),
(1330,0,l),
(1286,800,l),
(916,800,l)
);
}
);
width = 1380;
},
{
anchors = (
{
name = bottom;
pos = (514,0);
},
{
name = top;
pos = (514,800);
}
);
layerId = "C42BF1BA-B3BB-492C-A865-1DF6B235F68F";
shapes = (
{
closed = 1;
nodes = (
(27,0,l),
(149,0,l),
(223,671,l),
(203,671,l),
(454,0,l),
(575,0,l),
(281,800,l),
(127,800,l)
);
},
{
closed = 1;
nodes = (
(454,0,l),
(574,0,l),
(836,671,l),
(817,671,l),
(878,0,l),
(1000,0,l),
(914,800,l),
(760,800,l)
);
}
);
width = 1035;
}
);
unicode = 77;
},
{
color = 9;
glyphname = N;
kernLeft = H;
kernRight = H;
lastChange = "2024-08-08 18:00:13 +0000";
layers = (
{
anchors = (
{
name = bottom;
pos = (260,0);
},
{
name = top;
pos = (260,800);
}
);
layerId = m01;
shapes = (
{
closed = 1;
nodes = (
(170,800,l),
(40,800,l),
(40,0,l),
(180,0,l)
);
},
{
closed = 1;
nodes = (
(350,0,l),
(480,0,l),
(480,800,l),
(340,800,l)
);
},
{
closed = 1;
nodes = (
(330,0,l),
(480,0,l),
(185,800,l),
(60,800,l)
);
}
);
width = 520;
},
{
anchors = (
{
name = bottom;
pos = (308,0);
},
{
name = top;
pos = (308,800);
}
);
background = {
shapes = (
{
closed = 1;
nodes = (
(218,802,l),
(88,802,l),
(88,2,l),
(228,2,l)
);
},
{
closed = 1;
nodes = (
(398,4,l),
(528,4,l),
(528,800,l),
(388,800,l)
);
},
{
closed = 1;
nodes = (
(378,4,l),
(528,4,l),
(233,800,l),
(108,800,l)
);
}
);
};
layerId = m002;
shapes = (
{
closed = 1;
nodes = (
(100,800,l),
(90,800,l),
(90,0,l),
(100,0,l)
);
},
{
closed = 1;
nodes = (
(516,0,l),
(526,0,l),
(526,800,l),
(516,800,l)
);
},
{
closed = 1;
nodes = (
(515,0,l),
(526,0,l),
(101,800,l),
(90,800,l)
);
}
);
width = 616;
},
{
anchors = (
{
name = bottom;
pos = (616,0);
},
{
name = top;
pos = (616,800);
}
);
background = {
shapes = (
{
closed = 1;
nodes = (
(218,802,l),
(88,802,l),
(88,2,l),
(228,2,l)
);
},
{
closed = 1;
nodes = (
(398,4,l),
(528,4,l),
(528,800,l),
(388,800,l)
);
},
{
closed = 1;
nodes = (
(378,4,l),
(528,4,l),
(233,800,l),
(108,800,l)
);
}
);
};
layerId = m003;
shapes = (
{
closed = 1;
nodes = (
(190,800,l),
(180,800,l),
(180,0,l),
(190,0,l)
);
},
{
closed = 1;
nodes = (
(1042,0,l),
(1052,0,l),
(1052,800,l),
(1042,800,l)
);
},
{
closed = 1;
nodes = (
(1038,0,l),
(1052,0,l),
(194,800,l),
(180,800,l)
);
}
);
width = 1232;
},
{
anchors = (
{
name = bottom;
pos = (520,0);
},
{
name = top;
pos = (520,800);
}
);
layerId = m004;
shapes = (
{
closed = 1;
nodes = (
(340,800,l),
(80,800,l),
(80,0,l),
(360,0,l)
);
},
{
closed = 1;
nodes = (
(700,0,l),
(960,0,l),
(960,800,l),
(680,800,l)
);
},
{
closed = 1;
nodes = (
(610,0,l),
(960,0,l),
(420,800,l),
(120,800,l)
);
}
);
width = 1040;
},
{
anchors = (
{
name = bottom;
pos = (406,0);
},
{
name = top;
pos = (406,800);
}
);
layerId = "C42BF1BA-B3BB-492C-A865-1DF6B235F68F";
shapes = (
{
closed = 1;
nodes = (
(192,800,l),
(77,800,l),
(77,0,l),
(199,0,l)
);
},
{
closed = 1;
nodes = (
(620,0,l),
(734,0,l),
(734,800,l),
(613,800,l)
);
},
{
closed = 1;
nodes = (
(591,0,l),
(714,0,l),
(219,800,l),
(97,800,l)
);
}
);
width = 811;
}
);
unicode = 78;
},
{
color = 9;
glyphname = Eng;
lastChange = "2024-08-08 18:03:15 +0000";
layers = (
{
layerId = m002;
shapes = (
{
closed = 1;
nodes = (
(100,800,l),
(90,800,l),
(90,0,l),
(100,0,l)
);
},
{
closed = 1;
nodes = (
(516,-100,l),
(526,-100,l),
(526,800,l),
(516,800,l)
);
},
{
closed = 1;
nodes = (
(515,0,l),
(526,0,l),
(101,800,l),
(90,800,l)
);
},
{
closed = 1;
nodes = (
(488,-193,o),
(526,-145,o),
(526,-100,c),
(516,-100,l),
(516,-140,o),
(483,-183,o),
(441,-198,c),
(441,-208,l)
);
}
);
width = 616;
},
{
layerId = m01;
shapes = (
{
closed = 1;
nodes = (
(170,800,l),
(40,800,l),
(40,0,l),
(180,0,l)
);
},
{
closed = 1;
nodes = (
(350,0,l),
(480,0,l),
(480,800,l),
(340,800,l)
);
},
{
closed = 1;
nodes = (
(330,0,l),
(480,0,l),
(185,800,l),
(60,800,l)
);
},
{
closed = 1;
nodes = (
(389,-216,o),
(480,-127,o),
(480,0,c),
(330,0,l),
(330,-50,o),
(301,-86,o),
(260,-86,c),
(260,-216,l)
);
}
);
width = 520;
},
{
layerId = m003;
shapes = (
{
closed = 1;
nodes = (
(190,800,l),
(180,800,l),
(180,0,l),
(190,0,l)
);
},
{
closed = 1;
nodes = (
(1042,0,l),
(1052,0,l),
(1052,800,l),
(1042,800,l)
);
},
{
closed = 1;
nodes = (
(1038,0,l),
(1052,0,l),
(194,800,l),
(180,800,l)
);
},
{
closed = 1;
nodes = (
(988,-192,o),
(1052,-112,o),
(1052,0,c),
(1042,0,l),
(1042,-105,o),
(982,-181,o),
(887,-198,c),
(887,-208,l)
);
}
);
width = 1232;
},
{
layerId = m004;
shapes = (
{
closed = 1;
nodes = (
(340,800,l),
(80,800,l),
(80,0,l),
(360,0,l)
);
},
{
closed = 1;
nodes = (
(700,0,l),
(960,0,l),
(960,800,l),
(680,800,l)
);
},
{
closed = 1;
nodes = (
(530,133,l),
(960,0,l),
(420,800,l),
(120,800,l)
);
},
{
closed = 1;
nodes = (
(803,-216,o),
(960,-139,o),
(960,0,c),
(640,100,l),
(640,45,o),
(597,14,o),
(520,14,c),
(520,-216,l)
);
}
);
width = 1040;
},
{
layerId = "C42BF1BA-B3BB-492C-A865-1DF6B235F68F";
shapes = (
{
closed = 1;
nodes = (
(192,800,l),
(77,800,l),
(77,0,l),
(199,0,l)
);
},
{
closed = 1;
nodes = (
(620,0,l),
(734,0,l),
(734,800,l),
(613,800,l)
);
},
{
closed = 1;
nodes = (
(591,0,l),
(714,0,l),
(219,800,l),
(97,800,l)
);
},
{
closed = 1;
nodes = (
(648,-209,o),
(734,-106,o),
(734,0,c),
(620,0,l),
(620,-59,o),
(574,-109,o),
(511,-117,c),
(511,-217,l)
);
}
);
width = 811;
}
);
metricRight = N;
unicode = 330;
},
{
color = 9;
glyphname = O;
kernLeft = O;
kernRight = O;
lastChange = "2024-08-08 18:31:47 +0000";
layers = (
{
anchors = (
{
name = bottom;
pos = (265,0);
},
{
name = center;
pos = (265,400);
},
{
name = ogonek;
pos = (477,10);
},
{
name = top;
pos = (265,800);
},
{
name = topleft;
pos = (20,800);
},
{
name = topright;
pos = (452,800);
}
);
layerId = m01;
shapes = (
{
closed = 1;
nodes = (
(426,-10,o),
(505,120,o),
(505,422,cs),
(505,696,o),
(426,814,o),
(264,814,cs),
(104,814,o),
(25,696,o),
(25,422,cs),
(25,120,o),
(104,-10,o),
(264,-10,cs)
);
},
{
closed = 1;
nodes = (
(219,135,o),
(190,221,o),
(190,422,cs),
(190,595,o),
(219,669,o),
(264,669,cs),
(310,669,o),
(340,595,o),
(340,422,cs),
(340,221,o),
(310,135,o),
(264,135,cs)
);
}
);
width = 530;
},
{
anchors = (
{
name = bottom;
pos = (294,0);
},
{
name = center;
pos = (295,400);
},
{
name = ogonek;
pos = (327,0);
},
{
name = top;
pos = (294,804);
},
{
name = topleft;
pos = (20,800);
},
{
name = topright;
pos = (530,800);
}
);
background = {
shapes = (
{
closed = 1;
nodes = (
(456,-10,o),
(535,120,o),
(535,422,cs),
(535,696,o),
(456,814,o),
(294,814,cs),
(134,814,o),
(55,696,o),
(55,422,cs),
(55,120,o),
(134,-10,o),
(294,-10,cs)
);
},
{
closed = 1;
nodes = (
(249,135,o),
(220,221,o),
(220,422,cs),
(220,595,o),
(249,669,o),
(294,669,cs),
(340,669,o),
(370,595,o),
(370,422,cs),
(370,221,o),
(340,135,o),
(294,135,cs)
);
}
);
};
layerId = m002;
shapes = (
{
closed = 1;
nodes = (
(456,-10,o),
(535,132,o),
(535,422,cs),
(535,685,o),
(456,814,o),
(294,814,cs),
(134,814,o),
(55,685,o),
(55,422,cs),
(55,132,o),
(134,-10,o),
(294,-10,cs)
);
},
{
closed = 1;
nodes = (
(140,0,o),
(65,139,o),
(65,422,cs),
(65,678,o),
(140,804,o),
(294,804,cs),
(449,804,o),
(525,678,o),
(525,422,cs),
(525,139,o),
(449,0,o),
(294,0,cs)
);
}
);
width = 590;
},
{
anchors = (
{
name = bottom;
pos = (588,0);
},
{
name = center;
pos = (590,400);
},
{
name = ogonek;
pos = (660,0);
},
{
name = top;
pos = (588,800);
},
{
name = topleft;
pos = (40,800);
},
{
name = topright;
pos = (1063,800);
}
);
background = {
shapes = (
{
closed = 1;
nodes = (
(456,-10,o),
(535,120,o),
(535,422,cs),
(535,696,o),
(456,814,o),
(294,814,cs),
(134,814,o),
(55,696,o),
(55,422,cs),
(55,120,o),
(134,-10,o),
(294,-10,cs)
);
},
{
closed = 1;
nodes = (
(249,135,o),
(220,221,o),
(220,422,cs),
(220,595,o),
(249,669,o),
(294,669,cs),
(340,669,o),
(370,595,o),
(370,422,cs),
(370,221,o),
(340,135,o),
(294,135,cs)
);
}
);
};
layerId = m003;
shapes = (
{
closed = 1;
nodes = (
(884,-10,o),
(1070,157,o),
(1070,422,cs),
(1070,663,o),
(884,814,o),
(588,814,cs),
(294,814,o),
(110,663,o),
(110,422,cs),
(110,157,o),
(294,-10,o),
(588,-10,cs)
);
},
{
closed = 1;
nodes = (
(301,0,o),
(120,163,o),
(120,422,cs),
(120,657,o),
(301,804,o),
(588,804,cs),
(878,804,o),
(1060,657,o),
(1060,422,cs),
(1060,163,o),
(878,0,o),
(588,0,cs)
);
}
);
width = 1180;
},
{
anchors = (
{
name = bottom;
pos = (530,0);
},
{
name = center;
pos = (530,400);
},
{
name = ogonek;
pos = (697,10);
},
{
name = top;
pos = (530,800);
},
{
name = topleft;
pos = (40,800);
},
{
name = topright;
pos = (896,800);
}
);
layerId = m004;
shapes = (
{
closed = 1;
nodes = (
(838,-10,o),
(1010,144,o),
(1010,422,cs),
(1010,674,o),
(838,814,o),
(528,814,cs),
(221,814,o),
(50,674,o),
(50,422,cs),
(50,144,o),
(221,-10,o),
(528,-10,cs)
);
},
{
closed = 1;
nodes = (
(433,235,o),
(380,292,o),
(380,412,cs),
(380,506,o),
(433,569,o),
(528,569,cs),
(626,569,o),
(680,506,o),
(680,412,cs),
(680,292,o),
(626,235,o),
(528,235,cs)
);
}
);
width = 1060;
},
{
anchors = (
{
name = bottom;
pos = (391,0);
},
{
name = center;
pos = (392,400);
},
{
name = ogonek;
pos = (489,5);
},
{
name = top;
pos = (391,801);
},
{
name = topleft;
pos = (1,800);
},
{
name = topright;
pos = (709,800);
}
);
layerId = "C42BF1BA-B3BB-492C-A865-1DF6B235F68F";
shapes = (
{
closed = 1;
nodes = (
(613,-10,o),
(752,157,o),
(752,422,cs),
(752,663,o),
(613,814,o),
(391,814,cs),
(170,814,o),
(32,663,o),
(32,422,cs),
(32,157,o),
(170,-10,o),
(391,-10,cs)
);
},
{
closed = 1;
nodes = (
(247,90,o),
(157,217,o),
(157,420,cs),
(157,601,o),
(247,714,o),
(391,714,cs),
(536,714,o),
(627,601,o),
(627,420,cs),
(627,217,o),
(536,90,o),
(391,90,cs)
);
}
);
width = 784;
}
);
unicode = 79;
},
{
glyphname = Oslash;
kernLeft = O;
lastChange = "2024-08-08 09:05:42 +0000";
layers = (
{
anchors = (
{
name = bottom;
pos = (300,0);
},
{
name = top;
pos = (300,800);
}
);
layerId = m002;
shapes = (
{
ref = O;
},
{
closed = 1;
nodes = (
(146,0,l),
(157,0,l),
(457,800,l),
(446,800,l)
);
}
);
width = 590;
},
{
anchors = (
{
name = bottom;
pos = (300,0);
},
{
name = top;
pos = (300,800);
}
);
layerId = m01;
shapes = (
{
ref = O;
},
{
closed = 1;
nodes = (
(75,0,l),
(149,0,l),
(449,800,l),
(375,800,l)
);
}
);
width = 530;
},
{
anchors = (
{
name = bottom;
pos = (300,0);
},
{
name = top;
pos = (300,800);
}
);
layerId = m003;
shapes = (
{
ref = O;
},
{
closed = 1;
nodes = (
(146,0,l),
(157,0,l),
(1070,800,l),
(1059,800,l)
);
}
);
width = 1180;
},
{
anchors = (
{
name = bottom;
pos = (320,0);
},
{
name = top;
pos = (320,800);
}
);
layerId = m004;
shapes = (
{
pos = (20,0);
ref = O;
},
{
closed = 1;
nodes = (
(50,0,l),
(167,0,l),
(1028,800,l),
(911,800,l)
);
}
);
width = 1080;
},
{
anchors = (
{
name = bottom;
pos = (300,0);
},
{
name = top;
pos = (300,800);
}
);
layerId = "C42BF1BA-B3BB-492C-A865-1DF6B235F68F";
shapes = (
{
alignment = -1;
ref = O;
},
{
closed = 1;
nodes = (
(33,0,l),
(133,0,l),
(727,800,l),
(627,800,l)
);
}
);
width = 784;
}
);
metricLeft = O;
metricRight = O;
unicode = 216;
},
{
color = 9;
glyphname = P;
kernLeft = H;
kernRight = V;
lastChange = "2024-08-08 18:31:57 +0000";
layers = (
{
anchors = (
{
name = bottom;
pos = (250,0);
},
{
name = top;
pos = (250,800);
}
);
layerId = m01;
shapes = (
{
closed = 1;
nodes = (
(227,435,l),
(185,435,l),
(185,665,l),
(227,665,l),
(227,800,l),
(40,800,l),
(40,0,l),
(185,0,l),
(187,300,l),
(227,300,l)
);
},
{
closed = 1;
nodes = (
(227,300,l),
(394,300,o),
(475,389,o),
(475,572,cs),
(475,725,o),
(394,800,o),
(227,800,c),
(227,665,l),
(286,665,o),
(315,634,o),
(315,572,cs),
(315,480,o),
(286,435,o),
(227,435,c)
);
}
);
width = 500;
},
{
anchors = (
{
name = bottom;
pos = (250,0);
},
{
name = top;
pos = (250,800);
}
);
background = {
shapes = (
{
closed = 1;
nodes = (
(247,435,l),
(205,435,l),
(205,665,l),
(247,665,l),
(247,800,l),
(60,800,l),
(60,0,l),
(205,0,l),
(207,300,l),
(247,300,l)
);
},
{
closed = 1;
nodes = (
(247,300,l),
(414,300,o),
(495,389,o),
(495,572,cs),
(495,725,o),
(414,800,o),
(247,800,c),
(247,665,l),
(306,665,o),
(335,634,o),
(335,572,cs),
(335,480,o),
(306,435,o),
(247,435,c)
);
}
);
};
layerId = m002;
shapes = (
{
closed = 1;
nodes = (
(227,372,l),
(100,372,l),
(100,790,l),
(227,790,l),
(227,800,l),
(90,800,l),
(90,0,l),
(98,0,l),
(100,362,l),
(227,362,l)
);
},
{
closed = 1;
nodes = (
(227,362,l),
(373,362,o),
(445,431,o),
(445,572,cs),
(445,725,o),
(373,800,o),
(227,800,c),
(227,790,l),
(367,790,o),
(435,718,o),
(435,572,cs),
(435,438,o),
(367,372,o),
(227,372,c)
);
}
);
width = 500;
},
{
anchors = (
{
name = bottom;
pos = (500,0);
},
{
name = top;
pos = (500,800);
}
);
background = {
shapes = (
{
closed = 1;
nodes = (
(247,435,l),
(205,435,l),
(205,665,l),
(247,665,l),
(247,800,l),
(60,800,l),
(60,0,l),
(205,0,l),
(207,300,l),
(247,300,l)
);
},
{
closed = 1;
nodes = (
(247,300,l),
(414,300,o),
(495,389,o),
(495,572,cs),
(495,725,o),
(414,800,o),
(247,800,c),
(247,665,l),
(306,665,o),
(335,634,o),
(335,572,cs),
(335,480,o),
(306,435,o),
(247,435,c)
);
}
);
};
layerId = m003;
shapes = (
{
closed = 1;
nodes = (
(554,372,l),
(190,372,l),
(190,790,l),
(554,790,l),
(554,800,l),
(180,800,l),
(180,0,l),
(190,0,l),
(190,362,l),
(554,362,l)
);
},
{
closed = 1;
nodes = (
(554,362,l),
(760,362,o),
(890,443,o),
(890,572,cs),
(890,712,o),
(760,800,o),
(554,800,c),
(554,790,l),
(754,790,o),
(880,706,o),
(880,572,cs),
(880,449,o),
(754,372,o),
(554,372,c)
);
}
);
width = 1000;
},
{
anchors = (
{
name = bottom;
pos = (500,0);
},
{
name = top;
pos = (500,800);
}
);
layerId = m004;
shapes = (
{
closed = 1;
nodes = (
(554,485,l),
(370,485,l),
(370,565,l),
(554,565,l),
(554,800,l),
(80,800,l),
(80,0,l),
(370,0,l),
(374,250,l),
(554,250,l)
);
},
{
closed = 1;
nodes = (
(554,250,l),
(809,250,o),
(950,365,o),
(950,572,cs),
(950,719,o),
(809,800,o),
(554,800,c),
(554,565,l),
(603,565,o),
(630,551,o),
(630,526,cs),
(630,500,o),
(603,485,o),
(554,485,c)
);
}
);
width = 1000;
},
{
anchors = (
{
name = bottom;
pos = (364,0);
},
{
name = top;
pos = (364,800);
}
);
layerId = "C42BF1BA-B3BB-492C-A865-1DF6B235F68F";
shapes = (
{
closed = 1;
nodes = (
(403,421,l),
(209,421,l),
(209,700,l),
(403,700,l),
(403,800,l),
(88,800,l),
(88,0,l),
(207,0,l),
(210,321,l),
(403,321,l)
);
},
{
closed = 1;
nodes = (
(403,321,l),
(572,321,o),
(678,416,o),
(678,567,cs),
(678,710,o),
(572,800,o),
(403,800,c),
(403,700,l),
(498,700,o),
(558,649,o),
(558,567,cs),
(558,477,o),
(498,421,o),
(403,421,c)
);
}
);
width = 733;
}
);
metricLeft = N;
metricRight = O;
unicode = 80;
},
{
color = 9;
glyphname = Q;
kernLeft = O;
kernRight = O;
lastChange = "2024-08-08 18:32:19 +0000";
layers = (
{
anchors = (
{
name = bottom;
pos = (265,0);
},
{
name = top;
pos = (265,800);
}
);
layerId = m01;
shapes = (
{
closed = 1;
nodes = (
(426,-10,o),
(505,120,o),
(505,422,cs),
(505,696,o),
(426,814,o),
(264,814,cs),
(104,814,o),
(25,696,o),
(25,422,cs),
(25,120,o),
(104,-10,o),
(264,-10,cs)
);
},
{
closed = 1;
nodes = (
(219,135,o),
(190,221,o),
(190,422,cs),
(190,595,o),
(219,669,o),
(264,669,cs),
(310,669,o),
(340,595,o),
(340,422,cs),
(340,221,o),
(310,135,o),
(264,135,cs)
);
},
{
closed = 1;
nodes = (
(479,-86,l),
(452,-86,o),
(344,-58,o),
(334,0,c),
(194,0,l),
(232,-144,o),
(345,-216,o),
(479,-216,c)
);
}
);
width = 530;
},
{
anchors = (
{
name = bottom;
pos = (295,0);
},
{
name = top;
pos = (295,800);
}
);
layerId = m002;
shapes = (
{
closed = 1;
nodes = (
(456,-10,o),
(535,132,o),
(535,422,cs),
(535,685,o),
(456,814,o),
(294,814,cs),
(134,814,o),
(55,685,o),
(55,422,cs),
(55,132,o),
(134,-10,o),
(294,-10,cs)
);
},
{
closed = 1;
nodes = (
(140,0,o),
(65,139,o),
(65,422,cs),
(65,678,o),
(140,804,o),
(294,804,cs),
(449,804,o),
(525,678,o),
(525,422,cs),
(525,139,o),
(449,0,o),
(294,0,cs)
);
},
{
closed = 1;
nodes = (
(428,-152,l),
(341,-152,o),
(299,-103,o),
(299,-4,c),
(289,-4,l),
(289,-110,o),
(335,-162,o),
(428,-162,c)
);
}
);
width = 590;
},
{
anchors = (
{
name = bottom;
pos = (590,0);
},
{
name = top;
pos = (590,800);
}
);
layerId = m003;
shapes = (
{
closed = 1;
nodes = (
(884,-10,o),
(1070,157,o),
(1070,422,cs),
(1070,663,o),
(884,814,o),
(588,814,cs),
(294,814,o),
(110,663,o),
(110,422,cs),
(110,157,o),
(294,-10,o),
(588,-10,cs)
);
},
{
closed = 1;
nodes = (
(301,0,o),
(120,163,o),
(120,422,cs),
(120,657,o),
(301,804,o),
(588,804,cs),
(878,804,o),
(1060,657,o),
(1060,422,cs),
(1060,163,o),
(878,0,o),
(588,0,cs)
);
},
{
closed = 1;
nodes = (
(856,-152,l),
(694,-152,o),
(593,-95,o),
(593,-4,c),
(583,-4,l),
(583,-101,o),
(688,-162,o),
(856,-162,c)
);
}
);
width = 1180;
},
{
anchors = (
{
name = bottom;
pos = (530,0);
},
{
name = top;
pos = (530,800);
}
);
layerId = m004;
shapes = (
{
closed = 1;
nodes = (
(838,-10,o),
(1010,144,o),
(1010,422,cs),
(1010,674,o),
(838,814,o),
(528,814,cs),
(221,814,o),
(50,674,o),
(50,422,cs),
(50,144,o),
(221,-10,o),
(528,-10,cs)
);
},
{
closed = 1;
nodes = (
(433,235,o),
(380,302,o),
(380,422,cs),
(380,516,o),
(433,569,o),
(528,569,cs),
(626,569,o),
(680,516,o),
(680,422,cs),
(680,302,o),
(626,235,o),
(528,235,cs)
);
},
{
closed = 1;
nodes = (
(958,14,l),
(768,14,o),
(665,9,o),
(668,0,c),
(388,0,l),
(461,-139,o),
(664,-216,o),
(958,-216,c)
);
}
);
width = 1060;
},
{
anchors = (
{
name = bottom;
pos = (415,0);
},
{
name = top;
pos = (415,800);
}
);
layerId = "C42BF1BA-B3BB-492C-A865-1DF6B235F68F";
shapes = (
{
closed = 1;
nodes = (
(636,-10,o),
(775,157,o),
(775,422,cs),
(775,663,o),
(636,814,o),
(414,814,cs),
(193,814,o),
(55,663,o),
(55,422,cs),
(55,157,o),
(193,-10,o),
(414,-10,cs)
);
},
{
closed = 1;
nodes = (
(270,93,o),
(180,220,o),
(180,422,cs),
(180,601,o),
(270,714,o),
(414,714,cs),
(559,714,o),
(650,601,o),
(650,422,cs),
(650,220,o),
(559,93,o),
(414,93,cs)
);
},
{
closed = 1;
nodes = (
(672,-99,l),
(548,-99,o),
(469,-62,o),
(467,-2,c),
(360,-2,l),
(386,-124,o),
(506,-200,o),
(672,-200,c)
);
}
);
width = 830;
}
);
metricLeft = O;
metricRight = O;
unicode = 81;
},
{
color = 9;
glyphname = R;
kernLeft = H;
kernRight = C;
lastChange = "2024-08-08 18:32:43 +0000";
layers = (
{
anchors = (
{
name = bottom;
pos = (259,0);
},
{
name = top;
pos = (259,800);
}
);
layerId = m01;
shapes = (
{
closed = 1;
nodes = (
(227,435,l),
(185,435,l),
(185,665,l),
(227,665,l),
(227,800,l),
(40,800,l),
(40,0,l),
(185,0,l),
(187,300,l),
(227,300,l)
);
},
{
closed = 1;
nodes = (
(227,300,l),
(394,300,o),
(475,389,o),
(475,572,cs),
(475,725,o),
(394,800,o),
(227,800,c),
(227,665,l),
(286,665,o),
(315,634,o),
(315,572,cs),
(315,480,o),
(286,435,o),
(227,435,c)
);
},
{
closed = 1;
nodes = (
(335,0,l),
(492,0,l),
(372,409,l),
(215,409,l)
);
}
);
width = 517;
},
{
anchors = (
{
name = bottom;
pos = (261,0);
},
{
name = top;
pos = (261,800);
}
);
background = {
shapes = (
{
closed = 1;
nodes = (
(267,435,l),
(225,435,l),
(225,665,l),
(267,665,l),
(267,800,l),
(80,800,l),
(80,0,l),
(225,0,l),
(227,300,l),
(267,300,l)
);
},
{
closed = 1;
nodes = (
(267,300,l),
(434,300,o),
(515,389,o),
(515,572,cs),
(515,725,o),
(434,800,o),
(267,800,c),
(267,665,l),
(326,665,o),
(355,634,o),
(355,572,cs),
(355,480,o),
(326,435,o),
(267,435,c)
);
},
{
closed = 1;
nodes = (
(375,0,l),
(532,0,l),
(412,409,l),
(255,409,l)
);
}
);
};
layerId = m002;
shapes = (
{
closed = 1;
nodes = (
(226,372,l),
(100,372,l),
(100,790,l),
(226,790,l),
(226,800,l),
(90,800,l),
(90,0,l),
(99,0,l),
(101,362,l),
(226,362,l)
);
},
{
closed = 1;
nodes = (
(226,362,l),
(393,362,o),
(465,425,o),
(465,572,cs),
(465,732,o),
(393,800,o),
(226,800,c),
(226,790,l),
(386,790,o),
(455,725,o),
(455,572,cs),
(455,432,o),
(386,372,o),
(226,372,c)
);
},
{
closed = 1;
nodes = (
(455,0,l),
(466,0,l),
(318,375,l),
(307,375,l)
);
}
);
width = 521;
},
{
anchors = (
{
name = bottom;
pos = (522,0);
},
{
name = top;
pos = (522,800);
}
);
background = {
shapes = (
{
closed = 1;
nodes = (
(267,435,l),
(225,435,l),
(225,665,l),
(267,665,l),
(267,800,l),
(80,800,l),
(80,0,l),
(225,0,l),
(227,300,l),
(267,300,l)
);
},
{
closed = 1;
nodes = (
(267,300,l),
(434,300,o),
(515,389,o),
(515,572,cs),
(515,725,o),
(434,800,o),
(267,800,c),
(267,665,l),
(326,665,o),
(355,634,o),
(355,572,cs),
(355,480,o),
(326,435,o),
(267,435,c)
);
},
{
closed = 1;
nodes = (
(375,0,l),
(532,0,l),
(412,409,l),
(255,409,l)
);
}
);
};
layerId = m003;
shapes = (
{
closed = 1;
nodes = (
(554,372,l),
(190,372,l),
(190,790,l),
(554,790,l),
(554,800,l),
(180,800,l),
(180,0,l),
(187,0,l),
(191,362,l),
(554,362,l)
);
},
{
closed = 1;
nodes = (
(554,362,l),
(785,362,o),
(930,443,o),
(930,572,cs),
(930,712,o),
(785,800,o),
(554,800,c),
(554,790,l),
(779,790,o),
(920,706,o),
(920,572,cs),
(920,449,o),
(779,372,o),
(554,372,c)
);
},
{
closed = 1;
nodes = (
(919,0,l),
(932,0,l),
(638,371,l),
(625,371,l)
);
}
);
width = 1042;
},
{
anchors = (
{
name = bottom;
pos = (518,0);
},
{
name = top;
pos = (518,800);
}
);
layerId = m004;
shapes = (
{
closed = 1;
nodes = (
(554,485,l),
(370,485,l),
(370,565,l),
(554,565,l),
(554,800,l),
(80,800,l),
(80,0,l),
(370,0,l),
(374,250,l),
(554,250,l)
);
},
{
closed = 1;
nodes = (
(554,250,l),
(809,250,o),
(950,365,o),
(950,572,cs),
(950,719,o),
(809,800,o),
(554,800,c),
(554,565,l),
(603,565,o),
(630,551,o),
(630,526,cs),
(630,500,o),
(603,485,o),
(554,485,c)
);
},
{
closed = 1;
nodes = (
(640,0,l),
(984,0,l),
(744,409,l),
(445,384,l)
);
}
);
width = 1034;
},
{
anchors = (
{
name = bottom;
pos = (379,0);
},
{
name = top;
pos = (379,800);
}
);
layerId = "C42BF1BA-B3BB-492C-A865-1DF6B235F68F";
shapes = (
{
closed = 1;
nodes = (
(392,421,l),
(208,421,l),
(208,701,l),
(392,701,l),
(392,800,l),
(88,800,l),
(88,0,l),
(206,0,l),
(209,321,l),
(392,321,l)
);
},
{
closed = 1;
nodes = (
(392,321,l),
(571,321,o),
(684,416,o),
(684,567,cs),
(684,710,o),
(571,800,o),
(392,800,c),
(392,701,l),
(498,701,o),
(564,649,o),
(564,567,cs),
(564,477,o),
(498,421,o),
(392,421,c)
);
},
{
closed = 1;
nodes = (
(559,0,l),
(697,0,l),
(484,391,l),
(358,385,l)
);
}
);
width = 752;
}
);
metricLeft = N;
metricRight = O;
unicode = 82;
},
{
color = 9;
glyphname = S;
kernLeft = O;
kernRight = C;
lastChange = "2024-08-08 18:34:00 +0000";
layers = (
{
anchors = (
{
name = bottom;
pos = (240,0);
},
{
name = top;
pos = (240,800);
}
);
layerId = m01;
shapes = (
{
closed = 1;
nodes = (
(379,-10,o),
(447,62,o),
(447,210,cs),
(447,425,o),
(185,469,o),
(185,589,cs),
(185,650,o),
(199,680,o),
(229,680,cs),
(270,680,o),
(290,644,o),
(290,569,c),
(443,569,l),
(443,734,o),
(376,815,o),
(239,815,cs),
(101,815,o),
(33,741,o),
(33,589,cs),
(33,374,o),
(296,330,o),
(296,210,cs),
(296,153,o),
(281,125,o),
(250,125,cs),
(206,125,o),
(185,160,o),
(185,230,c),
(35,230,l),
(35,69,o),
(102,-10,o),
(240,-10,cs)
);
}
);
width = 480;
},
{
anchors = (
{
name = bottom;
pos = (230,0);
},
{
name = top;
pos = (230,800);
}
);
background = {
shapes = (
{
closed = 1;
nodes = (
(369,-10,o),
(437,62,o),
(437,210,cs),
(437,425,o),
(175,469,o),
(175,589,cs),
(175,650,o),
(189,680,o),
(219,680,cs),
(260,680,o),
(280,644,o),
(280,569,c),
(433,569,l),
(433,734,o),
(366,815,o),
(229,815,cs),
(91,815,o),
(23,741,o),
(23,589,cs),
(23,374,o),
(286,330,o),
(286,210,cs),
(286,153,o),
(271,125,o),
(240,125,cs),
(196,125,o),
(175,160,o),
(175,230,c),
(25,230,l),
(25,69,o),
(92,-10,o),
(230,-10,cs)
);
}
);
};
layerId = m002;
shapes = (
{
closed = 1;
nodes = (
(362,-10,o),
(427,56,o),
(427,190,cs),
(427,414,o),
(43,394,o),
(43,609,cs),
(43,741,o),
(104,805,o),
(229,805,cs),
(353,805,o),
(403,741,o),
(413,609,c),
(421,609,l),
(411,747,o),
(358,815,o),
(229,815,cs),
(97,815,o),
(33,747,o),
(33,609,cs),
(33,385,o),
(417,405,o),
(417,190,cs),
(417,62,o),
(356,0,o),
(230,0,cs),
(107,0,o),
(57,62,o),
(47,190,c),
(37,190,l),
(47,56,o),
(100,-10,o),
(230,-10,cs)
);
}
);
width = 460;
},
{
anchors = (
{
name = bottom;
pos = (460,0);
},
{
name = top;
pos = (460,800);
}
);
background = {
shapes = (
{
closed = 1;
nodes = (
(369,-10,o),
(437,62,o),
(437,210,cs),
(437,425,o),
(175,469,o),
(175,589,cs),
(175,650,o),
(189,680,o),
(219,680,cs),
(260,680,o),
(280,644,o),
(280,569,c),
(433,569,l),
(433,734,o),
(366,815,o),
(229,815,cs),
(91,815,o),
(23,741,o),
(23,589,cs),
(23,374,o),
(286,330,o),
(286,210,cs),
(286,153,o),
(271,125,o),
(240,125,cs),
(196,125,o),
(175,160,o),
(175,230,c),
(25,230,l),
(25,69,o),
(92,-10,o),
(230,-10,cs)
);
}
);
};
layerId = m003;
shapes = (
{
closed = 1;
nodes = (
(702,-10,o),
(854,67,o),
(854,190,cs),
(854,514,o),
(76,298,o),
(76,609,cs),
(76,729,o),
(223,805,o),
(458,805,cs),
(670,805,o),
(814,729,o),
(832,609,c),
(842,609,l),
(824,736,o),
(676,815,o),
(458,815,cs),
(217,815,o),
(66,736,o),
(66,609,cs),
(66,285,o),
(844,502,o),
(844,190,cs),
(844,73,o),
(696,0,o),
(460,0,cs),
(247,0,o),
(102,73,o),
(84,190,c),
(74,190,l),
(92,67,o),
(241,-10,o),
(460,-10,cs)
);
}
);
width = 920;
},
{
anchors = (
{
name = bottom;
pos = (480,0);
},
{
name = top;
pos = (480,800);
}
);
layerId = m004;
shapes = (
{
closed = 1;
nodes = (
(746,-10,o),
(894,70,o),
(894,215,cs),
(894,530,o),
(370,469,o),
(370,589,cs),
(370,615,o),
(401,630,o),
(458,630,cs),
(536,630,o),
(580,590,o),
(580,519,c),
(886,519,l),
(896,709,o),
(750,815,o),
(478,815,cs),
(213,815,o),
(66,734,o),
(66,589,cs),
(66,274,o),
(592,335,o),
(592,215,cs),
(592,189,o),
(559,175,o),
(500,175,cs),
(416,175,o),
(370,213,o),
(370,280,c),
(70,280,l),
(60,94,o),
(206,-10,o),
(480,-10,cs)
);
}
);
width = 960;
},
{
anchors = (
{
name = bottom;
pos = (284,0);
},
{
name = top;
pos = (368,800);
}
);
layerId = "C42BF1BA-B3BB-492C-A865-1DF6B235F68F";
shapes = (
{
closed = 1;
nodes = (
(512,-10,o),
(629,71,o),
(629,201,cs),
(629,514,o),
(154,415,o),
(154,600,cs),
(154,671,o),
(214,715,o),
(326,715,cs),
(427,715,o),
(495,662,o),
(501,578,c),
(621,578,l),
(616,724,o),
(502,815,o),
(326,815,cs),
(140,815,o),
(34,732,o),
(34,600,cs),
(34,316,o),
(509,416,o),
(509,201,cs),
(509,133,o),
(438,90,o),
(326,90,cs),
(224,90,o),
(155,141,o),
(148,221,c),
(28,221,l),
(33,79,o),
(148,-10,o),
(326,-10,cs)
);
}
);
width = 658;
}
);
unicode = 83;
},
{
color = 9;
glyphname = Germandbls;
lastChange = "2024-08-08 18:35:29 +0000";
layers = (
{
anchors = (
{
name = bottom;
pos = (254,0);
},
{
name = top;
pos = (254,850);
}
);
layerId = m002;
shapes = (
{
closed = 1;
nodes = (
(140,0,l),
(140,650,l),
(130,650,l),
(130,0,l)
);
},
{
closed = 1;
nodes = (
(136,640,l),
(136,650,l),
(100,650,l),
(100,640,l)
);
},
{
closed = 1;
nodes = (
(140,650,l),
(140,789,l),
(130,800,l),
(130,650,l)
);
},
{
closed = 1;
nodes = (
(364,-18,o),
(458,46,o),
(451,160,cs),
(438,366,o),
(287,292,o),
(287,430,c),
(276,430,l),
(276,285,o),
(428,358,o),
(441,160,cs),
(448,53,o),
(357,-8,o),
(267,0,c),
(267,-10,l)
);
},
{
closed = 1;
nodes = (
(287,430,l),
(287,602,o),
(404,492,o),
(404,690,cs),
(404,782,o),
(346,800,o),
(247,800,c),
(130,800,l),
(140,789,l),
(246,789,l),
(340,789,o),
(394,778,o),
(394,690,cs),
(394,499,o),
(276,609,o),
(276,430,c)
);
}
);
width = 506;
},
{
anchors = (
{
name = bottom;
pos = (300,0);
},
{
name = top;
pos = (300,800);
}
);
layerId = m01;
shapes = (
{
closed = 1;
nodes = (
(210,0,l),
(210,650,l),
(70,650,l),
(70,0,l)
);
},
{
closed = 1;
nodes = (
(205,520,l),
(205,650,l),
(40,650,l),
(40,520,l)
);
},
{
closed = 1;
nodes = (
(210,650,l),
(210,670,l),
(70,800,l),
(70,650,l)
);
},
{
closed = 1;
nodes = (
(451,-10,o),
(531,70,o),
(531,215,cs),
(531,376,o),
(426,324,o),
(426,390,c),
(286,390,l),
(286,297,o),
(391,319,o),
(391,215,cs),
(391,157,o),
(361,125,o),
(307,125,c),
(307,-10,l)
);
},
{
closed = 1;
nodes = (
(426,390,l),
(424,456,o),
(494,449,o),
(494,610,cs),
(494,732,o),
(410,800,o),
(260,800,c),
(70,800,l),
(210,670,l),
(260,670,l),
(320,670,o),
(354,649,o),
(354,610,cs),
(354,506,o),
(286,483,o),
(286,390,c)
);
}
);
width = 556;
},
{
anchors = (
{
name = bottom;
pos = (488,0);
},
{
name = top;
pos = (488,850);
}
);
layerId = m003;
shapes = (
{
closed = 1;
nodes = (
(250,0,l),
(250,650,l),
(240,650,l),
(240,0,l)
);
},
{
closed = 1;
nodes = (
(242,640,l),
(242,650,l),
(180,650,l),
(180,640,l)
);
},
{
closed = 1;
nodes = (
(250,650,l),
(250,790,l),
(240,800,l),
(240,650,l)
);
},
{
closed = 1;
nodes = (
(740,-19,o),
(882,54,o),
(882,180,cs),
(882,366,o),
(554,292,o),
(554,430,c),
(544,430,l),
(544,285,o),
(872,355,o),
(872,180,cs),
(872,59,o),
(734,-10,o),
(514,0,c),
(514,-10,l)
);
},
{
closed = 1;
nodes = (
(554,430,l),
(554,598,o),
(788,492,o),
(788,670,cs),
(788,750,o),
(705,800,o),
(573,800,c),
(240,800,l),
(250,790,l),
(573,790,l),
(699,790,o),
(778,744,o),
(778,670,cs),
(778,499,o),
(544,609,o),
(544,430,c)
);
}
);
width = 992;
},
{
anchors = (
{
name = bottom;
pos = (600,0);
},
{
name = top;
pos = (600,800);
}
);
layerId = m004;
shapes = (
{
closed = 1;
nodes = (
(420,0,l),
(420,650,l),
(140,650,l),
(140,0,l)
);
},
{
closed = 1;
nodes = (
(410,520,l),
(410,650,l),
(80,650,l),
(80,520,l)
);
},
{
closed = 1;
nodes = (
(420,650,l),
(420,670,l),
(140,800,l),
(140,650,l)
);
},
{
closed = 1;
nodes = (
(902,-10,o),
(1062,70,o),
(1062,215,cs),
(1062,376,o),
(852,324,o),
(852,390,c),
(572,390,l),
(572,297,o),
(782,319,o),
(782,215,cs),
(782,157,o),
(722,125,o),
(614,125,c),
(614,-10,l)
);
},
{
closed = 1;
nodes = (
(852,390,l),
(848,456,o),
(988,449,o),
(988,610,cs),
(988,732,o),
(821,800,o),
(520,800,c),
(140,800,l),
(420,670,l),
(520,670,l),
(641,670,o),
(708,649,o),
(708,610,cs),
(708,506,o),
(572,483,o),
(572,390,c)
);
}
);
width = 1112;
},
{
anchors = (
{
name = bottom;
pos = (350,0);
},
{
name = top;
pos = (350,826);
}
);
layerId = "C42BF1BA-B3BB-492C-A865-1DF6B235F68F";
shapes = (
{
closed = 1;
nodes = (
(208,0,l),
(208,650,l),
(88,650,l),
(88,0,l)
);
},
{
closed = 1;
nodes = (
(201,560,l),
(201,650,l),
(91,650,l),
(91,560,l)
);
},
{
closed = 1;
nodes = (
(208,650,l),
(208,700,l),
(88,800,l),
(88,650,l)
);
},
{
closed = 1;
nodes = (
(531,-15,o),
(660,65,o),
(660,196,cs),
(660,361,o),
(481,327,o),
(481,401,c),
(357,401,l),
(357,243,o),
(540,309,o),
(540,196,cs),
(540,126,o),
(457,85,o),
(325,90,c),
(325,-10,l)
);
},
{
closed = 1;
nodes = (
(481,401,l),
(479,475,o),
(606,447,o),
(606,612,cs),
(606,727,o),
(494,800,o),
(316,800,c),
(88,800,l),
(208,700,l),
(315,700,l),
(420,700,o),
(486,666,o),
(486,612,cs),
(486,499,o),
(357,559,o),
(357,401,c)
);
}
);
width = 692;
}
);
metricLeft = H;
metricRight = O;
unicode = 7838;
},
{
color = 9;
glyphname = T;
kernLeft = V;
kernRight = V;
lastChange = "2024-08-07 14:00:03 +0000";
layers = (
{
anchors = (
{
name = bottom;
pos = (218,0);
},
{
name = center;
pos = (218,400);
},
{
name = top;
pos = (218,800);
}
);
layerId = m01;
shapes = (
{
closed = 1;
nodes = (
(140,800,l),
(140,0,l),
(295,0,l),
(295,800,l)
);
},
{
closed = 1;
nodes = (
(10,660,l),
(150,660,l),
(150,800,l),
(10,800,l)
);
},
{
closed = 1;
nodes = (
(285,660,l),
(425,660,l),
(425,800,l),
(285,800,l)
);
}
);
width = 435;
},
{
anchors = (
{
name = bottom;
pos = (221,0);
},
{
name = center;
pos = (221,400);
},
{
name = top;
pos = (221,800);
}
);
background = {
shapes = (
{
closed = 1;
nodes = (
(143,800,l),
(143,0,l),
(298,0,l),
(298,800,l)
);
},
{
closed = 1;
nodes = (
(13,660,l),
(153,660,l),
(153,800,l),
(13,800,l)
);
},
{
closed = 1;
nodes = (
(288,660,l),
(428,660,l),
(428,800,l),
(288,800,l)
);
}
);
};
layerId = m002;
shapes = (
{
closed = 1;
nodes = (
(215,800,l),
(215,0,l),
(225,0,l),
(225,800,l)
);
},
{
closed = 1;
nodes = (
(33,790,l),
(215,790,l),
(215,800,l),
(33,800,l)
);
},
{
closed = 1;
nodes = (
(225,790,l),
(408,790,l),
(408,800,l),
(225,800,l)
);
}
);
width = 441;
},
{
anchors = (
{
name = bottom;
pos = (442,0);
},
{
name = center;
pos = (442,400);
},
{
name = top;
pos = (442,800);
}
);
background = {
shapes = (
{
closed = 1;
nodes = (
(143,800,l),
(143,0,l),
(298,0,l),
(298,800,l)
);
},
{
closed = 1;
nodes = (
(13,660,l),
(153,660,l),
(153,800,l),
(13,800,l)
);
},
{
closed = 1;
nodes = (
(288,660,l),
(428,660,l),
(428,800,l),
(288,800,l)
);
}
);
};
layerId = m003;
shapes = (
{
closed = 1;
nodes = (
(434,800,l),
(434,0,l),
(444,0,l),
(444,800,l)
);
},
{
closed = 1;
nodes = (
(66,790,l),
(435,790,l),
(435,800,l),
(66,800,l)
);
},
{
closed = 1;
nodes = (
(444,790,l),
(816,790,l),
(816,800,l),
(444,800,l)
);
}
);
width = 882;
},
{
anchors = (
{
name = bottom;
pos = (436,0);
},
{
name = center;
pos = (436,400);
},
{
name = top;
pos = (436,800);
}
);
layerId = m004;
shapes = (
{
closed = 1;
nodes = (
(280,800,l),
(280,0,l),
(590,0,l),
(590,800,l)
);
},
{
closed = 1;
nodes = (
(20,560,l),
(300,560,l),
(300,800,l),
(20,800,l)
);
},
{
closed = 1;
nodes = (
(570,560,l),
(850,560,l),
(850,800,l),
(570,800,l)
);
}
);
width = 870;
},
{
anchors = (
{
name = bottom;
pos = (294,0);
},
{
name = center;
pos = (294,400);
},
{
name = top;
pos = (294,800);
}
);
layerId = "C42BF1BA-B3BB-492C-A865-1DF6B235F68F";
shapes = (
{
closed = 1;
nodes = (
(233,800,l),
(233,0,l),
(353,0,l),
(353,800,l)
);
},
{
closed = 1;
nodes = (
(-2,700,l),
(243,700,l),
(243,800,l),
(-2,800,l)
);
},
{
closed = 1;
nodes = (
(344,700,l),
(589,700,l),
(589,800,l),
(344,800,l)
);
}
);
width = 586;
}
);
unicode = 84;
},
{
color = 9;
glyphname = U;
kernLeft = H;
kernRight = H;
lastChange = "2024-08-08 18:35:53 +0000";
layers = (
{
anchors = (
{
name = bottom;
pos = (258,0);
},
{
name = ogonek;
pos = (345,0);
},
{
name = top;
pos = (260,800);
},
{
name = topright;
pos = (480,800);
}
);
layerId = m01;
shapes = (
{
closed = 1;
nodes = (
(407,-10,o),
(480,73,o),
(480,242,c),
(325,242,l),
(325,170,o),
(303,135,o),
(259,135,cs),
(216,135,o),
(195,170,o),
(195,242,c),
(40,242,l),
(40,73,o),
(112,-10,o),
(259,-10,cs)
);
},
{
closed = 1;
nodes = (
(195,242,l),
(195,800,l),
(40,800,l),
(40,242,l)
);
},
{
closed = 1;
nodes = (
(480,242,l),
(480,800,l),
(325,800,l),
(325,242,l)
);
}
);
width = 520;
},
{
anchors = (
{
name = bottom;
pos = (299,0);
},
{
name = ogonek;
pos = (339,0);
},
{
name = top;
pos = (302,800);
},
{
name = topright;
pos = (552,800);
}
);
background = {
shapes = (
{
closed = 1;
nodes = (
(447,-10,o),
(520,73,o),
(520,242,c),
(80,242,l),
(80,73,o),
(152,-10,o),
(299,-10,cs)
);
},
{
closed = 1;
nodes = (
(256,135,o),
(235,170,o),
(235,242,c),
(365,242,l),
(365,170,o),
(343,135,o),
(299,135,cs)
);
},
{
closed = 1;
nodes = (
(80,800,l),
(80,242,l),
(235,242,l),
(235,800,l)
);
},
{
closed = 1;
nodes = (
(365,800,l),
(365,242,l),
(520,242,l),
(520,800,l)
);
}
);
};
layerId = m002;
shapes = (
{
closed = 1;
nodes = (
(427,-10,o),
(520,73,o),
(520,242,c),
(510,242,l),
(510,79,o),
(421,0,o),
(299,0,cs),
(179,0,o),
(100,80,o),
(100,242,c),
(90,242,l),
(90,73,o),
(172,-10,o),
(299,-10,cs)
);
},
{
closed = 1;
nodes = (
(100,242,l),
(100,800,l),
(90,800,l),
(90,242,l)
);
},
{
closed = 1;
nodes = (
(520,242,l),
(520,800,l),
(510,800,l),
(510,242,l)
);
}
);
width = 610;
},
{
anchors = (
{
name = bottom;
pos = (598,0);
},
{
name = ogonek;
pos = (659,-2);
},
{
name = top;
pos = (610,800);
},
{
name = topright;
pos = (1100,800);
}
);
background = {
shapes = (
{
closed = 1;
nodes = (
(447,-10,o),
(520,73,o),
(520,242,c),
(80,242,l),
(80,73,o),
(152,-10,o),
(299,-10,cs)
);
},
{
closed = 1;
nodes = (
(256,135,o),
(235,170,o),
(235,242,c),
(365,242,l),
(365,170,o),
(343,135,o),
(299,135,cs)
);
},
{
closed = 1;
nodes = (
(80,800,l),
(80,242,l),
(235,242,l),
(235,800,l)
);
},
{
closed = 1;
nodes = (
(365,800,l),
(365,242,l),
(520,242,l),
(520,800,l)
);
}
);
};
layerId = m003;
shapes = (
{
closed = 1;
nodes = (
(870,-10,o),
(1040,87,o),
(1040,242,c),
(1030,242,l),
(1030,93,o),
(863,0,o),
(598,0,cs),
(347,0,o),
(190,93,o),
(190,242,c),
(180,242,l),
(180,87,o),
(341,-10,o),
(598,-10,cs)
);
},
{
closed = 1;
nodes = (
(190,242,l),
(190,800,l),
(180,800,l),
(180,242,l)
);
},
{
closed = 1;
nodes = (
(1040,242,l),
(1040,800,l),
(1030,800,l),
(1030,242,l)
);
}
);
width = 1220;
},
{
anchors = (
{
name = bottom;
pos = (520,0);
},
{
name = ogonek;
pos = (691,10);
},
{
name = top;
pos = (520,800);
},
{
name = topright;
pos = (963,800);
}
);
layerId = m004;
shapes = (
{
closed = 1;
nodes = (
(802,-10,o),
(960,80,o),
(960,242,c),
(650,342,l),
(650,273,o),
(603,235,o),
(518,235,cs),
(436,235,o),
(390,273,o),
(390,342,c),
(80,242,l),
(80,80,o),
(236,-10,o),
(518,-10,cs)
);
},
{
closed = 1;
nodes = (
(390,342,l),
(390,800,l),
(80,800,l),
(80,242,l)
);
},
{
closed = 1;
nodes = (
(960,242,l),
(960,800,l),
(650,800,l),
(650,342,l)
);
}
);
width = 1040;
},
{
anchors = (
{
name = bottom;
pos = (409,0);
},
{
name = ogonek;
pos = (497,2);
},
{
name = top;
pos = (414,800);
},
{
name = topright;
pos = (765,800);
}
);
layerId = "C42BF1BA-B3BB-492C-A865-1DF6B235F68F";
shapes = (
{
closed = 1;
nodes = (
(613,-14,o),
(741,101,o),
(741,284,c),
(621,284,l),
(621,162,o),
(539,86,o),
(409,86,cs),
(286,86,o),
(208,162,o),
(208,284,c),
(88,284,l),
(88,101,o),
(212,-14,o),
(409,-14,cs)
);
},
{
closed = 1;
nodes = (
(208,284,l),
(208,800,l),
(88,800,l),
(88,284,l)
);
},
{
closed = 1;
nodes = (
(741,284,l),
(741,800,l),
(621,800,l),
(621,284,l)
);
}
);
width = 829;
}
);
metricLeft = N;
metricRight = N;
unicode = 85;
},
{
color = 9;
glyphname = V;
kernLeft = V;
kernRight = V;
lastChange = "2024-08-08 18:36:39 +0000";
layers = (
{
anchors = (
{
name = bottom;
pos = (260,0);
},
{
name = top;
pos = (260,800);
}
);
layerId = m01;
shapes = (
{
closed = 1;
nodes = (
(152,800,l),
(0,800,l),
(170,0,l),
(350,0,l),
(520,800,l),
(368,800,l),
(260,212,l)
);
}
);
width = 520;
},
{
anchors = (
{
name = bottom;
pos = (251,0);
},
{
name = top;
pos = (251,800);
}
);
layerId = m002;
shapes = (
{
closed = 1;
nodes = (
(43,800,l),
(33,800,l),
(246,0,l),
(256,0,l),
(469,800,l),
(459,800,l),
(251,17,l)
);
}
);
width = 502;
},
{
anchors = (
{
name = bottom;
pos = (494,0);
},
{
name = top;
pos = (502,800);
}
);
layerId = m003;
shapes = (
{
closed = 1;
nodes = (
(78,800,l),
(66,800,l),
(492,0,l),
(496,0,l),
(929,800,l),
(918,800,l),
(494,17,l)
);
}
);
width = 1004;
},
{
anchors = (
{
name = bottom;
pos = (520,0);
},
{
name = top;
pos = (520,800);
}
);
layerId = m004;
shapes = (
{
closed = 1;
nodes = (
(324,800,l),
(0,800,l),
(340,0,l),
(700,0,l),
(1040,800,l),
(716,800,l),
(520,312,l)
);
}
);
width = 1040;
},
{
anchors = (
{
name = bottom;
pos = (354,0);
},
{
name = top;
pos = (354,800);
}
);
layerId = "C42BF1BA-B3BB-492C-A865-1DF6B235F68F";
shapes = (
{
closed = 1;
nodes = (
(125,800,l),
(-3,800,l),
(286,0,l),
(422,0,l),
(711,800,l),
(582,800,l),
(354,148,l)
);
}
);
width = 707;
}
);
unicode = 86;
},
{
color = 9;
glyphname = W;
kernLeft = W;
kernRight = W;
lastChange = "2024-08-08 18:38:34 +0000";
layers = (
{
anchors = (
{
name = bottom;
pos = (350,0);
},
{
name = top;
pos = (350,800);
}
);
layerId = m01;
shapes = (
{
closed = 1;
nodes = (
(282,0,l),
(415,800,l),
(285,800,l),
(206,260,l),
(217,260,l),
(150,800,l),
(0,800,l),
(142,0,l)
);
},
{
closed = 1;
nodes = (
(568,0,l),
(700,800,l),
(550,800,l),
(492,260,l),
(503,260,l),
(414,800,l),
(284,800,l),
(428,0,l)
);
}
);
width = 700;
},
{
anchors = (
{
name = bottom;
pos = (384,0);
},
{
name = top;
pos = (384,800);
}
);
layerId = m002;
shapes = (
{
closed = 1;
nodes = (
(200,0,l),
(392,800,l),
(381,800,l),
(193,18,l),
(196,18,l),
(43,800,l),
(33,800,l),
(190,0,l)
);
},
{
closed = 1;
nodes = (
(576,0,l),
(734,800,l),
(724,800,l),
(570,18,l),
(573,18,l),
(392,800,l),
(381,800,l),
(566,0,l)
);
}
);
width = 767;
},
{
anchors = (
{
name = bottom;
pos = (768,0);
},
{
name = top;
pos = (768,800);
}
);
layerId = m003;
shapes = (
{
closed = 1;
nodes = (
(394,0,l),
(778,800,l),
(768,800,l),
(386,6,l),
(388,6,l),
(76,800,l),
(66,800,l),
(380,0,l)
);
},
{
closed = 1;
nodes = (
(1149,0,l),
(1468,800,l),
(1458,800,l),
(1140,4,l),
(1144,4,l),
(778,800,l),
(768,800,l),
(1135,0,l)
);
}
);
width = 1534;
},
{
anchors = (
{
name = bottom;
pos = (700,0);
},
{
name = top;
pos = (700,800);
}
);
layerId = m004;
shapes = (
{
closed = 1;
nodes = (
(564,0,l),
(830,800,l),
(570,800,l),
(412,360,l),
(434,360,l),
(320,800,l),
(0,800,l),
(284,0,l)
);
},
{
closed = 1;
nodes = (
(1136,0,l),
(1400,800,l),
(1080,800,l),
(984,360,l),
(1006,360,l),
(828,800,l),
(568,800,l),
(856,0,l)
);
}
);
width = 1400;
},
{
anchors = (
{
name = bottom;
pos = (529,0);
},
{
name = top;
pos = (529,800);
}
);
layerId = "C42BF1BA-B3BB-492C-A865-1DF6B235F68F";
shapes = (
{
closed = 1;
nodes = (
(340,0,l),
(591,800,l),
(470,800,l),
(276,167,l),
(294,167,l),
(130,800,l),
(3,800,l),
(218,0,l)
);
},
{
closed = 1;
nodes = (
(845,0,l),
(1054,800,l),
(927,800,l),
(776,167,l),
(787,167,l),
(591,800,l),
(469,800,l),
(723,0,l)
);
}
);
width = 1057;
}
);
unicode = 87;
},
{
color = 9;
glyphname = X;
kernLeft = X;
kernRight = X;
lastChange = "2024-08-08 18:39:46 +0000";
layers = (
{
anchors = (
{
name = bottom;
pos = (265,0);
},
{
name = top;
pos = (265,800);
}
);
background = {
shapes = (
{
closed = 1;
nodes = (
(153,800,l),
(1,800,l),
(184,370,l),
(339,370,l),
(521,800,l),
(369,800,l),
(261,542,l)
);
},
{
closed = 1;
nodes = (
(368,0,l),
(520,0,l),
(337,430,l),
(182,430,l),
(0,0,l),
(152,0,l),
(260,258,l)
);
}
);
};
layerId = m01;
shapes = (
{
closed = 1;
nodes = (
(530,0,l),
(163,800,l),
(1,800,l),
(368,0,l)
);
},
{
closed = 1;
nodes = (
(152,0,l),
(293,315,l),
(305,315,l),
(521,800,l),
(369,800,l),
(239,514,l),
(227,514,l),
(0,0,l)
);
}
);
width = 530;
},
{
anchors = (
{
name = bottom;
pos = (259,0);
},
{
name = top;
pos = (259,800);
}
);
background = {
shapes = (
{
closed = 1;
nodes = (
(152,800,l),
(0,800,l),
(183,370,l),
(338,370,l),
(520,800,l),
(368,800,l),
(260,542,l)
);
},
{
closed = 1;
nodes = (
(367,0,l),
(519,0,l),
(336,430,l),
(181,430,l),
(-1,0,l),
(151,0,l),
(259,258,l)
);
}
);
};
layerId = m002;
shapes = (
{
closed = 1;
nodes = (
(482,0,l),
(48,800,l),
(37,800,l),
(471,0,l)
);
},
{
closed = 1;
nodes = (
(46,0,l),
(259,397,l),
(261,397,l),
(474,800,l),
(462,800,l),
(257,410,l),
(255,410,l),
(35,0,l)
);
}
);
width = 517;
},
{
anchors = (
{
name = bottom;
pos = (518,0);
},
{
name = top;
pos = (518,800);
}
);
background = {
shapes = (
{
closed = 1;
nodes = (
(152,800,l),
(0,800,l),
(183,370,l),
(338,370,l),
(520,800,l),
(368,800,l),
(260,542,l)
);
},
{
closed = 1;
nodes = (
(367,0,l),
(519,0,l),
(336,430,l),
(181,430,l),
(-1,0,l),
(151,0,l),
(259,258,l)
);
}
);
};
layerId = m003;
shapes = (
{
closed = 1;
nodes = (
(964,0,l),
(96,800,l),
(81,800,l),
(949,0,l)
);
},
{
closed = 1;
nodes = (
(92,0,l),
(518,404,l),
(522,404,l),
(938,800,l),
(924,800,l),
(514,410,l),
(510,410,l),
(78,0,l)
);
}
);
width = 1034;
},
{
anchors = (
{
name = bottom;
pos = (530,0);
},
{
name = top;
pos = (530,800);
}
);
background = {
shapes = (
{
closed = 1;
nodes = (
(153,800,l),
(1,800,l),
(184,370,l),
(339,370,l),
(521,800,l),
(369,800,l),
(261,542,l)
);
},
{
closed = 1;
nodes = (
(368,0,l),
(520,0,l),
(337,430,l),
(182,430,l),
(0,0,l),
(152,0,l),
(260,258,l)
);
}
);
};
layerId = m004;
shapes = (
{
closed = 1;
nodes = (
(1060,0,l),
(386,800,l),
(2,800,l),
(686,0,l)
);
},
{
closed = 1;
nodes = (
(364,0,l),
(586,315,l),
(610,315,l),
(1042,800,l),
(688,800,l),
(478,514,l),
(454,514,l),
(0,0,l)
);
}
);
width = 1060;
},
{
anchors = (
{
name = bottom;
pos = (361,0);
},
{
name = top;
pos = (361,800);
}
);
layerId = "C42BF1BA-B3BB-492C-A865-1DF6B235F68F";
shapes = (
{
closed = 1;
nodes = (
(725,0,l),
(146,800,l),
(-2,800,l),
(577,0,l)
);
},
{
closed = 1;
nodes = (
(148,0,l),
(386,353,l),
(396,353,l),
(712,800,l),
(563,800,l),
(336,464,l),
(326,464,l),
(-4,0,l)
);
}
);
width = 721;
}
);
unicode = 88;
},
{
color = 9;
glyphname = Y;
kernLeft = V;
kernRight = V;
lastChange = "2024-08-08 18:40:37 +0000";
layers = (
{
anchors = (
{
name = bottom;
pos = (260,0);
},
{
name = top;
pos = (260,800);
},
{
name = topleft;
pos = (20,800);
}
);
layerId = m01;
shapes = (
{
closed = 1;
nodes = (
(152,800,l),
(0,800,l),
(183,310,l),
(338,310,l),
(520,800,l),
(368,800,l),
(260,482,l)
);
},
{
closed = 1;
nodes = (
(183,310,l),
(183,0,l),
(338,0,l),
(338,310,l)
);
}
);
width = 520;
},
{
anchors = (
{
name = bottom;
pos = (242,0);
},
{
name = top;
pos = (242,800);
},
{
name = topleft;
pos = (20,800);
}
);
layerId = m002;
shapes = (
{
closed = 1;
nodes = (
(44,800,l),
(33,800,l),
(237,360,l),
(247,360,l),
(451,800,l),
(440,800,l),
(242,373,l)
);
},
{
closed = 1;
nodes = (
(237,360,l),
(237,0,l),
(247,0,l),
(247,360,l)
);
}
);
width = 484;
},
{
anchors = (
{
name = bottom;
pos = (484,0);
},
{
name = top;
pos = (484,800);
},
{
name = topleft;
pos = (40,800);
}
);
layerId = m003;
shapes = (
{
closed = 1;
nodes = (
(79,800,l),
(66,800,l),
(479,360,l),
(489,360,l),
(902,800,l),
(889,800,l),
(484,369,l)
);
},
{
closed = 1;
nodes = (
(479,360,l),
(479,0,l),
(489,0,l),
(489,360,l)
);
}
);
width = 968;
},
{
anchors = (
{
name = bottom;
pos = (520,0);
},
{
name = top;
pos = (520,800);
},
{
name = topleft;
pos = (40,800);
}
);
layerId = m004;
shapes = (
{
closed = 1;
nodes = (
(334,800,l),
(0,800,l),
(366,310,l),
(676,310,l),
(1040,800,l),
(706,800,l),
(520,532,l)
);
},
{
closed = 1;
nodes = (
(366,310,l),
(366,0,l),
(676,0,l),
(676,310,l)
);
}
);
width = 1040;
},
{
anchors = (
{
name = bottom;
pos = (340,0);
},
{
name = top;
pos = (340,800);
},
{
name = topleft;
pos = (-6,800);
}
);
layerId = "C42BF1BA-B3BB-492C-A865-1DF6B235F68F";
shapes = (
{
closed = 1;
nodes = (
(133,800,l),
(-10,800,l),
(280,336,l),
(400,336,l),
(690,800,l),
(547,800,l),
(340,455,l)
);
},
{
closed = 1;
nodes = (
(280,336,l),
(280,0,l),
(400,0,l),
(400,336,l)
);
}
);
width = 679;
}
);
unicode = 89;
},
{
color = 9;
glyphname = Z;
kernLeft = H;
kernRight = H;
lastChange = "2024-08-08 18:40:57 +0000";
layers = (
{
anchors = (
{
name = bottom;
pos = (220,0);
},
{
name = center;
pos = (220,400);
},
{
name = top;
pos = (220,800);
}
);
layerId = m01;
shapes = (
{
closed = 1;
nodes = (
(415,-1,l),
(415,149,l),
(199,149,l),
(415,675,l),
(415,800,l),
(25,800,l),
(25,650,l),
(237,650,l),
(25,124,l),
(25,-1,l)
);
}
);
width = 440;
},
{
anchors = (
{
name = bottom;
pos = (220,0);
},
{
name = center;
pos = (220,400);
},
{
name = top;
pos = (220,800);
}
);
background = {
shapes = (
{
closed = 1;
nodes = (
(415,-1,l),
(415,149,l),
(199,149,l),
(415,675,l),
(415,800,l),
(25,800,l),
(25,650,l),
(237,650,l),
(25,124,l),
(25,-1,l)
);
}
);
};
layerId = m002;
shapes = (
{
closed = 1;
nodes = (
(405,0,l),
(405,10,l),
(48,10,l),
(405,795,l),
(405,800,l),
(35,800,l),
(35,790,l),
(392,790,l),
(35,5,l),
(35,0,l)
);
}
);
width = 440;
},
{
anchors = (
{
name = bottom;
pos = (440,0);
},
{
name = center;
pos = (440,400);
},
{
name = top;
pos = (440,800);
}
);
background = {
shapes = (
{
closed = 1;
nodes = (
(415,-1,l),
(415,149,l),
(199,149,l),
(415,675,l),
(415,800,l),
(25,800,l),
(25,650,l),
(237,650,l),
(25,124,l),
(25,-1,l)
);
}
);
};
layerId = m003;
shapes = (
{
closed = 1;
nodes = (
(810,0,l),
(810,10,l),
(96,10,l),
(801,795,l),
(801,800,l),
(70,800,l),
(70,790,l),
(784,790,l),
(78,5,l),
(78,0,l)
);
}
);
width = 880;
},
{
anchors = (
{
name = bottom;
pos = (440,0);
},
{
name = center;
pos = (440,400);
},
{
name = top;
pos = (440,800);
}
);
layerId = m004;
shapes = (
{
closed = 1;
nodes = (
(830,-1,l),
(830,244,l),
(471,244,l),
(830,675,l),
(830,800,l),
(50,800,l),
(50,550,l),
(406,550,l),
(50,124,l),
(50,-1,l)
);
}
);
width = 880;
},
{
anchors = (
{
name = bottom;
pos = (301,0);
},
{
name = center;
pos = (301,400);
},
{
name = top;
pos = (301,800);
}
);
layerId = "C42BF1BA-B3BB-492C-A865-1DF6B235F68F";
shapes = (
{
closed = 1;
nodes = (
(586,0,l),
(586,99,l),
(168,99,l),
(586,728,l),
(586,800,l),
(16,800,l),
(16,700,l),
(432,700,l),
(16,74,l),
(16,0,l)
);
}
);
width = 601;
}
);
unicode = 90;
},
{
color = 9;
glyphname = Saltillo;
lastChange = "2024-08-08 19:47:59 +0000";
layers = (
{
layerId = m002;
shapes = (
{
closed = 1;
nodes = (
(99,558,l),
(98,850,l),
(88,850,l),
(89,558,l)
);
}
);
width = 187;
},
{
layerId = m01;
shapes = (
{
closed = 1;
nodes = (
(153,558,l),
(180,850,l),
(77,850,l),
(105,558,l)
);
}
);
width = 257;
},
{
layerId = m003;
shapes = (
{
closed = 1;
nodes = (
(78,508,l),
(76,800,l),
(66,800,l),
(68,508,l)
);
}
);
width = 144;
},
{
layerId = m004;
shapes = (
{
closed = 1;
nodes = (
(301,508,l),
(355,800,l),
(49,800,l),
(105,508,l)
);
}
);
width = 404;
},
{
layerId = "C42BF1BA-B3BB-492C-A865-1DF6B235F68F";
shapes = (
{
closed = 1;
nodes = (
(116,558,l),
(136,800,l),
(8,800,l),
(28,558,l)
);
}
);
width = 144;
}
);
unicode = 42891;
},
{
color = 9;
glyphname = a;
lastChange = "2024-08-08 18:41:48 +0000";
layers = (
{
anchors = (
{
name = bottom;
pos = (235,0);
},
{
name = ogonek;
pos = (423,10);
},
{
name = top;
pos = (252,650);
}
);
background = {
shapes = (
{
closed = 1;
nodes = (
(308,650,l),
(308,212,l),
(308,167,o),
(285,138,o),
(248,138,cs),
(211,138,o),
(188,167,o),
(188,212,cs),
(188,650,l),
(28,650,l),
(28,162,l),
(28,56,o),
(82,-10,o),
(168,-10,cs),
(248,-10,o),
(311,37,o),
(321,109,c),
(314,125,l),
(314,0,l),
(468,0,l),
(468,650,l)
);
}
);
};
layerId = m01;
shapes = (
{
closed = 1;
nodes = (
(237,-10,o),
(276,11,o),
(304,55,c),
(304,0,l),
(429,0,l),
(430,450,ls),
(430,591,o),
(363,660,o),
(227,660,cs),
(91,660,o),
(25,591,o),
(25,450,c),
(155,450,l),
(155,510,o),
(179,535,o),
(227,535,cs),
(263,535,o),
(280,510,o),
(280,450,cs),
(280,391,l),
(102,391,o),
(15,324,o),
(15,187,cs),
(15,55,o),
(71,-10,o),
(185,-10,cs)
);
},
{
closed = 1;
nodes = (
(175,113,o),
(155,137,o),
(155,187,cs),
(155,250,o),
(196,281,o),
(280,281,c),
(279,187,ls),
(278,137,o),
(258,113,o),
(217,113,cs)
);
}
);
width = 470;
},
{
anchors = (
{
name = bottom;
pos = (233,0);
},
{
name = ogonek;
pos = (419,10);
},
{
name = top;
pos = (233,650);
}
);
background = {
shapes = (
{
closed = 1;
nodes = (
(232,-10,o),
(271,11,o),
(299,55,c),
(299,0,l),
(424,0,l),
(425,450,ls),
(425,591,o),
(358,660,o),
(222,660,cs),
(86,660,o),
(20,591,o),
(20,450,c),
(150,450,l),
(150,510,o),
(174,540,o),
(222,540,cs),
(258,540,o),
(275,510,o),
(275,450,cs),
(275,391,l),
(97,391,o),
(10,324,o),
(10,187,cs),
(10,55,o),
(66,-10,o),
(180,-10,cs)
);
},
{
closed = 1;
nodes = (
(170,113,o),
(150,137,o),
(150,187,cs),
(150,250,o),
(191,281,o),
(275,281,c),
(274,187,ls),
(273,137,o),
(253,113,o),
(212,113,cs)
);
}
);
};
layerId = m002;
shapes = (
{
closed = 1;
nodes = (
(285,-10,o),
(346,17,o),
(364,65,c),
(364,0,l),
(374,0,l),
(375,480,ls),
(375,591,o),
(320,660,o),
(222,660,cs),
(132,660,o),
(65,591,o),
(70,480,c),
(80,480,l),
(75,584,o),
(139,650,o),
(222,650,cs),
(314,650,o),
(365,584,o),
(365,480,cs),
(365,346,l),
(175,346,o),
(55,273,o),
(55,157,cs),
(55,54,o),
(113,-10,o),
(206,-10,cs)
);
},
{
closed = 1;
nodes = (
(119,0,o),
(65,61,o),
(65,157,cs),
(65,267,o),
(181,336,o),
(365,336,c),
(364,107,ls),
(364,41,o),
(303,0,o),
(206,0,cs)
);
}
);
width = 465;
},
{
anchors = (
{
name = bottom;
pos = (412,0);
},
{
name = ogonek;
pos = (488,0);
},
{
name = top;
pos = (463,650);
}
);
background = {
shapes = (
{
closed = 1;
nodes = (
(232,-10,o),
(271,11,o),
(299,55,c),
(299,0,l),
(424,0,l),
(425,450,ls),
(425,591,o),
(358,660,o),
(222,660,cs),
(86,660,o),
(20,591,o),
(20,450,c),
(150,450,l),
(150,510,o),
(174,540,o),
(222,540,cs),
(258,540,o),
(275,510,o),
(275,450,cs),
(275,391,l),
(97,391,o),
(10,324,o),
(10,187,cs),
(10,55,o),
(66,-10,o),
(180,-10,cs)
);
},
{
closed = 1;
nodes = (
(170,113,o),
(150,137,o),
(150,187,cs),
(150,250,o),
(191,281,o),
(275,281,c),
(274,187,ls),
(273,137,o),
(253,113,o),
(212,113,cs)
);
}
);
};
layerId = m003;
shapes = (
{
closed = 1;
nodes = (
(599,-10,o),
(715,23,o),
(738,75,c),
(738,0,l),
(748,0,l),
(750,480,ls),
(750,591,o),
(630,660,o),
(438,660,cs),
(245,660,o),
(130,591,o),
(140,480,c),
(150,480,l),
(140,584,o),
(251,650,o),
(438,650,cs),
(624,650,o),
(740,584,o),
(740,480,cs),
(740,346,l),
(253,346,o),
(110,273,o),
(110,157,cs),
(110,54,o),
(237,-10,o),
(438,-10,cs)
);
},
{
closed = 1;
nodes = (
(243,0,o),
(120,61,o),
(120,157,cs),
(120,267,o),
(259,336,o),
(740,336,c),
(738,107,ls),
(738,41,o),
(622,0,o),
(438,0,cs)
);
}
);
width = 930;
},
{
anchors = (
{
name = bottom;
pos = (468,0);
},
{
name = ogonek;
pos = (830,10);
},
{
name = top;
pos = (454,650);
}
);
background = {
shapes = (
{
closed = 1;
nodes = (
(308,650,l),
(308,212,l),
(308,167,o),
(285,138,o),
(248,138,cs),
(211,138,o),
(188,167,o),
(188,212,cs),
(188,650,l),
(28,650,l),
(28,162,l),
(28,56,o),
(82,-10,o),
(168,-10,cs),
(248,-10,o),
(311,37,o),
(321,109,c),
(314,125,l),
(314,0,l),
(468,0,l),
(468,650,l)
);
}
);
};
layerId = m004;
shapes = (
{
closed = 1;
nodes = (
(464,-10,o),
(556,23,o),
(608,75,c),
(608,0,l),
(858,0,l),
(860,450,ls),
(860,579,o),
(703,660,o),
(454,660,cs),
(206,660,o),
(50,579,o),
(50,450,c),
(310,450,l),
(310,478,o),
(366,495,o),
(454,495,cs),
(519,495,o),
(560,478,o),
(560,450,cs),
(560,411,l),
(234,411,o),
(30,325,o),
(30,187,cs),
(30,66,o),
(161,-10,o),
(370,-10,cs)
);
},
{
closed = 1;
nodes = (
(358,153,o),
(310,169,o),
(310,195,cs),
(310,229,o),
(406,251,o),
(560,251,c),
(560,217,ls),
(560,178,o),
(511,153,o),
(434,153,cs)
);
}
);
width = 940;
},
{
anchors = (
{
name = bottom;
pos = (284,0);
},
{
name = ogonek;
pos = (572,7);
},
{
name = top;
pos = (340,650);
}
);
layerId = "C42BF1BA-B3BB-492C-A865-1DF6B235F68F";
shapes = (
{
closed = 1;
nodes = (
(373,-10,o),
(449,19,o),
(486,64,c),
(486,0,l),
(590,0,l),
(592,466,ls),
(592,585,o),
(487,660,o),
(319,660,cs),
(158,660,o),
(59,585,o),
(63,466,c),
(183,466,l),
(180,524,o),
(232,560,o),
(319,560,cs),
(412,560,o),
(471,524,o),
(471,466,cs),
(471,387,l),
(209,397,o),
(44,321,o),
(44,191,cs),
(44,68,o),
(139,-10,o),
(289,-10,cs)
);
},
{
closed = 1;
nodes = (
(212,91,o),
(164,130,o),
(164,193,cs),
(164,267,o),
(282,307,o),
(471,297,c),
(470,182,ls),
(470,126,o),
(400,91,o),
(289,91,cs)
);
}
);
width = 658;
}
);
metricLeft = o;
metricRight = n;
unicode = 97;
},
{
color = 9;
glyphname = ae;
lastChange = "2024-08-08 19:49:21 +0000";
layers = (
{
anchors = (
{
name = bottom;
pos = (233,0);
},
{
name = ogonek;
pos = (393,10);
},
{
name = top;
pos = (382,650);
}
);
layerId = m002;
shapes = (
{
closed = 1;
nodes = (
(637,-10,o),
(722,41,o),
(731,146,c),
(721,146,l),
(713,48,o),
(633,0,o),
(566,0,cs),
(434,0,o),
(375,112,o),
(375,342,cs),
(375,549,o),
(434,650,o),
(556,650,cs),
(676,650,o),
(735,548,o),
(735,341,c),
(373,341,l),
(373,331,l),
(745,331,l),
(745,335,o),
(745,337,o),
(745,341,cs),
(745,555,o),
(683,660,o),
(556,660,cs),
(428,660,o),
(368,556,o),
(368,342,cs),
(368,106,o),
(426,-10,o),
(564,-10,cs)
);
},
{
closed = 1;
nodes = (
(285,-10,o),
(346,17,o),
(364,60,c),
(371,75,l),
(372,480,ls),
(372,591,o),
(320,660,o),
(232,660,cs),
(132,660,o),
(65,591,o),
(70,480,c),
(80,480,l),
(75,584,o),
(139,650,o),
(232,650,cs),
(314,650,o),
(365,584,o),
(365,480,cs),
(365,341,l),
(175,341,o),
(55,268,o),
(55,152,cs),
(55,49,o),
(113,-10,o),
(206,-10,cs)
);
},
{
closed = 1;
nodes = (
(119,0,o),
(65,61,o),
(65,157,cs),
(65,267,o),
(181,331,o),
(365,331,c),
(364,104,ls),
(364,38,o),
(303,0,o),
(206,0,cs)
);
}
);
width = 800;
},
{
anchors = (
{
name = bottom;
pos = (300,0);
},
{
name = ogonek;
pos = (343,10);
},
{
name = top;
pos = (362,650);
}
);
layerId = m01;
shapes = (
{
closed = 1;
nodes = (
(614,-10,o),
(683,58,o),
(701,196,c),
(554,196,l),
(548,148,o),
(528,125,o),
(491,125,cs),
(437,125,o),
(420,196,o),
(420,342,cs),
(420,468,o),
(437,530,o),
(491,530,cs),
(544,530,o),
(565,484,o),
(565,391,c),
(348,391,l),
(348,281,l),
(707,281,l),
(709,302,o),
(710,322,o),
(710,342,cs),
(706,556,o),
(634,660,o),
(491,660,cs),
(336,660,o),
(320,556,o),
(320,342,cs),
(320,106,o),
(336,-10,o),
(491,-10,cs)
);
},
{
closed = 1;
nodes = (
(237,-10,o),
(276,11,o),
(304,55,c),
(379,170,l),
(380,450,ls),
(381,591,o),
(363,660,o),
(227,660,cs),
(91,660,o),
(25,591,o),
(25,450,c),
(155,450,l),
(155,510,o),
(179,535,o),
(227,535,cs),
(263,535,o),
(280,510,o),
(280,450,cs),
(280,391,l),
(102,391,o),
(15,324,o),
(15,187,cs),
(15,55,o),
(71,-10,o),
(185,-10,cs)
);
},
{
closed = 1;
nodes = (
(175,113,o),
(155,137,o),
(155,187,cs),
(155,250,o),
(196,281,o),
(280,281,c),
(279,187,ls),
(278,137,o),
(258,113,o),
(217,113,cs)
);
}
);
width = 725;
},
{
anchors = (
{
name = bottom;
pos = (466,0);
},
{
name = ogonek;
pos = (786,10);
},
{
name = top;
pos = (764,650);
}
);
layerId = m003;
shapes = (
{
closed = 1;
nodes = (
(1311,-10,o),
(1440,50,o),
(1456,146,c),
(1446,146,l),
(1431,56,o),
(1308,0,o),
(1126,0,cs),
(888,0,o),
(739,132,o),
(739,342,cs),
(739,531,o),
(881,650,o),
(1106,650,cs),
(1332,650,o),
(1474,531,o),
(1474,341,c),
(735,341,l),
(735,331,l),
(1484,331,l),
(1484,335,o),
(1484,337,o),
(1484,341,cs),
(1484,537,o),
(1338,660,o),
(1106,660,cs),
(875,660,o),
(730,537,o),
(730,342,cs),
(730,126,o),
(881,-10,o),
(1122,-10,cs)
);
},
{
closed = 1;
nodes = (
(576,-10,o),
(698,21,o),
(728,71,c),
(738,86,l),
(740,480,ls),
(741,591,o),
(635,660,o),
(464,660,cs),
(255,660,o),
(130,591,o),
(140,480,c),
(150,480,l),
(140,584,o),
(261,650,o),
(464,650,cs),
(627,650,o),
(730,584,o),
(730,480,cs),
(730,341,l),
(249,341,o),
(110,269,o),
(110,155,cs),
(110,54,o),
(226,-10,o),
(412,-10,cs)
);
},
{
closed = 1;
nodes = (
(233,0,o),
(120,60,o),
(120,155,cs),
(120,263,o),
(255,331,o),
(730,331,c),
(728,104,ls),
(728,40,o),
(606,0,o),
(412,0,cs)
);
}
);
width = 1594;
},
{
anchors = (
{
name = bottom;
pos = (600,0);
},
{
name = ogonek;
pos = (686,10);
},
{
name = top;
pos = (724,650);
}
);
layerId = m004;
shapes = (
{
closed = 1;
nodes = (
(1196,-10,o),
(1354,81,o),
(1392,226,c),
(1108,226,l),
(1099,189,o),
(1050,165,o),
(982,165,cs),
(895,165,o),
(840,233,o),
(840,342,cs),
(840,433,o),
(895,490,o),
(982,490,cs),
(1073,490,o),
(1130,452,o),
(1130,391,c),
(696,391,l),
(696,281,l),
(1404,281,l),
(1408,298,o),
(1410,321,o),
(1410,342,cs),
(1402,537,o),
(1237,660,o),
(982,660,cs),
(772,660,o),
(640,537,o),
(640,342,cs),
(640,126,o),
(772,-10,o),
(982,-10,cs)
);
},
{
closed = 1;
nodes = (
(466,-10,o),
(558,15,o),
(608,35,c),
(758,100,l),
(760,450,ls),
(761,579,o),
(644,660,o),
(454,660,cs),
(206,660,o),
(50,571,o),
(50,430,c),
(310,430,l),
(310,470,o),
(366,495,o),
(454,495,cs),
(519,495,o),
(560,478,o),
(560,450,cs),
(560,391,l),
(234,391,o),
(30,312,o),
(30,187,cs),
(30,66,o),
(161,-10,o),
(370,-10,cs)
);
},
{
closed = 1;
nodes = (
(358,153,o),
(310,174,o),
(310,207,cs),
(310,252,o),
(406,281,o),
(560,281,c),
(558,187,ls),
(557,166,o),
(509,153,o),
(434,153,cs)
);
}
);
width = 1440;
},
{
anchors = (
{
name = bottom;
pos = (387,0);
},
{
name = ogonek;
pos = (544,10);
},
{
name = top;
pos = (549,650);
}
);
background = {
shapes = (
{
closed = 1;
nodes = (
(373,-10,o),
(449,19,o),
(486,64,c),
(486,0,l),
(590,0,l),
(592,466,ls),
(592,585,o),
(487,660,o),
(319,660,cs),
(158,660,o),
(59,585,o),
(63,466,c),
(183,466,l),
(180,524,o),
(232,560,o),
(319,560,cs),
(412,560,o),
(471,524,o),
(471,466,cs),
(471,387,l),
(209,397,o),
(44,321,o),
(44,191,cs),
(44,68,o),
(139,-10,o),
(289,-10,cs)
);
},
{
closed = 1;
nodes = (
(212,91,o),
(164,130,o),
(164,193,cs),
(164,267,o),
(282,307,o),
(471,297,c),
(470,182,ls),
(470,126,o),
(400,91,o),
(289,91,cs)
);
},
{
closed = 1;
nodes = (
(934,-10,o),
(1040,62,o),
(1063,176,c),
(948,176,l),
(936,123,o),
(875,90,o),
(789,90,cs),
(664,90,o),
(585,187,o),
(585,342,cs),
(585,476,o),
(661,560,o),
(781,560,cs),
(895,560,o),
(967,491,o),
(967,380,c),
(532,380,l),
(532,290,l),
(1078,290,l),
(1080,296,o),
(1081,316,o),
(1081,341,cs),
(1078,537,o),
(962,660,o),
(781,660,cs),
(592,660,o),
(473,537,o),
(473,342,cs),
(473,126,o),
(595,-10,o),
(789,-10,cs)
);
}
);
};
layerId = "C42BF1BA-B3BB-492C-A865-1DF6B235F68F";
shapes = (
{
closed = 1;
nodes = (
(945,-10,o),
(1045,56,o),
(1065,175,c),
(948,176,l),
(940,121,o),
(883,90,o),
(789,90,cs),
(658,90,o),
(585,180,o),
(585,342,cs),
(585,482,o),
(655,560,o),
(781,560,cs),
(903,560,o),
(971,496,o),
(971,380,c),
(532,380,l),
(532,291,l),
(1080,291,l),
(1082,302,o),
(1083,319,o),
(1083,341,cs),
(1080,546,o),
(971,660,o),
(778,660,cs),
(598,660,o),
(498,546,o),
(498,342,cs),
(498,116,o),
(600,-10,o),
(784,-10,cs)
);
},
{
closed = 1;
nodes = (
(407,-10,o),
(507,25,o),
(548,80,cs),
(584,129,l),
(586,466,ls),
(587,585,o),
(490,660,o),
(334,660,cs),
(164,660,o),
(59,585,o),
(63,466,c),
(183,466,l),
(181,524,o),
(239,560,o),
(334,560,cs),
(417,560,o),
(469,524,o),
(470,466,c),
(471,387,l),
(209,387,o),
(44,315,o),
(44,200,cs),
(44,71,o),
(138,-10,o),
(288,-10,cs)
);
},
{
closed = 1;
nodes = (
(215,91,o),
(164,130,o),
(164,200,cs),
(164,262,o),
(274,297,o),
(471,297,c),
(470,192,ls),
(470,127,o),
(412,91,o),
(307,91,cs)
);
}
);
width = 1127;
}
);
metricLeft = a;
metricRight = e;
unicode = 230;
},
{
color = 9;
glyphname = b;
lastChange = "2024-08-08 18:42:48 +0000";
layers = (
{
anchors = (
{
name = bottom;
pos = (255,0);
},
{
name = center;
pos = (128,680);
},
{
name = top;
pos = (255,650);
}
);
layerId = m01;
shapes = (
{
closed = 1;
nodes = (
(40,850,l),
(40,0,l),
(190,0,l),
(190,850,l)
);
},
{
closed = 1;
nodes = (
(437,-10,o),
(495,106,o),
(495,342,cs),
(495,556,o),
(437,660,o),
(319,660,cs),
(192,660,o),
(135,556,o),
(135,342,cs),
(135,106,o),
(192,-10,o),
(319,-10,cs)
);
},
{
closed = 1;
nodes = (
(230,115,o),
(200,190,o),
(200,342,cs),
(200,465,o),
(230,525,o),
(270,525,cs),
(310,525,o),
(340,465,o),
(340,342,cs),
(340,190,o),
(310,115,o),
(270,115,cs)
);
}
);
width = 510;
},
{
anchors = (
{
name = bottom;
pos = (270,0);
},
{
name = center;
pos = (135,680);
},
{
name = top;
pos = (270,650);
}
);
background = {
shapes = (
{
closed = 1;
nodes = (
(80,850,l),
(80,0,l),
(230,0,l),
(230,850,l)
);
},
{
closed = 1;
nodes = (
(477,-10,o),
(535,106,o),
(535,342,cs),
(535,556,o),
(477,660,o),
(359,660,cs),
(232,660,o),
(175,556,o),
(175,342,cs),
(175,106,o),
(232,-10,o),
(359,-10,cs)
);
},
{
closed = 1;
nodes = (
(270,115,o),
(240,190,o),
(240,342,cs),
(240,465,o),
(270,525,o),
(310,525,cs),
(350,525,o),
(380,465,o),
(380,342,cs),
(380,190,o),
(350,115,o),
(310,115,cs)
);
}
);
};
layerId = m002;
shapes = (
{
closed = 1;
nodes = (
(90,850,l),
(90,0,l),
(100,0,l),
(100,850,l)
);
},
{
closed = 1;
nodes = (
(426,-10,o),
(485,106,o),
(485,342,cs),
(485,556,o),
(426,660,o),
(305,660,cs),
(161,660,o),
(90,556,o),
(90,342,cs),
(90,106,o),
(161,-10,o),
(305,-10,cs)
);
},
{
closed = 1;
nodes = (
(167,0,o),
(100,112,o),
(100,342,cs),
(100,549,o),
(167,650,o),
(305,650,cs),
(419,650,o),
(475,549,o),
(475,342,cs),
(475,112,o),
(419,0,o),
(305,0,cs)
);
}
);
width = 540;
},
{
anchors = (
{
name = bottom;
pos = (540,0);
},
{
name = center;
pos = (270,680);
},
{
name = top;
pos = (540,650);
}
);
background = {
shapes = (
{
closed = 1;
nodes = (
(80,850,l),
(80,0,l),
(230,0,l),
(230,850,l)
);
},
{
closed = 1;
nodes = (
(477,-10,o),
(535,106,o),
(535,342,cs),
(535,556,o),
(477,660,o),
(359,660,cs),
(232,660,o),
(175,556,o),
(175,342,cs),
(175,106,o),
(232,-10,o),
(359,-10,cs)
);
},
{
closed = 1;
nodes = (
(270,115,o),
(240,190,o),
(240,342,cs),
(240,465,o),
(270,525,o),
(310,525,cs),
(350,525,o),
(380,465,o),
(380,342,cs),
(380,190,o),
(350,115,o),
(310,115,cs)
);
}
);
};
layerId = m003;
shapes = (
{
closed = 1;
nodes = (
(180,850,l),
(180,0,l),
(190,0,l),
(190,850,l)
);
},
{
closed = 1;
nodes = (
(808,-10,o),
(970,126,o),
(970,342,cs),
(970,537,o),
(808,660,o),
(550,660,cs),
(323,660,o),
(180,537,o),
(180,342,cs),
(180,126,o),
(323,-10,o),
(550,-10,cs)
);
},
{
closed = 1;
nodes = (
(329,0,o),
(190,132,o),
(190,342,cs),
(190,531,o),
(329,650,o),
(550,650,cs),
(802,650,o),
(960,531,o),
(960,342,cs),
(960,132,o),
(802,0,o),
(550,0,cs)
);
}
);
width = 1080;
},
{
anchors = (
{
name = bottom;
pos = (510,0);
},
{
name = center;
pos = (256,680);
},
{
name = top;
pos = (510,650);
}
);
layerId = m004;
shapes = (
{
closed = 1;
nodes = (
(80,850,l),
(80,0,l),
(380,0,l),
(380,850,l)
);
},
{
closed = 1;
nodes = (
(854,-10,o),
(990,126,o),
(990,342,cs),
(990,537,o),
(854,660,o),
(638,660,cs),
(418,660,o),
(280,537,o),
(280,342,cs),
(280,126,o),
(418,-10,o),
(638,-10,cs)
);
},
{
closed = 1;
nodes = (
(454,215,o),
(400,260,o),
(400,332,cs),
(400,395,o),
(454,434,o),
(540,434,cs),
(626,434,o),
(680,395,o),
(680,332,cs),
(680,260,o),
(626,215,o),
(540,215,cs)
);
}
);
width = 1020;
},
{
anchors = (
{
name = bottom;
pos = (361,0);
},
{
name = center;
pos = (165,680);
},
{
name = top;
pos = (361,650);
}
);
layerId = "C42BF1BA-B3BB-492C-A865-1DF6B235F68F";
shapes = (
{
closed = 1;
nodes = (
(66,850,l),
(66,0,l),
(186,0,l),
(186,850,l)
);
},
{
closed = 1;
nodes = (
(584,-10,o),
(702,126,o),
(702,342,cs),
(702,537,o),
(584,660,o),
(397,660,cs),
(218,660,o),
(106,537,o),
(106,342,cs),
(106,126,o),
(218,-10,o),
(397,-10,cs)
);
},
{
closed = 1;
nodes = (
(267,90,o),
(186,186,o),
(186,340,cs),
(186,475,o),
(267,560,o),
(397,560,cs),
(511,560,o),
(582,475,o),
(582,340,cs),
(582,186,o),
(511,90,o),
(397,90,cs)
);
}
);
width = 746;
}
);
metricLeft = n;
metricRight = o;
unicode = 98;
},
{
color = 9;
glyphname = c;
lastChange = "2024-08-08 18:42:55 +0000";
layers = (
{
anchors = (
{
name = bottom;
pos = (230,0);
},
{
name = top;
pos = (230,650);
}
);
layerId = m01;
shapes = (
{
closed = 1;
nodes = (
(445,410,l),
(445,578,o),
(377,660,o),
(237,660,cs),
(88,660,o),
(15,556,o),
(15,344,cs),
(15,106,o),
(88,-10,o),
(237,-10,cs),
(375,-10,o),
(442,66,o),
(442,220,c),
(289,220,l),
(289,156,o),
(272,125,o),
(237,125,cs),
(195,125,o),
(175,196,o),
(175,342,cs),
(175,465,o),
(195,525,o),
(237,525,cs),
(276,525,o),
(295,487,o),
(295,410,c)
);
}
);
width = 460;
},
{
anchors = (
{
name = bottom;
pos = (239,0);
},
{
name = top;
pos = (239,650);
}
);
background = {
shapes = (
{
closed = 1;
nodes = (
(530,410,l),
(530,578,o),
(462,660,o),
(322,660,cs),
(173,660,o),
(100,556,o),
(100,344,cs),
(100,106,o),
(173,-10,o),
(322,-10,cs),
(460,-10,o),
(527,66,o),
(527,220,c),
(374,220,l),
(374,156,o),
(357,125,o),
(322,125,cs),
(280,125,o),
(260,196,o),
(260,342,cs),
(260,465,o),
(280,525,o),
(322,525,cs),
(361,525,o),
(380,487,o),
(380,410,c)
);
}
);
};
layerId = m002;
shapes = (
{
closed = 1;
nodes = (
(423,460,l),
(415,594,o),
(345,660,o),
(247,660,cs),
(118,660,o),
(55,556,o),
(55,344,cs),
(55,106,o),
(118,-10,o),
(247,-10,cs),
(333,-10,o),
(411,49,o),
(419,170,c),
(409,170,l),
(401,56,o),
(326,0,o),
(247,0,cs),
(125,0,o),
(65,112,o),
(65,342,cs),
(65,549,o),
(125,650,o),
(247,650,cs),
(339,650,o),
(405,588,o),
(413,460,c)
);
}
);
width = 478;
},
{
anchors = (
{
name = bottom;
pos = (478,0);
},
{
name = top;
pos = (478,650);
}
);
background = {
shapes = (
{
closed = 1;
nodes = (
(530,410,l),
(530,578,o),
(462,660,o),
(322,660,cs),
(173,660,o),
(100,556,o),
(100,344,cs),
(100,106,o),
(173,-10,o),
(322,-10,cs),
(460,-10,o),
(527,66,o),
(527,220,c),
(374,220,l),
(374,156,o),
(357,125,o),
(322,125,cs),
(280,125,o),
(260,196,o),
(260,342,cs),
(260,465,o),
(280,525,o),
(322,525,cs),
(361,525,o),
(380,487,o),
(380,410,c)
);
}
);
};
layerId = m003;
shapes = (
{
closed = 1;
nodes = (
(846,460,l),
(831,583,o),
(695,660,o),
(494,660,cs),
(258,660,o),
(110,538,o),
(110,344,cs),
(110,127,o),
(258,-10,o),
(494,-10,cs),
(690,-10,o),
(823,59,o),
(838,170,c),
(828,170,l),
(813,66,o),
(684,0,o),
(494,0,cs),
(264,0,o),
(120,132,o),
(120,342,cs),
(120,531,o),
(264,650,o),
(494,650,cs),
(689,650,o),
(821,577,o),
(836,460,c)
);
}
);
width = 956;
},
{
anchors = (
{
name = bottom;
pos = (474,0);
},
{
name = top;
pos = (474,650);
}
);
layerId = m004;
shapes = (
{
closed = 1;
nodes = (
(890,360,l),
(890,544,o),
(730,660,o),
(474,660,cs),
(201,660,o),
(30,538,o),
(30,344,cs),
(30,127,o),
(201,-10,o),
(474,-10,cs),
(730,-10,o),
(890,98,o),
(890,270,c),
(590,270,l),
(590,242,o),
(545,225,o),
(474,225,cs),
(398,225,o),
(350,266,o),
(350,331,cs),
(350,389,o),
(398,425,o),
(474,425,cs),
(545,425,o),
(590,400,o),
(590,360,c)
);
}
);
width = 920;
},
{
anchors = (
{
name = bottom;
pos = (353,0);
},
{
name = top;
pos = (353,650);
}
);
layerId = "C42BF1BA-B3BB-492C-A865-1DF6B235F68F";
shapes = (
{
closed = 1;
nodes = (
(640,424,l),
(634,569,o),
(524,660,o),
(353,660,cs),
(163,660,o),
(44,538,o),
(44,344,cs),
(44,127,o),
(163,-10,o),
(353,-10,cs),
(521,-10,o),
(630,73,o),
(636,206,c),
(516,206,l),
(511,135,o),
(448,90,o),
(353,90,cs),
(237,90,o),
(164,186,o),
(164,339,cs),
(164,475,o),
(237,560,o),
(353,560,cs),
(450,560,o),
(515,508,o),
(520,424,c)
);
}
);
width = 684;
}
);
metricLeft = o;
metricRight = o;
unicode = 99;
},
{
color = 9;
glyphname = d;
lastChange = "2024-08-08 18:43:03 +0000";
layers = (
{
anchors = (
{
name = bottom;
pos = (255,0);
},
{
name = center;
pos = (383,680);
},
{
name = top;
pos = (255,650);
},
{
name = topright;
pos = (450,850);
}
);
layerId = m01;
shapes = (
{
closed = 1;
nodes = (
(320,0,l),
(470,0,l),
(470,850,l),
(320,850,l)
);
},
{
closed = 1;
nodes = (
(318,-10,o),
(375,106,o),
(375,342,cs),
(375,556,o),
(318,660,o),
(191,660,cs),
(73,660,o),
(15,556,o),
(15,342,cs),
(15,106,o),
(73,-10,o),
(191,-10,cs)
);
},
{
closed = 1;
nodes = (
(200,125,o),
(170,196,o),
(170,342,cs),
(170,465,o),
(200,525,o),
(240,525,cs),
(280,525,o),
(310,465,o),
(310,342,cs),
(310,196,o),
(280,125,o),
(240,125,cs)
);
}
);
width = 510;
},
{
anchors = (
{
name = bottom;
pos = (270,0);
},
{
name = center;
pos = (405,680);
},
{
name = top;
pos = (270,650);
},
{
name = topright;
pos = (460,850);
}
);
layerId = m002;
shapes = (
{
closed = 1;
nodes = (
(440,0,l),
(450,0,l),
(450,850,l),
(440,850,l)
);
},
{
closed = 1;
nodes = (
(379,-10,o),
(450,106,o),
(450,342,cs),
(450,556,o),
(379,660,o),
(235,660,cs),
(114,660,o),
(55,556,o),
(55,342,cs),
(55,106,o),
(114,-10,o),
(235,-10,cs)
);
},
{
closed = 1;
nodes = (
(121,0,o),
(65,112,o),
(65,342,cs),
(65,549,o),
(121,650,o),
(235,650,cs),
(373,650,o),
(440,549,o),
(440,342,cs),
(440,112,o),
(373,0,o),
(235,0,cs)
);
}
);
width = 540;
},
{
anchors = (
{
name = bottom;
pos = (540,0);
},
{
name = center;
pos = (810,680);
},
{
name = top;
pos = (540,650);
},
{
name = topright;
pos = (920,850);
}
);
layerId = m003;
shapes = (
{
closed = 1;
nodes = (
(890,0,l),
(900,0,l),
(900,850,l),
(890,850,l)
);
},
{
closed = 1;
nodes = (
(753,-10,o),
(900,126,o),
(900,342,cs),
(900,537,o),
(753,660,o),
(520,660,cs),
(268,660,o),
(110,537,o),
(110,342,cs),
(110,126,o),
(268,-10,o),
(520,-10,cs)
);
},
{
closed = 1;
nodes = (
(274,0,o),
(120,132,o),
(120,342,cs),
(120,531,o),
(274,650,o),
(520,650,cs),
(747,650,o),
(890,531,o),
(890,342,cs),
(890,132,o),
(747,0,o),
(520,0,cs)
);
}
);
width = 1080;
},
{
anchors = (
{
name = bottom;
pos = (382,-10);
},
{
name = center;
pos = (794,680);
},
{
name = top;
pos = (382,660);
},
{
name = topright;
pos = (765,850);
}
);
layerId = m004;
shapes = (
{
closed = 1;
nodes = (
(640,0,l),
(940,0,l),
(940,850,l),
(640,850,l)
);
},
{
closed = 1;
nodes = (
(602,-10,o),
(740,126,o),
(740,342,cs),
(740,537,o),
(602,660,o),
(382,660,cs),
(166,660,o),
(30,537,o),
(30,342,cs),
(30,126,o),
(166,-10,o),
(382,-10,cs)
);
},
{
closed = 1;
nodes = (
(394,225,o),
(340,266,o),
(340,332,cs),
(340,389,o),
(394,425,o),
(480,425,cs),
(566,425,o),
(620,389,o),
(620,332,cs),
(620,266,o),
(566,225,o),
(480,225,cs)
);
}
);
width = 1020;
},
{
anchors = (
{
name = bottom;
pos = (354,-2);
},
{
name = center;
pos = (588,680);
},
{
name = top;
pos = (354,652);
},
{
name = topright;
pos = (641,850);
}
);
layerId = "C42BF1BA-B3BB-492C-A865-1DF6B235F68F";
shapes = (
{
closed = 1;
nodes = (
(560,0,l),
(680,0,l),
(680,850,l),
(560,850,l)
);
},
{
closed = 1;
nodes = (
(505,-10,o),
(609,126,o),
(609,342,cs),
(609,537,o),
(505,660,o),
(339,660,cs),
(158,660,o),
(44,537,o),
(44,342,cs),
(44,126,o),
(158,-10,o),
(339,-10,cs)
);
},
{
closed = 1;
nodes = (
(231,83,o),
(163,182,o),
(163,340,cs),
(163,479,o),
(231,567,o),
(339,567,cs),
(475,567,o),
(560,479,o),
(560,340,cs),
(560,182,o),
(475,83,o),
(339,83,cs)
);
}
);
width = 746;
}
);
metricLeft = o;
metricRight = n;
unicode = 100;
},
{
color = 9;
glyphname = eth;
lastChange = "2024-08-05 10:19:43 +0000";
layers = (
{
anchors = (
{
name = bottom;
pos = (334,0);
},
{
name = top;
pos = (334,850);
}
);
layerId = m002;
shapes = (
{
closed = 1;
nodes = (
(418,475,o),
(354,513,o),
(262,513,c),
(123,513,o),
(55,436,o),
(55,280,cs),
(55,85,o),
(123,-10,o),
(262,-10,cs),
(400,-10,o),
(467,85,o),
(467,280,c),
(457,280,l),
(457,92,o),
(393,0,o),
(262,0,cs),
(130,0,o),
(65,92,o),
(65,280,cs),
(65,429,o),
(130,502,o),
(262,502,cs),
(357,502,o),
(421,461,o),
(456,377,c),
(456,396,l)
);
},
{
closed = 1;
nodes = (
(467,600,o),
(360,776,o),
(141,817,c),
(138,808,l),
(350,769,o),
(455,595,o),
(457,280,c),
(509,280,o),
(415,280,o),
(467,280,cs)
);
},
{
angle = 30;
pos = (415,277);
ref = hyphen;
}
);
width = 557;
},
{
anchors = (
{
name = bottom;
pos = (276,0);
},
{
name = top;
pos = (276,850);
}
);
layerId = m01;
shapes = (
{
closed = 1;
nodes = (
(307,518,o),
(275,533,o),
(242,533,c),
(90,533,o),
(15,450,o),
(15,280,cs),
(15,85,o),
(83,-10,o),
(222,-10,cs),
(359,-10,o),
(427,85,o),
(427,280,c),
(278,280,l),
(278,159,o),
(273,100,o),
(222,100,cs),
(170,100,o),
(164,159,o),
(164,280,cs),
(164,376,o),
(176,423,o),
(242,423,cs),
(281,423,o),
(313,409,o),
(340,381,c),
(338,487,l)
);
},
{
closed = 1;
nodes = (
(427,600,o),
(320,776,o),
(101,817,c),
(83,711,l),
(225,677,o),
(276,535,o),
(278,280,c),
(330,280,o),
(375,280,o),
(427,280,cs)
);
},
{
angle = 30;
pos = (209,458);
ref = hyphen;
scale = (1,0.3813);
}
);
width = 467;
},
{
anchors = (
{
name = bottom;
pos = (334,0);
},
{
name = top;
pos = (334,850);
}
);
layerId = m003;
shapes = (
{
closed = 1;
nodes = (
(418,475,o),
(354,513,o),
(262,513,c),
(123,513,o),
(55,436,o),
(55,280,cs),
(55,85,o),
(123,-10,o),
(262,-10,cs),
(400,-10,o),
(467,85,o),
(467,280,c),
(457,280,l),
(457,92,o),
(393,0,o),
(262,0,cs),
(130,0,o),
(65,92,o),
(65,280,cs),
(65,429,o),
(130,502,o),
(262,502,cs),
(357,502,o),
(421,461,o),
(456,377,c),
(456,396,l)
);
},
{
closed = 1;
nodes = (
(467,600,o),
(360,776,o),
(141,817,c),
(138,808,l),
(350,769,o),
(455,595,o),
(457,280,c),
(509,280,o),
(415,280,o),
(467,280,cs)
);
},
{
angle = 30;
pos = (415,277);
ref = hyphen;
}
);
width = 557;
},
{
anchors = (
{
name = bottom;
pos = (276,0);
},
{
name = top;
pos = (276,850);
}
);
layerId = m004;
shapes = (
{
closed = 1;
nodes = (
(307,518,o),
(275,533,o),
(242,533,c),
(90,533,o),
(15,450,o),
(15,280,cs),
(15,85,o),
(83,-10,o),
(222,-10,cs),
(359,-10,o),
(427,85,o),
(427,280,c),
(278,280,l),
(278,159,o),
(273,100,o),
(222,100,cs),
(170,100,o),
(164,159,o),
(164,280,cs),
(164,376,o),
(176,423,o),
(242,423,cs),
(281,423,o),
(313,409,o),
(340,381,c),
(338,487,l)
);
},
{
closed = 1;
nodes = (
(427,600,o),
(320,776,o),
(101,817,c),
(83,711,l),
(225,677,o),
(276,535,o),
(278,280,c),
(330,280,o),
(375,280,o),
(427,280,cs)
);
},
{
angle = 30;
pos = (209,458);
ref = hyphen;
scale = (1,0.3813);
}
);
width = 467;
},
{
anchors = (
{
name = bottom;
pos = (306,0);
},
{
name = top;
pos = (306,850);
}
);
layerId = "C42BF1BA-B3BB-492C-A865-1DF6B235F68F";
shapes = (
{
closed = 1;
nodes = (
(365,495,o),
(316,523,o),
(253,523,c),
(107,523,o),
(36,443,o),
(36,280,cs),
(36,85,o),
(104,-10,o),
(243,-10,cs),
(381,-10,o),
(448,85,o),
(448,280,c),
(372,280,l),
(372,124,o),
(336,48,o),
(243,48,cs),
(149,48,o),
(112,124,o),
(112,280,cs),
(112,404,o),
(152,464,o),
(253,464,cs),
(321,464,o),
(370,436,o),
(401,379,c),
(400,439,l)
);
},
{
closed = 1;
nodes = (
(448,600,o),
(341,776,o),
(122,817,c),
(112,762,l),
(291,725,o),
(370,567,o),
(372,280,c),
(424,280,o),
(396,280,o),
(448,280,cs)
);
},
{
alignment = -1;
angle = 30;
pos = (317,363);
ref = hyphen;
scale = (1,0.7061);
}
);
width = 514;
}
);
metricLeft = o;
metricRight = n;
unicode = 240;
},
{
color = 9;
glyphname = e;
lastChange = "2024-08-08 18:42:16 +0000";
layers = (
{
anchors = (
{
name = bottom;
pos = (235,0);
},
{
name = ogonek;
pos = (353,0);
},
{
name = top;
pos = (235,650);
}
);
layerId = m01;
shapes = (
{
closed = 1;
nodes = (
(359,-10,o),
(428,58,o),
(446,196,c),
(299,196,l),
(293,148,o),
(273,125,o),
(236,125,cs),
(182,125,o),
(165,196,o),
(165,342,cs),
(165,468,o),
(182,530,o),
(236,530,cs),
(289,530,o),
(310,484,o),
(310,391,c),
(93,391,l),
(93,281,l),
(452,281,l),
(454,302,o),
(455,322,o),
(455,342,cs),
(451,556,o),
(379,660,o),
(236,660,cs),
(81,660,o),
(15,556,o),
(15,342,cs),
(15,106,o),
(81,-10,o),
(236,-10,cs)
);
}
);
width = 470;
},
{
anchors = (
{
name = bottom;
pos = (245,0);
},
{
name = ogonek;
pos = (441,10);
},
{
name = top;
pos = (245,650);
}
);
background = {
shapes = (
{
closed = 1;
nodes = (
(444,-10,o),
(513,58,o),
(531,196,c),
(384,196,l),
(378,148,o),
(358,125,o),
(321,125,cs),
(267,125,o),
(250,196,o),
(250,342,cs),
(250,468,o),
(267,530,o),
(321,530,cs),
(374,530,o),
(395,484,o),
(395,391,c),
(178,391,l),
(178,281,l),
(537,281,l),
(539,302,o),
(540,322,o),
(540,342,cs),
(536,556,o),
(464,660,o),
(321,660,cs),
(166,660,o),
(100,556,o),
(100,342,cs),
(100,106,o),
(166,-10,o),
(321,-10,cs)
);
}
);
};
layerId = m002;
shapes = (
{
closed = 1;
nodes = (
(329,-10,o),
(412,41,o),
(421,146,c),
(411,146,l),
(403,48,o),
(323,0,o),
(256,0,cs),
(124,0,o),
(65,112,o),
(65,342,cs),
(65,549,o),
(124,650,o),
(246,650,cs),
(366,650,o),
(425,548,o),
(425,341,c),
(63,341,l),
(63,331,l),
(435,331,l),
(435,335,o),
(435,337,o),
(435,341,cs),
(435,555,o),
(373,660,o),
(246,660,cs),
(118,660,o),
(55,556,o),
(55,342,cs),
(55,106,o),
(118,-10,o),
(256,-10,cs)
);
}
);
width = 490;
},
{
anchors = (
{
name = bottom;
pos = (490,0);
},
{
name = ogonek;
pos = (882,10);
},
{
name = top;
pos = (490,650);
}
);
background = {
shapes = (
{
closed = 1;
nodes = (
(444,-10,o),
(513,58,o),
(531,196,c),
(384,196,l),
(378,148,o),
(358,125,o),
(321,125,cs),
(267,125,o),
(250,196,o),
(250,342,cs),
(250,468,o),
(267,530,o),
(321,530,cs),
(374,530,o),
(395,484,o),
(395,391,c),
(178,391,l),
(178,281,l),
(537,281,l),
(539,302,o),
(540,322,o),
(540,342,cs),
(536,556,o),
(464,660,o),
(321,660,cs),
(166,660,o),
(100,556,o),
(100,342,cs),
(100,106,o),
(166,-10,o),
(321,-10,cs)
);
}
);
};
layerId = m003;
shapes = (
{
closed = 1;
nodes = (
(699,-10,o),
(826,50,o),
(842,146,c),
(832,146,l),
(817,56,o),
(694,0,o),
(512,0,cs),
(271,0,o),
(120,132,o),
(120,342,cs),
(120,531,o),
(263,650,o),
(492,650,cs),
(718,650,o),
(860,531,o),
(860,341,c),
(116,341,l),
(116,331,l),
(870,331,l),
(870,335,o),
(870,337,o),
(870,341,cs),
(870,537,o),
(724,660,o),
(492,660,cs),
(257,660,o),
(110,537,o),
(110,342,cs),
(110,126,o),
(265,-10,o),
(512,-10,cs)
);
}
);
width = 980;
},
{
anchors = (
{
name = bottom;
pos = (470,0);
},
{
name = ogonek;
pos = (706,0);
},
{
name = top;
pos = (470,650);
}
);
layerId = m004;
shapes = (
{
closed = 1;
nodes = (
(706,-10,o),
(888,79,o),
(912,221,c),
(598,221,l),
(591,193,o),
(543,175,o),
(472,175,cs),
(385,175,o),
(330,239,o),
(330,342,cs),
(330,427,o),
(385,480,o),
(472,480,cs),
(563,480,o),
(620,446,o),
(620,391,c),
(186,391,l),
(186,271,l),
(924,271,l),
(928,289,o),
(930,316,o),
(930,342,cs),
(922,537,o),
(733,660,o),
(472,660,cs),
(200,660,o),
(30,537,o),
(30,342,cs),
(30,126,o),
(200,-10,o),
(472,-10,cs)
);
}
);
width = 960;
},
{
anchors = (
{
name = bottom;
pos = (353,0);
},
{
name = ogonek;
pos = (456,5);
},
{
name = top;
pos = (351,650);
}
);
layerId = "C42BF1BA-B3BB-492C-A865-1DF6B235F68F";
shapes = (
{
closed = 1;
nodes = (
(505,-10,o),
(611,62,o),
(634,176,c),
(519,176,l),
(507,123,o),
(446,90,o),
(360,90,cs),
(235,90,o),
(156,187,o),
(156,342,cs),
(156,476,o),
(232,560,o),
(352,560,cs),
(466,560,o),
(538,491,o),
(538,380,c),
(103,380,l),
(103,290,l),
(649,290,l),
(651,296,o),
(652,316,o),
(652,341,cs),
(649,537,o),
(533,660,o),
(352,660,cs),
(163,660,o),
(44,537,o),
(44,342,cs),
(44,126,o),
(166,-10,o),
(360,-10,cs)
);
}
);
width = 696;
}
);
metricLeft = o;
metricRight = o;
unicode = 101;
},
{
color = 9;
glyphname = schwa;
lastChange = "2024-08-08 19:48:19 +0000";
layers = (
{
anchors = (
{
name = bottom;
pos = (300,0);
},
{
name = top;
pos = (300,650);
}
);
layerId = m002;
shapes = (
{
closed = 1;
nodes = (
(161,660,o),
(78,609,o),
(69,504,c),
(79,504,l),
(87,602,o),
(167,650,o),
(234,650,cs),
(366,650,o),
(425,538,o),
(425,308,cs),
(425,101,o),
(366,0,o),
(244,0,cs),
(124,0,o),
(65,102,o),
(65,309,c),
(427,309,l),
(427,319,l),
(55,319,l),
(55,315,o),
(55,313,o),
(55,309,cs),
(55,95,o),
(117,-10,o),
(244,-10,cs),
(372,-10,o),
(435,94,o),
(435,308,cs),
(435,544,o),
(372,660,o),
(234,660,cs)
);
}
);
width = 490;
},
{
anchors = (
{
name = bottom;
pos = (300,0);
},
{
name = top;
pos = (300,650);
}
);
layerId = m01;
shapes = (
{
closed = 1;
nodes = (
(111,660,o),
(42,592,o),
(24,454,c),
(171,454,l),
(177,502,o),
(197,525,o),
(234,525,cs),
(288,525,o),
(305,454,o),
(305,308,cs),
(305,182,o),
(288,120,o),
(234,120,cs),
(181,120,o),
(160,166,o),
(160,259,c),
(377,259,l),
(377,369,l),
(18,369,l),
(16,348,o),
(15,328,o),
(15,308,cs),
(19,94,o),
(91,-10,o),
(234,-10,cs),
(389,-10,o),
(455,94,o),
(455,308,cs),
(455,544,o),
(389,660,o),
(234,660,cs)
);
}
);
width = 470;
},
{
anchors = (
{
name = bottom;
pos = (600,0);
},
{
name = top;
pos = (600,650);
}
);
layerId = m003;
shapes = (
{
closed = 1;
nodes = (
(282,660,o),
(154,600,o),
(138,504,c),
(149,504,l),
(164,594,o),
(287,650,o),
(468,650,cs),
(709,650,o),
(860,518,o),
(860,308,cs),
(860,119,o),
(717,0,o),
(488,0,cs),
(262,0,o),
(120,119,o),
(120,309,c),
(864,309,l),
(864,319,l),
(110,319,l),
(110,315,o),
(110,313,o),
(110,309,cs),
(110,113,o),
(256,-10,o),
(488,-10,cs),
(723,-10,o),
(870,113,o),
(870,308,cs),
(870,524,o),
(715,660,o),
(468,660,cs)
);
}
);
width = 980;
},
{
anchors = (
{
name = bottom;
pos = (600,0);
},
{
name = top;
pos = (600,650);
}
);
layerId = m004;
shapes = (
{
closed = 1;
nodes = (
(238,660,o),
(88,576,o),
(48,424,c),
(342,424,l),
(350,457,o),
(395,475,o),
(468,475,cs),
(559,475,o),
(610,415,o),
(610,308,cs),
(610,219,o),
(559,170,o),
(468,170,cs),
(373,170,o),
(320,202,o),
(320,259,c),
(754,259,l),
(754,369,l),
(36,369,l),
(32,350,o),
(30,328,o),
(30,308,cs),
(38,104,o),
(194,-10,o),
(468,-10,cs),
(752,-10,o),
(910,104,o),
(910,308,cs),
(910,534,o),
(752,660,o),
(468,660,cs)
);
}
);
width = 940;
},
{
anchors = (
{
name = bottom;
pos = (416,0);
},
{
name = top;
pos = (416,650);
}
);
layerId = "C42BF1BA-B3BB-492C-A865-1DF6B235F68F";
shapes = (
{
closed = 1;
nodes = (
(158,660,o),
(55,591,o),
(37,480,c),
(150,480,l),
(157,529,o),
(216,560,o),
(312,560,cs),
(437,560,o),
(511,467,o),
(511,318,cs),
(511,178,o),
(440,90,o),
(320,90,cs),
(202,90,o),
(133,164,o),
(133,283,c),
(561,283,l),
(561,373,l),
(22,373,l),
(21,351,o),
(20,326,o),
(20,309,cs),
(23,113,o),
(136,-10,o),
(320,-10,cs),
(509,-10,o),
(623,117,o),
(623,318,cs),
(623,528,o),
(506,660,o),
(312,660,cs)
);
}
);
width = 643;
}
);
metricLeft = o;
metricRight = o;
unicode = 601;
},
{
color = 9;
glyphname = f;
lastChange = "2024-08-07 14:00:03 +0000";
layers = (
{
anchors = (
{
name = bottom;
pos = (143,0);
},
{
name = top;
pos = (143,850);
}
);
layerId = m01;
shapes = (
{
closed = 1;
nodes = (
(210,0,l),
(210,650,l),
(60,650,l),
(60,0,l)
);
},
{
closed = 1;
nodes = (
(285,520,l),
(285,650,l),
(0,650,l),
(0,520,l)
);
},
{
closed = 1;
nodes = (
(210,645,l),
(210,695,o),
(223,719,o),
(250,719,c),
(262,719,o),
(274,718,o),
(285,716,c),
(285,851,l),
(261,857,o),
(233,860,o),
(200,860,cs),
(106,860,o),
(60,789,o),
(60,645,c)
);
}
);
width = 285;
},
{
anchors = (
{
name = bottom;
pos = (143,0);
},
{
name = top;
pos = (143,850);
}
);
background = {
shapes = (
{
closed = 1;
nodes = (
(210,0,l),
(210,650,l),
(60,650,l),
(60,0,l)
);
},
{
closed = 1;
nodes = (
(285,520,l),
(285,650,l),
(0,650,l),
(0,520,l)
);
},
{
closed = 1;
nodes = (
(210,645,l),
(210,695,o),
(223,719,o),
(250,719,c),
(262,719,o),
(274,718,o),
(285,716,c),
(285,851,l),
(261,857,o),
(233,860,o),
(200,860,cs),
(106,860,o),
(60,789,o),
(60,645,c)
);
}
);
};
layerId = m002;
shapes = (
{
closed = 1;
nodes = (
(140,0,l),
(140,650,l),
(130,650,l),
(130,0,l)
);
},
{
closed = 1;
nodes = (
(255,640,l),
(255,650,l),
(30,650,l),
(30,640,l)
);
},
{
closed = 1;
nodes = (
(140,650,l),
(140,780,o),
(170,844,o),
(230,844,cs),
(231,844,o),
(252,844,o),
(255,844,c),
(255,854,l),
(253,855,o),
(245,855,o),
(230,855,cs),
(163,855,o),
(130,788,o),
(130,650,c)
);
}
);
width = 285;
},
{
anchors = (
{
name = bottom;
pos = (286,0);
},
{
name = top;
pos = (286,850);
}
);
background = {
shapes = (
{
closed = 1;
nodes = (
(210,0,l),
(210,650,l),
(60,650,l),
(60,0,l)
);
},
{
closed = 1;
nodes = (
(285,520,l),
(285,650,l),
(0,650,l),
(0,520,l)
);
},
{
closed = 1;
nodes = (
(210,645,l),
(210,695,o),
(223,719,o),
(250,719,c),
(262,719,o),
(274,718,o),
(285,716,c),
(285,851,l),
(261,857,o),
(233,860,o),
(200,860,cs),
(106,860,o),
(60,789,o),
(60,645,c)
);
}
);
};
layerId = m003;
shapes = (
{
closed = 1;
nodes = (
(275,0,l),
(275,650,l),
(265,650,l),
(265,0,l)
);
},
{
closed = 1;
nodes = (
(510,640,l),
(510,650,l),
(60,650,l),
(60,640,l)
);
},
{
closed = 1;
nodes = (
(275,650,l),
(275,769,o),
(346,844,o),
(460,844,cs),
(462,844,o),
(504,844,o),
(510,844,c),
(510,854,l),
(508,855,o),
(488,855,o),
(460,855,cs),
(340,855,o),
(265,776,o),
(265,650,c)
);
}
);
width = 570;
},
{
anchors = (
{
name = bottom;
pos = (286,0);
},
{
name = top;
pos = (286,850);
}
);
layerId = m004;
shapes = (
{
closed = 1;
nodes = (
(420,0,l),
(420,650,l),
(120,650,l),
(120,0,l)
);
},
{
closed = 1;
nodes = (
(570,420,l),
(570,650,l),
(0,650,l),
(0,420,l)
);
},
{
closed = 1;
nodes = (
(420,645,l),
(420,690,o),
(451,719,o),
(500,719,c),
(524,719,o),
(551,718,o),
(570,716,c),
(570,851,l),
(528,857,o),
(462,860,o),
(400,860,cs),
(228,860,o),
(120,777,o),
(120,645,c)
);
}
);
width = 570;
},
{
anchors = (
{
name = bottom;
pos = (159,0);
},
{
name = top;
pos = (176,850);
}
);
layerId = "C42BF1BA-B3BB-492C-A865-1DF6B235F68F";
shapes = (
{
closed = 1;
nodes = (
(223,0,l),
(223,650,l),
(103,650,l),
(103,0,l)
);
},
{
closed = 1;
nodes = (
(365,560,l),
(365,650,l),
(-15,650,l),
(-15,560,l)
);
},
{
closed = 1;
nodes = (
(223,648,l),
(223,716,o),
(259,758,o),
(320,758,cs),
(335,758,o),
(353,757,o),
(365,756,c),
(365,853,l),
(351,855,o),
(320,857,o),
(285,857,cs),
(176,857,o),
(103,776,o),
(103,648,c)
);
}
);
width = 350;
}
);
unicode = 102;
},
{
color = 9;
glyphname = g;
lastChange = "2024-08-08 18:43:52 +0000";
layers = (
{
anchors = (
{
name = bottom;
pos = (255,-200);
},
{
name = top;
pos = (255,650);
}
);
layerId = m01;
shapes = (
{
closed = 1;
nodes = (
(316,-33,l),
(316,-79,o),
(293,-101,o),
(246,-101,cs),
(200,-101,o),
(177,-68,o),
(177,-41,c),
(36,-41,l),
(36,-145,o),
(105,-216,o),
(246,-216,cs),
(396,-216,o),
(470,-155,o),
(470,-31,cs),
(469,650,l),
(321,650,l)
);
},
{
closed = 1;
nodes = (
(328,0,o),
(395,112,o),
(395,342,cs),
(395,556,o),
(328,660,o),
(191,660,cs),
(73,660,o),
(15,556,o),
(15,342,cs),
(15,112,o),
(73,0,o),
(191,0,cs)
);
},
{
closed = 1;
nodes = (
(193,125,o),
(170,196,o),
(170,342,cs),
(170,465,o),
(193,525,o),
(240,525,cs),
(287,525,o),
(310,465,o),
(310,342,cs),
(310,196,o),
(287,125,o),
(240,125,cs)
);
}
);
width = 510;
},
{
anchors = (
{
name = bottom;
pos = (270,-200);
},
{
name = top;
pos = (270,650);
}
);
background = {
shapes = (
{
closed = 1;
nodes = (
(401,-33,l),
(401,-79,o),
(378,-101,o),
(331,-101,cs),
(285,-101,o),
(262,-68,o),
(262,-41,c),
(121,-41,l),
(121,-145,o),
(190,-216,o),
(331,-216,cs),
(481,-216,o),
(555,-155,o),
(555,-31,cs),
(554,650,l),
(406,650,l)
);
},
{
closed = 1;
nodes = (
(413,0,o),
(480,112,o),
(480,342,cs),
(480,556,o),
(413,660,o),
(276,660,cs),
(158,660,o),
(100,556,o),
(100,342,cs),
(100,112,o),
(158,0,o),
(276,0,cs)
);
},
{
closed = 1;
nodes = (
(278,125,o),
(255,196,o),
(255,342,cs),
(255,465,o),
(278,525,o),
(325,525,cs),
(372,525,o),
(395,465,o),
(395,342,cs),
(395,196,o),
(372,125,o),
(325,125,cs)
);
}
);
};
layerId = m002;
shapes = (
{
closed = 1;
nodes = (
(440,-32,ls),
(440,-145,o),
(380,-200,o),
(256,-200,cs),
(164,-200,o),
(104,-167,o),
(94,-91,c),
(84,-91,l),
(94,-174,o),
(156,-210,o),
(256,-210,cs),
(386,-210,o),
(450,-152,o),
(450,-32,cs),
(449,650,l),
(439,650,l)
);
},
{
closed = 1;
nodes = (
(376,-10,o),
(449,106,o),
(449,342,cs),
(449,556,o),
(376,660,o),
(246,660,cs),
(111,660,o),
(55,556,o),
(55,342,cs),
(55,106,o),
(111,-10,o),
(246,-10,cs)
);
},
{
closed = 1;
nodes = (
(118,0,o),
(65,112,o),
(65,342,cs),
(65,549,o),
(118,650,o),
(246,650,cs),
(369,650,o),
(439,549,o),
(439,342,cs),
(439,112,o),
(369,0,o),
(246,0,cs)
);
}
);
width = 540;
},
{
anchors = (
{
name = bottom;
pos = (540,-200);
},
{
name = top;
pos = (540,650);
}
);
background = {
shapes = (
{
closed = 1;
nodes = (
(401,-33,l),
(401,-79,o),
(378,-101,o),
(331,-101,cs),
(285,-101,o),
(262,-68,o),
(262,-41,c),
(121,-41,l),
(121,-145,o),
(190,-216,o),
(331,-216,cs),
(481,-216,o),
(555,-155,o),
(555,-31,cs),
(554,650,l),
(406,650,l)
);
},
{
closed = 1;
nodes = (
(413,0,o),
(480,112,o),
(480,342,cs),
(480,556,o),
(413,660,o),
(276,660,cs),
(158,660,o),
(100,556,o),
(100,342,cs),
(100,112,o),
(158,0,o),
(276,0,cs)
);
},
{
closed = 1;
nodes = (
(278,125,o),
(255,196,o),
(255,342,cs),
(255,465,o),
(278,525,o),
(325,525,cs),
(372,525,o),
(395,465,o),
(395,342,cs),
(395,196,o),
(372,125,o),
(325,125,cs)
);
}
);
};
layerId = m003;
shapes = (
{
closed = 1;
nodes = (
(890,-32,ls),
(890,-135,o),
(740,-200,o),
(502,-200,cs),
(322,-200,o),
(197,-158,o),
(179,-91,c),
(168,-91,l),
(186,-164,o),
(315,-210,o),
(502,-210,cs),
(746,-210,o),
(900,-141,o),
(900,-32,cs),
(898,650,l),
(888,650,l)
);
},
{
closed = 1;
nodes = (
(745,-10,o),
(898,126,o),
(898,342,cs),
(898,537,o),
(745,660,o),
(502,660,cs),
(261,660,o),
(110,537,o),
(110,342,cs),
(110,126,o),
(261,-10,o),
(502,-10,cs)
);
},
{
closed = 1;
nodes = (
(267,0,o),
(120,132,o),
(120,342,cs),
(120,531,o),
(267,650,o),
(502,650,cs),
(739,650,o),
(888,531,o),
(888,342,cs),
(888,132,o),
(739,0,o),
(502,0,cs)
);
}
);
width = 1080;
},
{
anchors = (
{
name = bottom;
pos = (492,-210);
},
{
name = top;
pos = (510,650);
}
);
layerId = m004;
shapes = (
{
closed = 1;
nodes = (
(632,-3,l),
(632,-45,o),
(578,-71,o),
(492,-71,cs),
(407,-71,o),
(354,-44,o),
(354,-1,c),
(72,-1,l),
(72,-133,o),
(234,-216,o),
(492,-216,cs),
(767,-216,o),
(940,-133,o),
(940,-1,cs),
(938,650,l),
(642,650,l)
);
},
{
closed = 1;
nodes = (
(626,40,o),
(780,156,o),
(780,342,cs),
(780,537,o),
(626,660,o),
(382,660,cs),
(166,660,o),
(30,537,o),
(30,342,cs),
(30,156,o),
(166,40,o),
(382,40,cs)
);
},
{
closed = 1;
nodes = (
(394,225,o),
(340,266,o),
(340,332,cs),
(340,389,o),
(394,425,o),
(480,425,cs),
(566,425,o),
(620,389,o),
(620,332,cs),
(620,266,o),
(566,225,o),
(480,225,cs)
);
}
);
width = 1011;
},
{
anchors = (
{
name = bottom;
pos = (343,-202);
},
{
name = top;
pos = (384,650);
}
);
layerId = "C42BF1BA-B3BB-492C-A865-1DF6B235F68F";
shapes = (
{
closed = 1;
nodes = (
(558,0,ls),
(558,-69,o),
(479,-113,o),
(373,-113,cs),
(265,-113,o),
(207,-92,o),
(203,-58,c),
(82,-58,l),
(89,-153,o),
(194,-213,o),
(373,-213,cs),
(553,-213,o),
(679,-130,o),
(679,1,cs),
(678,650,l),
(561,650,l)
);
},
{
closed = 1;
nodes = (
(519,30,o),
(623,132,o),
(623,342,cs),
(623,537,o),
(519,660,o),
(353,660,cs),
(163,660,o),
(44,537,o),
(44,342,cs),
(44,132,o),
(163,30,o),
(353,30,cs)
);
},
{
closed = 1;
nodes = (
(236,130,o),
(163,193,o),
(163,340,cs),
(163,475,o),
(236,560,o),
(353,560,cs),
(480,560,o),
(559,475,o),
(559,340,cs),
(559,193,o),
(480,130,o),
(353,130,cs)
);
}
);
width = 745;
}
);
metricLeft = o;
metricRight = n;
unicode = 103;
},
{
color = 9;
glyphname = h;
lastChange = "2024-08-08 18:44:03 +0000";
layers = (
{
anchors = (
{
name = bottom;
pos = (260,0);
},
{
name = center;
pos = (130,680);
},
{
name = top;
pos = (118,850);
}
);
background = {
shapes = (
{
closed = 1;
nodes = (
(200,0,l),
(200,438,l),
(200,483,o),
(223,512,o),
(260,512,cs),
(297,512,o),
(320,483,o),
(320,438,cs),
(320,0,l),
(480,0,l),
(480,488,l),
(480,594,o),
(426,660,o),
(340,660,cs),
(260,660,o),
(197,613,o),
(187,541,c),
(194,525,l),
(194,650,l),
(40,650,l),
(40,0,l)
);
}
);
};
layerId = m01;
shapes = (
{
closed = 1;
nodes = (
(200,0,l),
(200,145,o),
(200,394,o),
(200,438,cs),
(200,486,o),
(221,512,o),
(260,512,cs),
(299,512,o),
(320,486,o),
(320,438,cs),
(320,0,l),
(480,0,l),
(480,150,o),
(480,404,o),
(480,489,cs),
(480,599,o),
(430,660,o),
(340,660,cs),
(257,660,o),
(202,617,o),
(187,541,c),
(197,525,l),
(197,850,l),
(40,850,l),
(40,0,l)
);
}
);
width = 520;
},
{
anchors = (
{
name = bottom;
pos = (280,0);
},
{
name = center;
pos = (140,680);
},
{
name = top;
pos = (280,850);
}
);
background = {
shapes = (
{
closed = 1;
nodes = (
(240,0,l),
(240,145,o),
(240,394,o),
(240,438,cs),
(240,486,o),
(261,512,o),
(300,512,cs),
(339,512,o),
(360,486,o),
(360,438,cs),
(360,0,l),
(520,0,l),
(520,150,o),
(520,404,o),
(520,489,cs),
(520,599,o),
(470,660,o),
(380,660,cs),
(297,660,o),
(242,617,o),
(227,541,c),
(237,525,l),
(237,850,l),
(80,850,l),
(80,0,l)
);
}
);
};
layerId = m002;
shapes = (
{
closed = 1;
nodes = (
(100,0,l),
(100,146,o),
(100,399,o),
(100,438,cs),
(100,580,o),
(162,650,o),
(290,650,cs),
(404,650,o),
(460,589,o),
(460,464,cs),
(460,0,l),
(470,0,l),
(470,151,o),
(470,388,o),
(470,464,cs),
(470,596,o),
(411,660,o),
(290,660,cs),
(167,660,o),
(103,601,o),
(95,479,c),
(100,455,l),
(100,850,l),
(90,850,l),
(90,0,l)
);
}
);
width = 560;
},
{
anchors = (
{
name = bottom;
pos = (560,0);
},
{
name = center;
pos = (280,680);
},
{
name = top;
pos = (560,850);
}
);
background = {
shapes = (
{
closed = 1;
nodes = (
(240,0,l),
(240,145,o),
(240,394,o),
(240,438,cs),
(240,486,o),
(261,512,o),
(300,512,cs),
(339,512,o),
(360,486,o),
(360,438,cs),
(360,0,l),
(520,0,l),
(520,150,o),
(520,404,o),
(520,489,cs),
(520,599,o),
(470,660,o),
(380,660,cs),
(297,660,o),
(242,617,o),
(227,541,c),
(237,525,l),
(237,850,l),
(80,850,l),
(80,0,l)
);
}
);
};
layerId = m003;
shapes = (
{
closed = 1;
nodes = (
(190,0,l),
(190,146,o),
(190,399,o),
(190,438,cs),
(190,568,o),
(340,650,o),
(580,650,cs),
(792,650,o),
(925,578,o),
(925,464,cs),
(925,0,l),
(940,0,l),
(940,151,o),
(940,388,o),
(940,464,cs),
(940,584,o),
(801,660,o),
(580,660,cs),
(355,660,o),
(205,590,o),
(190,479,c),
(190,455,l),
(190,850,l),
(180,850,l),
(180,0,l)
);
}
);
width = 1120;
},
{
anchors = (
{
name = bottom;
pos = (520,0);
},
{
name = center;
pos = (260,680);
},
{
name = top;
pos = (236,850);
}
);
background = {
shapes = (
{
closed = 1;
nodes = (
(200,0,l),
(200,438,l),
(200,483,o),
(223,512,o),
(260,512,cs),
(297,512,o),
(320,483,o),
(320,438,cs),
(320,0,l),
(480,0,l),
(480,488,l),
(480,594,o),
(426,660,o),
(340,660,cs),
(260,660,o),
(197,613,o),
(187,541,c),
(194,525,l),
(194,650,l),
(40,650,l),
(40,0,l)
);
}
);
};
layerId = m004;
shapes = (
{
closed = 1;
nodes = (
(400,0,l),
(400,145,o),
(400,264,o),
(400,308,cs),
(400,372,o),
(446,412,o),
(520,412,cs),
(594,412,o),
(640,383,o),
(640,338,cs),
(640,0,l),
(960,0,l),
(960,150,o),
(960,374,o),
(960,459,cs),
(960,582,o),
(852,660,o),
(680,660,cs),
(528,660,o),
(410,603,o),
(374,511,c),
(394,495,l),
(394,850,l),
(80,850,l),
(80,0,l)
);
}
);
width = 1040;
},
{
anchors = (
{
name = bottom;
pos = (373,0);
},
{
name = center;
pos = (170,680);
},
{
name = top;
pos = (272,850);
}
);
background = {
shapes = (
{
closed = 1;
nodes = (
(186,0,l),
(186,399,l),
(186,497,o),
(267,559,o),
(396,559,cs),
(482,559,o),
(536,497,o),
(536,399,cs),
(536,0,l),
(656,0,l),
(656,399,l),
(656,559,o),
(556,660,o),
(396,660,cs),
(290,660,o),
(205,618,o),
(176,550,c),
(181,516,l),
(181,650,l),
(66,650,l),
(66,0,l)
);
}
);
};
layerId = "C42BF1BA-B3BB-492C-A865-1DF6B235F68F";
shapes = (
{
closed = 1;
nodes = (
(186,0,l),
(186,146,o),
(186,362,o),
(186,403,cs),
(186,500,o),
(263,561,o),
(386,561,cs),
(492,561,o),
(559,500,o),
(559,403,cs),
(559,0,l),
(679,0,l),
(679,151,o),
(679,322,o),
(679,403,cs),
(679,561,o),
(566,660,o),
(386,660,cs),
(279,660,o),
(191,606,o),
(157,521,c),
(183,501,l),
(183,850,l),
(66,850,l),
(66,0,l)
);
}
);
width = 745;
}
);
metricLeft = n;
metricRight = n;
unicode = 104;
},
{
glyphname = i;
lastChange = "2024-08-05 10:19:43 +0000";
layers = (
{
anchors = (
{
name = bottom;
pos = (120,0);
}
);
layerId = m01;
shapes = (
{
ref = idotless;
},
{
pos = (-28,0);
ref = dotaccentcomb;
}
);
width = 240;
},
{
anchors = (
{
name = bottom;
pos = (120,0);
}
);
background = {
shapes = (
{
closed = 1;
nodes = (
(40,651,l),
(40,0,l),
(200,0,l),
(200,651,l)
);
},
{
closed = 1;
nodes = (
(37,716,l),
(203,716,l),
(203,850,l),
(37,850,l)
);
}
);
};
layerId = m002;
shapes = (
{
ref = idotless;
},
{
pos = (-38,0);
ref = dotaccentcomb;
}
);
width = 234;
},
{
anchors = (
{
name = bottom;
pos = (120,0);
}
);
background = {
shapes = (
{
closed = 1;
nodes = (
(40,651,l),
(40,0,l),
(200,0,l),
(200,651,l)
);
},
{
closed = 1;
nodes = (
(37,716,l),
(203,716,l),
(203,850,l),
(37,850,l)
);
}
);
};
layerId = m003;
shapes = (
{
ref = idotless;
},
{
pos = (-66,0);
ref = dotaccentcomb;
}
);
width = 468;
},
{
anchors = (
{
name = bottom;
pos = (120,0);
}
);
layerId = m004;
shapes = (
{
ref = idotless;
},
{
pos = (-60,0);
ref = dotaccentcomb;
}
);
width = 480;
},
{
anchors = (
{
name = bottom;
pos = (120,0);
}
);
layerId = "C42BF1BA-B3BB-492C-A865-1DF6B235F68F";
shapes = (
{
ref = idotless;
},
{
pos = (-1,0);
ref = dotaccentcomb;
}
);
width = 244;
}
);
unicode = 105;
},
{
color = 9;
glyphname = idotless;
lastChange = "2024-08-07 14:00:02 +0000";
layers = (
{
anchors = (
{
name = bottom;
pos = (112,0);
},
{
name = ogonek;
pos = (112,0);
},
{
name = top;
pos = (112,650);
}
);
layerId = m002;
shapes = (
{
closed = 1;
nodes = (
(112,650,l),
(112,0,l),
(122,0,l),
(122,650,l)
);
}
);
width = 234;
},
{
anchors = (
{
name = bottom;
pos = (126,0);
},
{
name = ogonek;
pos = (130,0);
},
{
name = top;
pos = (122,650);
}
);
layerId = m01;
shapes = (
{
closed = 1;
nodes = (
(40,651,l),
(40,0,l),
(200,0,l),
(200,651,l)
);
}
);
width = 240;
},
{
anchors = (
{
name = bottom;
pos = (234,0);
},
{
name = ogonek;
pos = (259,0);
},
{
name = top;
pos = (234,650);
}
);
layerId = m003;
shapes = (
{
closed = 1;
nodes = (
(229,650,l),
(229,0,l),
(239,0,l),
(239,650,l)
);
}
);
width = 468;
},
{
anchors = (
{
name = bottom;
pos = (240,0);
},
{
name = ogonek;
pos = (400,0);
},
{
name = top;
pos = (240,650);
}
);
layerId = m004;
shapes = (
{
closed = 1;
nodes = (
(80,651,l),
(80,0,l),
(400,0,l),
(400,651,l)
);
}
);
width = 480;
},
{
anchors = (
{
name = bottom;
pos = (122,0);
},
{
name = ogonek;
pos = (167,0);
},
{
name = top;
pos = (121,650);
}
);
layerId = "C42BF1BA-B3BB-492C-A865-1DF6B235F68F";
shapes = (
{
closed = 1;
nodes = (
(62,650,l),
(62,0,l),
(182,0,l),
(182,650,l)
);
}
);
width = 244;
}
);
unicode = 305;
},
{
color = 9;
glyphname = jdotless;
lastChange = "2024-08-08 18:44:08 +0000";
layers = (
{
anchors = (
{
name = bottom;
pos = (115,-200);
},
{
name = top;
pos = (121,650);
}
);
layerId = m002;
shapes = (
{
closed = 1;
nodes = (
(115,650,l),
(115,0,l),
(125,0,l),
(125,650,l)
);
},
{
closed = 1;
nodes = (
(94,-205,o),
(125,-138,o),
(125,0,c),
(115,0,l),
(115,-131,o),
(87,-195,o),
(30,-195,c),
(30,-205,l)
);
}
);
width = 237;
},
{
anchors = (
{
name = bottom;
pos = (107,-200);
},
{
name = top;
pos = (121,650);
}
);
layerId = m01;
shapes = (
{
closed = 1;
nodes = (
(40,651,l),
(40,0,l),
(200,0,l),
(200,651,l)
);
},
{
closed = 1;
nodes = (
(134,-216,o),
(200,-145,o),
(200,0,c),
(40,0,l),
(40,-58,o),
(27,-86,o),
(0,-86,c),
(0,-216,l)
);
}
);
width = 237;
},
{
anchors = (
{
name = bottom;
pos = (230,-200);
},
{
name = top;
pos = (242,650);
}
);
layerId = m003;
shapes = (
{
closed = 1;
nodes = (
(235,650,l),
(235,0,l),
(245,0,l),
(245,650,l)
);
},
{
closed = 1;
nodes = (
(174,-205,o),
(245,-126,o),
(245,0,c),
(235,0,l),
(235,-120,o),
(167,-195,o),
(60,-195,c),
(60,-205,l)
);
}
);
width = 474;
},
{
anchors = (
{
name = bottom;
pos = (214,-200);
},
{
name = top;
pos = (240,650);
}
);
layerId = m004;
shapes = (
{
closed = 1;
nodes = (
(80,651,l),
(80,50,l),
(400,50,l),
(400,651,l)
);
},
{
closed = 1;
nodes = (
(246,-216,o),
(400,-113,o),
(400,50,c),
(80,50,l),
(80,-34,o),
(49,-86,o),
(0,-86,c),
(0,-216,l)
);
}
);
width = 474;
},
{
anchors = (
{
name = bottom;
pos = (109,-200);
},
{
name = top;
pos = (123,650);
}
);
layerId = "C42BF1BA-B3BB-492C-A865-1DF6B235F68F";
shapes = (
{
closed = 1;
nodes = (
(62,650,l),
(62,12,l),
(182,12,l),
(182,650,l)
);
},
{
closed = 1;
nodes = (
(99,-210,o),
(182,-124,o),
(182,12,c),
(62,12,l),
(62,-63,o),
(25,-110,o),
(-34,-110,c),
(-34,-210,l)
);
}
);
width = 244;
}
);
unicode = 567;
},
{
color = 9;
glyphname = k;
lastChange = "2024-08-08 17:50:53 +0000";
layers = (
{
anchors = (
{
name = bottom;
pos = (270,0);
},
{
name = top;
pos = (270,850);
}
);
layerId = m01;
shapes = (
{
closed = 1;
nodes = (
(40,850,l),
(40,0,l),
(195,0,l),
(195,850,l)
);
},
{
closed = 1;
nodes = (
(331,650,l),
(181,349,l),
(342,349,l),
(501,650,l)
);
},
{
closed = 1;
nodes = (
(342,349,l),
(152,349,l),
(341,0,l),
(540,0,l)
);
}
);
width = 520;
},
{
anchors = (
{
name = bottom;
pos = (233,0);
},
{
name = top;
pos = (233,850);
}
);
background = {
shapes = (
{
closed = 1;
nodes = (
(40,800,l),
(40,0,l),
(195,0,l),
(195,800,l)
);
},
{
closed = 1;
nodes = (
(331,650,l),
(181,349,l),
(342,349,l),
(501,650,l)
);
},
{
closed = 1;
nodes = (
(342,349,l),
(152,349,l),
(341,0,l),
(540,0,l)
);
}
);
};
layerId = m002;
shapes = (
{
closed = 1;
nodes = (
(72,850,l),
(70,0,l),
(80,0,l),
(82,850,l)
);
},
{
closed = 1;
nodes = (
(398,650,l),
(73,348,l),
(84,348,l),
(409,650,l)
);
},
{
closed = 1;
nodes = (
(84,348,l),
(73,348,l),
(434,0,l),
(445,0,l)
);
}
);
width = 465;
},
{
anchors = (
{
name = bottom;
pos = (466,0);
},
{
name = top;
pos = (466,850);
}
);
background = {
shapes = (
{
closed = 1;
nodes = (
(40,800,l),
(40,0,l),
(195,0,l),
(195,800,l)
);
},
{
closed = 1;
nodes = (
(331,650,l),
(181,349,l),
(342,349,l),
(501,650,l)
);
},
{
closed = 1;
nodes = (
(342,349,l),
(152,349,l),
(341,0,l),
(540,0,l)
);
}
);
};
layerId = m003;
shapes = (
{
closed = 1;
nodes = (
(144,850,l),
(140,0,l),
(150,0,l),
(154,850,l)
);
},
{
closed = 1;
nodes = (
(796,650,l),
(142,348,l),
(166,348,l),
(818,650,l)
);
},
{
closed = 1;
nodes = (
(166,348,l),
(142,348,l),
(868,0,l),
(890,0,l)
);
}
);
width = 930;
},
{
anchors = (
{
name = bottom;
pos = (520,0);
},
{
name = top;
pos = (540,850);
}
);
layerId = m004;
shapes = (
{
closed = 1;
nodes = (
(80,850,l),
(80,0,l),
(390,0,l),
(390,850,l)
);
},
{
closed = 1;
nodes = (
(622,650,l),
(312,349,l),
(684,349,l),
(1042,650,l)
);
},
{
closed = 1;
nodes = (
(684,349,l),
(304,349,l),
(652,0,l),
(1080,0,l)
);
}
);
width = 1040;
},
{
anchors = (
{
name = bottom;
pos = (349,0);
},
{
name = top;
pos = (354,850);
}
);
layerId = "C42BF1BA-B3BB-492C-A865-1DF6B235F68F";
shapes = (
{
closed = 1;
nodes = (
(63,850,l),
(62,0,l),
(181,0,l),
(183,850,l)
);
},
{
closed = 1;
nodes = (
(448,650,l),
(132,348,l),
(287,348,l),
(607,650,l)
);
},
{
closed = 1;
nodes = (
(287,348,l),
(112,348,l),
(465,0,l),
(653,0,l)
);
}
);
width = 648;
}
);
unicode = 107;
},
{
color = 9;
glyphname = l;
lastChange = "2024-08-07 14:00:03 +0000";
layers = (
{
anchors = (
{
name = bottom;
pos = (118,0);
},
{
name = center;
pos = (118,325);
},
{
name = top;
pos = (118,850);
},
{
name = topright;
pos = (175,850);
}
);
layerId = m01;
shapes = (
{
closed = 1;
nodes = (
(40,850,l),
(40,0,l),
(195,0,l),
(195,850,l)
);
}
);
width = 235;
},
{
anchors = (
{
name = bottom;
pos = (118,0);
},
{
name = center;
pos = (118,325);
},
{
name = top;
pos = (118,850);
},
{
name = topright;
pos = (215,850);
}
);
background = {
shapes = (
{
closed = 1;
nodes = (
(40,850,l),
(40,0,l),
(195,0,l),
(195,850,l)
);
}
);
};
layerId = m002;
shapes = (
{
closed = 1;
nodes = (
(112,850,l),
(112,0,l),
(122,0,l),
(122,850,l)
);
}
);
width = 235;
},
{
anchors = (
{
name = bottom;
pos = (236,0);
},
{
name = center;
pos = (236,325);
},
{
name = top;
pos = (236,850);
},
{
name = topright;
pos = (430,850);
}
);
background = {
shapes = (
{
closed = 1;
nodes = (
(40,850,l),
(40,0,l),
(195,0,l),
(195,850,l)
);
}
);
};
layerId = m003;
shapes = (
{
closed = 1;
nodes = (
(229,850,l),
(229,0,l),
(239,0,l),
(239,850,l)
);
}
);
width = 470;
},
{
anchors = (
{
name = bottom;
pos = (236,0);
},
{
name = center;
pos = (236,325);
},
{
name = top;
pos = (236,850);
},
{
name = topright;
pos = (350,850);
}
);
layerId = m004;
shapes = (
{
closed = 1;
nodes = (
(80,850,l),
(80,0,l),
(390,0,l),
(390,850,l)
);
}
);
width = 470;
},
{
anchors = (
{
name = bottom;
pos = (123,0);
},
{
name = center;
pos = (123,325);
},
{
name = top;
pos = (139,850);
},
{
name = topright;
pos = (157,850);
}
);
layerId = "C42BF1BA-B3BB-492C-A865-1DF6B235F68F";
shapes = (
{
closed = 1;
nodes = (
(62,850,l),
(62,0,l),
(182,0,l),
(182,850,l)
);
}
);
width = 244;
}
);
unicode = 108;
},
{
color = 9;
glyphname = m;
lastChange = "2024-08-08 18:45:48 +0000";
layers = (
{
anchors = (
{
name = bottom;
pos = (400,0);
},
{
name = top;
pos = (400,650);
}
);
layerId = m01;
shapes = (
{
closed = 1;
nodes = (
(200,0,l),
(200,438,l),
(200,486,o),
(221,512,o),
(260,512,cs),
(299,512,o),
(320,486,o),
(320,438,cs),
(320,0,l),
(475,0,l),
(475,510,l),
(474,606,o),
(426,660,o),
(340,660,cs),
(268,660,o),
(216,628,o),
(194,570,c),
(194,650,l),
(40,650,l),
(40,0,l)
);
},
{
closed = 1;
nodes = (
(760,0,l),
(760,509,l),
(760,606,o),
(710,660,o),
(620,660,cs),
(523,660,o),
(461,615,o),
(446,535,c),
(475,438,l),
(475,486,o),
(498,512,o),
(540,512,cs),
(579,512,o),
(600,486,o),
(600,438,cs),
(600,0,l)
);
}
);
width = 800;
},
{
anchors = (
{
name = bottom;
pos = (431,0);
},
{
name = top;
pos = (431,650);
}
);
background = {
shapes = (
{
closed = 1;
nodes = (
(200,0,l),
(200,145,o),
(200,394,o),
(200,438,cs),
(200,486,o),
(221,512,o),
(260,512,cs),
(299,512,o),
(320,486,o),
(320,438,cs),
(320,0,l),
(475,0,l),
(475,510,l),
(474,606,o),
(426,660,o),
(340,660,cs),
(268,660,o),
(216,628,o),
(194,570,c),
(194,650,l),
(40,650,l),
(40,0,l)
);
},
{
closed = 1;
nodes = (
(475,438,l),
(475,486,o),
(498,512,o),
(540,512,cs),
(579,512,o),
(600,486,o),
(600,438,cs),
(600,0,l),
(760,0,l),
(760,150,o),
(760,424,o),
(760,509,cs),
(760,606,o),
(710,660,o),
(620,660,cs),
(523,660,o),
(461,615,o),
(446,535,c)
);
}
);
};
layerId = m002;
shapes = (
{
closed = 1;
nodes = (
(100,0,l),
(100,470,l),
(100,591,o),
(158,650,o),
(276,650,cs),
(379,650,o),
(430,591,o),
(430,470,cs),
(430,0,l),
(440,0,l),
(440,470,l),
(440,598,o),
(386,660,o),
(276,660,cs),
(178,660,o),
(120,621,o),
(100,541,c),
(100,650,l),
(90,650,l),
(91,0,l)
);
},
{
closed = 1;
nodes = (
(771,0,l),
(771,470,l),
(771,598,o),
(717,660,o),
(607,660,cs),
(508,660,o),
(450,621,o),
(431,542,c),
(431,470,l),
(431,591,o),
(489,650,o),
(607,650,cs),
(710,650,o),
(761,591,o),
(761,470,cs),
(761,0,l)
);
}
);
width = 861;
},
{
anchors = (
{
name = bottom;
pos = (862,0);
},
{
name = top;
pos = (862,650);
}
);
background = {
shapes = (
{
closed = 1;
nodes = (
(200,0,l),
(200,145,o),
(200,394,o),
(200,438,cs),
(200,486,o),
(221,512,o),
(260,512,cs),
(299,512,o),
(320,486,o),
(320,438,cs),
(320,0,l),
(475,0,l),
(475,510,l),
(474,606,o),
(426,660,o),
(340,660,cs),
(268,660,o),
(216,628,o),
(194,570,c),
(194,650,l),
(40,650,l),
(40,0,l)
);
},
{
closed = 1;
nodes = (
(475,438,l),
(475,486,o),
(498,512,o),
(540,512,cs),
(579,512,o),
(600,486,o),
(600,438,cs),
(600,0,l),
(760,0,l),
(760,150,o),
(760,424,o),
(760,509,cs),
(760,606,o),
(710,660,o),
(620,660,cs),
(523,660,o),
(461,615,o),
(446,535,c)
);
}
);
};
layerId = m003;
shapes = (
{
closed = 1;
nodes = (
(191,0,l),
(191,470,l),
(191,581,o),
(330,650,o),
(552,650,cs),
(744,650,o),
(865,581,o),
(865,470,cs),
(865,0,l),
(875,0,l),
(875,470,l),
(875,587,o),
(750,660,o),
(552,660,cs),
(359,660,o),
(220,606,o),
(191,520,c),
(191,650,l),
(180,650,l),
(182,0,l)
);
},
{
closed = 1;
nodes = (
(1542,0,l),
(1542,470,l),
(1542,587,o),
(1415,660,o),
(1214,660,cs),
(1026,660,o),
(890,606,o),
(863,520,c),
(865,495,l),
(880,590,o),
(1015,650,o),
(1214,650,cs),
(1409,650,o),
(1532,581,o),
(1532,470,cs),
(1532,0,l)
);
}
);
width = 1722;
},
{
anchors = (
{
name = bottom;
pos = (800,0);
},
{
name = top;
pos = (800,650);
}
);
layerId = m004;
shapes = (
{
closed = 1;
nodes = (
(400,0,l),
(400,308,l),
(400,356,o),
(443,412,o),
(520,412,cs),
(597,412,o),
(640,386,o),
(640,338,cs),
(640,0,l),
(950,0,l),
(950,380,l),
(947,541,o),
(850,660,o),
(680,660,cs),
(536,660,o),
(432,598,o),
(388,540,c),
(388,650,l),
(80,650,l),
(80,0,l)
);
},
{
closed = 1;
nodes = (
(1520,0,l),
(1520,479,l),
(1520,576,o),
(1420,660,o),
(1240,660,cs),
(1046,660,o),
(922,585,o),
(892,505,c),
(950,308,l),
(950,356,o),
(996,412,o),
(1080,412,cs),
(1157,412,o),
(1200,386,o),
(1200,338,cs),
(1200,0,l)
);
}
);
width = 1600;
},
{
anchors = (
{
name = bottom;
pos = (591,0);
},
{
name = top;
pos = (591,650);
}
);
background = {
shapes = (
{
closed = 1;
nodes = (
(186,0,l),
(186,399,l),
(186,497,o),
(267,559,o),
(396,559,cs),
(482,559,o),
(536,497,o),
(536,399,cs),
(536,0,l),
(656,0,l),
(656,399,l),
(656,559,o),
(556,660,o),
(396,660,cs),
(290,660,o),
(205,618,o),
(176,550,c),
(181,516,l),
(181,650,l),
(66,650,l),
(66,0,l)
);
}
);
};
layerId = "C42BF1BA-B3BB-492C-A865-1DF6B235F68F";
shapes = (
{
closed = 1;
nodes = (
(186,0,l),
(186,404,l),
(186,500,o),
(268,561,o),
(399,561,cs),
(483,561,o),
(535,503,o),
(535,411,cs),
(535,0,l),
(651,0,l),
(651,438,l),
(650,574,o),
(553,660,o),
(399,660,cs),
(302,660,o),
(218,618,o),
(182,552,c),
(182,650,l),
(66,650,l),
(67,0,l)
);
},
{
closed = 1;
nodes = (
(1116,0,l),
(1116,461,l),
(1116,583,o),
(1017,660,o),
(859,660,cs),
(747,660,o),
(656,613,o),
(624,539,c),
(646,413,l),
(649,504,o),
(731,561,o),
(859,561,cs),
(943,561,o),
(996,503,o),
(996,411,cs),
(996,0,l)
);
}
);
width = 1182;
}
);
metricLeft = n;
metricRight = n;
unicode = 109;
},
{
color = 9;
glyphname = n;
lastChange = "2024-08-08 18:46:06 +0000";
layers = (
{
anchors = (
{
name = bottom;
pos = (260,0);
},
{
name = top;
pos = (260,650);
}
);
background = {
shapes = (
{
closed = 1;
nodes = (
(417,-10,o),
(485,96,o),
(485,342,cs),
(485,565,o),
(417,660,o),
(260,660,cs),
(103,660,o),
(35,565,o),
(35,342,cs),
(35,96,o),
(103,-10,o),
(260,-10,cs)
);
},
{
closed = 1;
nodes = (
(215,125,o),
(195,190,o),
(195,342,cs),
(195,470,o),
(215,525,o),
(260,525,cs),
(305,525,o),
(325,470,o),
(325,342,cs),
(325,190,o),
(305,125,o),
(260,125,cs)
);
}
);
};
layerId = m01;
shapes = (
{
closed = 1;
nodes = (
(200,0,l),
(200,438,l),
(200,488,o),
(220,512,o),
(260,512,cs),
(300,512,o),
(320,488,o),
(320,438,cs),
(320,0,l),
(480,0,l),
(480,488,l),
(480,603,o),
(434,660,o),
(340,660,cs),
(267,660,o),
(216,634,o),
(187,581,c),
(194,525,l),
(194,650,l),
(40,650,l),
(40,0,l)
);
}
);
width = 520;
},
{
anchors = (
{
name = bottom;
pos = (265,0);
},
{
name = top;
pos = (265,650);
}
);
background = {
shapes = (
{
closed = 1;
nodes = (
(210,0,l),
(210,438,l),
(210,483,o),
(233,512,o),
(270,512,cs),
(307,512,o),
(330,483,o),
(330,438,cs),
(330,0,l),
(490,0,l),
(490,488,l),
(490,594,o),
(436,660,o),
(350,660,cs),
(270,660,o),
(207,613,o),
(197,541,c),
(204,525,l),
(204,650,l),
(50,650,l),
(50,0,l)
);
}
);
};
layerId = m002;
shapes = (
{
closed = 1;
nodes = (
(100,0,l),
(100,470,l),
(100,591,o),
(158,650,o),
(276,650,cs),
(379,650,o),
(430,591,o),
(430,470,cs),
(430,0,l),
(440,0,l),
(440,470,l),
(440,598,o),
(386,660,o),
(276,660,cs),
(180,660,o),
(122,621,o),
(100,542,c),
(100,521,l),
(100,650,l),
(90,650,l),
(90,0,l)
);
}
);
width = 530;
},
{
anchors = (
{
name = bottom;
pos = (530,0);
},
{
name = top;
pos = (530,650);
}
);
background = {
shapes = (
{
closed = 1;
nodes = (
(210,0,l),
(210,438,l),
(210,483,o),
(233,512,o),
(270,512,cs),
(307,512,o),
(330,483,o),
(330,438,cs),
(330,0,l),
(490,0,l),
(490,488,l),
(490,594,o),
(436,660,o),
(350,660,cs),
(270,660,o),
(207,613,o),
(197,541,c),
(204,525,l),
(204,650,l),
(50,650,l),
(50,0,l)
);
}
);
};
layerId = m003;
shapes = (
{
closed = 1;
nodes = (
(190,0,l),
(190,483,l),
(190,586,o),
(330,650,o),
(552,650,cs),
(747,650,o),
(870,581,o),
(870,470,cs),
(870,0,l),
(880,0,l),
(880,470,l),
(880,587,o),
(753,660,o),
(552,660,cs),
(357,660,o),
(218,610,o),
(190,530,c),
(190,521,l),
(190,650,l),
(180,650,l),
(180,0,l)
);
}
);
width = 1060;
},
{
anchors = (
{
name = bottom;
pos = (520,0);
},
{
name = top;
pos = (520,650);
}
);
background = {
shapes = (
{
closed = 1;
nodes = (
(417,-10,o),
(485,96,o),
(485,342,cs),
(485,565,o),
(417,660,o),
(260,660,cs),
(103,660,o),
(35,565,o),
(35,342,cs),
(35,96,o),
(103,-10,o),
(260,-10,cs)
);
},
{
closed = 1;
nodes = (
(215,125,o),
(195,190,o),
(195,342,cs),
(195,470,o),
(215,525,o),
(260,525,cs),
(305,525,o),
(325,470,o),
(325,342,cs),
(325,190,o),
(305,125,o),
(260,125,cs)
);
}
);
};
layerId = m004;
shapes = (
{
closed = 1;
nodes = (
(400,0,l),
(400,308,l),
(400,356,o),
(443,412,o),
(520,412,cs),
(597,412,o),
(640,386,o),
(640,338,cs),
(640,0,l),
(960,0,l),
(960,458,l),
(960,569,o),
(860,660,o),
(680,660,cs),
(539,660,o),
(430,602,o),
(374,551,c),
(388,495,l),
(388,650,l),
(80,650,l),
(80,0,l)
);
}
);
width = 1040;
},
{
anchors = (
{
name = bottom;
pos = (357,0);
},
{
name = top;
pos = (357,650);
}
);
layerId = "C42BF1BA-B3BB-492C-A865-1DF6B235F68F";
shapes = (
{
closed = 1;
nodes = (
(182,0,l),
(182,399,l),
(182,497,o),
(253,559,o),
(382,559,cs),
(468,559,o),
(512,497,o),
(512,399,cs),
(512,0,l),
(632,0,l),
(632,399,l),
(632,559,o),
(542,660,o),
(382,660,cs),
(276,660,o),
(201,618,o),
(172,550,c),
(177,516,l),
(177,650,l),
(62,650,l),
(62,0,l)
);
}
);
width = 680;
}
);
unicode = 110;
},
{
color = 9;
glyphname = eng;
lastChange = "2024-08-08 18:46:13 +0000";
layers = (
{
layerId = m002;
shapes = (
{
closed = 1;
nodes = (
(100,0,l),
(100,470,l),
(100,591,o),
(158,650,o),
(276,650,cs),
(379,650,o),
(430,591,o),
(430,470,cs),
(430,0,l),
(440,0,l),
(440,470,l),
(440,598,o),
(386,660,o),
(276,660,cs),
(180,660,o),
(122,621,o),
(100,542,c),
(100,521,l),
(100,650,l),
(90,650,l),
(90,0,l)
);
},
{
closed = 1;
nodes = (
(409,-205,o),
(440,-138,o),
(440,0,c),
(430,0,l),
(430,-131,o),
(402,-195,o),
(345,-195,c),
(345,-205,l)
);
}
);
width = 530;
},
{
layerId = m01;
shapes = (
{
closed = 1;
nodes = (
(200,0,l),
(200,438,l),
(200,488,o),
(220,512,o),
(260,512,cs),
(300,512,o),
(320,488,o),
(320,438,cs),
(320,0,l),
(480,0,l),
(480,488,l),
(480,603,o),
(434,660,o),
(340,660,cs),
(267,660,o),
(216,634,o),
(187,581,c),
(194,525,l),
(194,650,l),
(40,650,l),
(40,0,l)
);
},
{
closed = 1;
nodes = (
(414,-216,o),
(480,-145,o),
(480,0,c),
(320,0,l),
(320,-58,o),
(307,-86,o),
(280,-86,c),
(280,-216,l)
);
}
);
width = 520;
},
{
layerId = m003;
shapes = (
{
closed = 1;
nodes = (
(190,0,l),
(190,483,l),
(190,586,o),
(330,650,o),
(552,650,cs),
(747,650,o),
(870,581,o),
(870,470,cs),
(870,0,l),
(880,0,l),
(880,470,l),
(880,587,o),
(753,660,o),
(552,660,cs),
(356,660,o),
(216,610,o),
(190,530,c),
(190,521,l),
(190,650,l),
(180,650,l),
(180,0,l)
);
},
{
closed = 1;
nodes = (
(809,-205,o),
(880,-126,o),
(880,0,c),
(870,0,l),
(870,-120,o),
(802,-195,o),
(695,-195,c),
(695,-205,l)
);
}
);
width = 1060;
},
{
layerId = m004;
shapes = (
{
closed = 1;
nodes = (
(400,0,l),
(400,308,l),
(400,356,o),
(443,412,o),
(520,412,cs),
(597,412,o),
(640,386,o),
(640,338,cs),
(640,50,l),
(960,50,l),
(960,458,l),
(960,569,o),
(860,660,o),
(680,660,cs),
(539,660,o),
(430,602,o),
(374,551,c),
(388,495,l),
(388,650,l),
(80,650,l),
(80,0,l)
);
},
{
closed = 1;
nodes = (
(806,-216,o),
(960,-113,o),
(960,50,c),
(640,50,l),
(640,-34,o),
(609,-86,o),
(560,-86,c),
(560,-216,l)
);
}
);
width = 1040;
},
{
layerId = "C42BF1BA-B3BB-492C-A865-1DF6B235F68F";
shapes = (
{
closed = 1;
nodes = (
(182,0,l),
(182,399,l),
(182,497,o),
(259,559,o),
(382,559,cs),
(462,559,o),
(512,497,o),
(512,399,cs),
(512,0,l),
(632,0,l),
(632,399,l),
(632,559,o),
(536,660,o),
(382,660,cs),
(282,660,o),
(201,618,o),
(172,550,c),
(177,516,l),
(177,650,l),
(62,650,l),
(62,0,l)
);
},
{
closed = 1;
nodes = (
(549,-210,o),
(632,-129,o),
(632,0,c),
(512,0,l),
(512,-88,o),
(475,-143,o),
(416,-143,c),
(416,-210,l)
);
}
);
width = 680;
}
);
metricLeft = n;
metricRight = n;
unicode = 331;
},
{
color = 9;
glyphname = o;
lastChange = "2024-08-08 18:46:21 +0000";
layers = (
{
anchors = (
{
name = bottom;
pos = (240,0);
},
{
name = center;
pos = (240,325);
},
{
name = ogonek;
pos = (432,10);
},
{
name = top;
pos = (240,650);
},
{
name = topright;
pos = (460,650);
}
);
background = {
shapes = (
{
closed = 1;
nodes = (
(180,0,l),
(180,438,l),
(180,483,o),
(203,512,o),
(240,512,cs),
(277,512,o),
(300,483,o),
(300,438,cs),
(300,0,l),
(460,0,l),
(460,488,l),
(460,594,o),
(406,660,o),
(320,660,cs),
(240,660,o),
(177,613,o),
(167,541,c),
(174,525,l),
(174,650,l),
(20,650,l),
(20,0,l)
);
}
);
};
layerId = m01;
shapes = (
{
closed = 1;
nodes = (
(397,-10,o),
(465,96,o),
(465,342,cs),
(465,565,o),
(397,660,o),
(240,660,cs),
(83,660,o),
(15,565,o),
(15,342,cs),
(15,96,o),
(83,-10,o),
(240,-10,cs)
);
},
{
closed = 1;
nodes = (
(195,125,o),
(175,190,o),
(175,342,cs),
(175,470,o),
(195,525,o),
(240,525,cs),
(285,525,o),
(305,470,o),
(305,342,cs),
(305,190,o),
(285,125,o),
(240,125,cs)
);
}
);
width = 480;
},
{
anchors = (
{
name = bottom;
pos = (240,0);
},
{
name = center;
pos = (240,325);
},
{
name = ogonek;
pos = (432,10);
},
{
name = top;
pos = (240,650);
},
{
name = topright;
pos = (460,650);
}
);
background = {
shapes = (
{
closed = 1;
nodes = (
(397,-10,o),
(465,96,o),
(465,342,cs),
(465,565,o),
(397,660,o),
(240,660,cs),
(83,660,o),
(15,565,o),
(15,342,cs),
(15,96,o),
(83,-10,o),
(240,-10,cs)
);
},
{
closed = 1;
nodes = (
(195,125,o),
(175,190,o),
(175,342,cs),
(175,470,o),
(195,525,o),
(240,525,cs),
(285,525,o),
(305,470,o),
(305,342,cs),
(305,190,o),
(285,125,o),
(240,125,cs)
);
}
);
};
layerId = m002;
shapes = (
{
closed = 1;
nodes = (
(364,-10,o),
(425,106,o),
(425,342,cs),
(425,556,o),
(364,660,o),
(240,660,cs),
(116,660,o),
(55,556,o),
(55,342,cs),
(55,106,o),
(116,-10,o),
(240,-10,cs)
);
},
{
closed = 1;
nodes = (
(123,0,o),
(65,112,o),
(65,342,cs),
(65,549,o),
(123,650,o),
(240,650,cs),
(357,650,o),
(415,549,o),
(415,342,cs),
(415,112,o),
(357,0,o),
(240,0,cs)
);
}
);
width = 480;
},
{
anchors = (
{
name = bottom;
pos = (480,0);
},
{
name = center;
pos = (480,325);
},
{
name = ogonek;
pos = (864,10);
},
{
name = top;
pos = (480,650);
},
{
name = topright;
pos = (920,650);
}
);
background = {
shapes = (
{
closed = 1;
nodes = (
(397,-10,o),
(465,96,o),
(465,342,cs),
(465,565,o),
(397,660,o),
(240,660,cs),
(83,660,o),
(15,565,o),
(15,342,cs),
(15,96,o),
(83,-10,o),
(240,-10,cs)
);
},
{
closed = 1;
nodes = (
(195,125,o),
(175,190,o),
(175,342,cs),
(175,470,o),
(195,525,o),
(240,525,cs),
(285,525,o),
(305,470,o),
(305,342,cs),
(305,190,o),
(285,125,o),
(240,125,cs)
);
}
);
};
layerId = m003;
shapes = (
{
closed = 1;
nodes = (
(707,-10,o),
(850,126,o),
(850,342,cs),
(850,537,o),
(707,660,o),
(480,660,cs),
(253,660,o),
(110,537,o),
(110,342,cs),
(110,126,o),
(253,-10,o),
(480,-10,cs)
);
},
{
closed = 1;
nodes = (
(259,0,o),
(120,132,o),
(120,342,cs),
(120,531,o),
(259,650,o),
(480,650,cs),
(701,650,o),
(840,531,o),
(840,342,cs),
(840,132,o),
(701,0,o),
(480,0,cs)
);
}
);
width = 960;
},
{
anchors = (
{
name = bottom;
pos = (480,0);
},
{
name = center;
pos = (480,325);
},
{
name = ogonek;
pos = (648,10);
},
{
name = top;
pos = (480,650);
},
{
name = topright;
pos = (920,650);
}
);
background = {
shapes = (
{
closed = 1;
nodes = (
(180,0,l),
(180,438,l),
(180,483,o),
(203,512,o),
(240,512,cs),
(277,512,o),
(300,483,o),
(300,438,cs),
(300,0,l),
(460,0,l),
(460,488,l),
(460,594,o),
(406,660,o),
(320,660,cs),
(240,660,o),
(177,613,o),
(167,541,c),
(174,525,l),
(174,650,l),
(20,650,l),
(20,0,l)
);
}
);
};
layerId = m004;
shapes = (
{
closed = 1;
nodes = (
(756,-10,o),
(930,126,o),
(930,342,cs),
(930,537,o),
(756,660,o),
(480,660,cs),
(204,660,o),
(30,537,o),
(30,342,cs),
(30,126,o),
(204,-10,o),
(480,-10,cs)
);
},
{
closed = 1;
nodes = (
(400,225,o),
(350,266,o),
(350,332,cs),
(350,389,o),
(400,425,o),
(480,425,cs),
(560,425,o),
(610,389,o),
(610,332,cs),
(610,266,o),
(560,225,o),
(480,225,cs)
);
}
);
width = 960;
},
{
anchors = (
{
name = bottom;
pos = (326,0);
},
{
name = center;
pos = (326,325);
},
{
name = ogonek;
pos = (563,10);
},
{
name = top;
pos = (326,650);
},
{
name = topright;
pos = (593,650);
}
);
layerId = "C42BF1BA-B3BB-492C-A865-1DF6B235F68F";
shapes = (
{
closed = 1;
nodes = (
(514,-10,o),
(632,125,o),
(632,341,cs),
(632,537,o),
(514,660,o),
(326,660,cs),
(138,660,o),
(20,537,o),
(20,341,cs),
(20,125,o),
(138,-10,o),
(326,-10,cs)
);
},
{
closed = 1;
nodes = (
(211,90,o),
(139,187,o),
(139,341,cs),
(139,476,o),
(211,560,o),
(326,560,cs),
(441,560,o),
(513,476,o),
(513,341,cs),
(513,187,o),
(441,90,o),
(326,90,cs)
);
}
);
width = 652;
}
);
unicode = 111;
},
{
glyphname = oslash;
lastChange = "2024-08-05 10:19:43 +0000";
layers = (
{
anchors = (
{
name = top;
pos = (300,650);
}
);
layerId = m002;
shapes = (
{
ref = o;
},
{
closed = 1;
nodes = (
(89,0,l),
(100,0,l),
(400,650,l),
(389,650,l)
);
}
);
width = 480;
},
{
anchors = (
{
name = top;
pos = (300,650);
}
);
layerId = m01;
shapes = (
{
ref = o;
},
{
closed = 1;
nodes = (
(55,0,l),
(129,0,l),
(429,650,l),
(355,650,l)
);
}
);
width = 480;
},
{
anchors = (
{
name = top;
pos = (300,650);
}
);
layerId = m003;
shapes = (
{
ref = o;
},
{
closed = 1;
nodes = (
(89,0,l),
(100,0,l),
(400,650,l),
(389,650,l)
);
}
);
width = 480;
},
{
anchors = (
{
name = top;
pos = (300,650);
}
);
layerId = m004;
shapes = (
{
ref = o;
},
{
closed = 1;
nodes = (
(55,0,l),
(129,0,l),
(429,650,l),
(355,650,l)
);
}
);
width = 480;
},
{
anchors = (
{
name = top;
pos = (300,650);
}
);
layerId = "C42BF1BA-B3BB-492C-A865-1DF6B235F68F";
shapes = (
{
alignment = -1;
ref = o;
},
{
closed = 1;
nodes = (
(73,0,l),
(114,0,l),
(414,650,l),
(373,650,l)
);
}
);
width = 480;
}
);
unicode = 248;
},
{
color = 9;
glyphname = p;
lastChange = "2024-08-08 18:46:34 +0000";
layers = (
{
anchors = (
{
name = bottom;
pos = (255,0);
},
{
name = top;
pos = (255,650);
}
);
layerId = m01;
shapes = (
{
closed = 1;
nodes = (
(190,650,l),
(40,650,l),
(40,-200,l),
(190,-200,l)
);
},
{
closed = 1;
nodes = (
(193,660,o),
(135,556,o),
(135,342,cs),
(135,106,o),
(193,-10,o),
(320,-10,cs),
(437,-10,o),
(495,106,o),
(495,342,cs),
(495,556,o),
(437,660,o),
(320,660,cs)
);
},
{
closed = 1;
nodes = (
(317,525,o),
(340,465,o),
(340,342,cs),
(340,190,o),
(317,115,o),
(270,115,cs),
(230,115,o),
(200,190,o),
(200,342,cs),
(200,465,o),
(230,525,o),
(270,525,cs)
);
}
);
width = 510;
},
{
anchors = (
{
name = bottom;
pos = (270,0);
},
{
name = top;
pos = (270,650);
}
);
layerId = m002;
shapes = (
{
closed = 1;
nodes = (
(100,650,l),
(90,650,l),
(90,-200,l),
(100,-200,l)
);
},
{
closed = 1;
nodes = (
(157,660,o),
(90,544,o),
(90,308,cs),
(90,94,o),
(157,-10,o),
(295,-10,cs),
(423,-10,o),
(485,94,o),
(485,308,cs),
(485,544,o),
(423,660,o),
(295,660,cs)
);
},
{
closed = 1;
nodes = (
(416,650,o),
(475,538,o),
(475,308,cs),
(475,101,o),
(416,0,o),
(295,0,cs),
(164,0,o),
(100,101,o),
(100,308,cs),
(100,538,o),
(164,650,o),
(295,650,cs)
);
}
);
width = 540;
},
{
anchors = (
{
name = bottom;
pos = (540,0);
},
{
name = top;
pos = (540,650);
}
);
layerId = m003;
shapes = (
{
closed = 1;
nodes = (
(190,650,l),
(180,650,l),
(180,-200,l),
(190,-200,l)
);
},
{
closed = 1;
nodes = (
(323,660,o),
(180,524,o),
(180,308,cs),
(180,113,o),
(323,-10,o),
(550,-10,cs),
(808,-10,o),
(970,113,o),
(970,308,cs),
(970,524,o),
(808,660,o),
(550,660,cs)
);
},
{
closed = 1;
nodes = (
(802,650,o),
(960,518,o),
(960,308,cs),
(960,119,o),
(802,0,o),
(550,0,cs),
(329,0,o),
(190,119,o),
(190,308,cs),
(190,518,o),
(329,650,o),
(550,650,cs)
);
}
);
width = 1080;
},
{
anchors = (
{
name = bottom;
pos = (510,0);
},
{
name = top;
pos = (510,650);
}
);
layerId = m004;
shapes = (
{
closed = 1;
nodes = (
(380,650,l),
(80,650,l),
(80,-200,l),
(380,-200,l)
);
},
{
closed = 1;
nodes = (
(419,660,o),
(280,537,o),
(280,342,cs),
(280,126,o),
(419,-10,o),
(640,-10,cs),
(855,-10,o),
(990,126,o),
(990,342,cs),
(990,537,o),
(855,660,o),
(640,660,cs)
);
},
{
closed = 1;
nodes = (
(626,425,o),
(680,389,o),
(680,332,cs),
(680,260,o),
(626,215,o),
(540,215,cs),
(454,215,o),
(400,260,o),
(400,332,cs),
(400,389,o),
(454,425,o),
(540,425,cs)
);
}
);
width = 1020;
},
{
anchors = (
{
name = bottom;
pos = (410,0);
},
{
name = top;
pos = (410,650);
}
);
layerId = "C42BF1BA-B3BB-492C-A865-1DF6B235F68F";
shapes = (
{
closed = 1;
nodes = (
(186,650,l),
(66,650,l),
(66,-200,l),
(186,-200,l)
);
},
{
closed = 1;
nodes = (
(242,660,o),
(136,530,o),
(136,324,cs),
(136,119,o),
(242,-10,o),
(410,-10,cs),
(589,-10,o),
(702,119,o),
(702,324,cs),
(702,530,o),
(589,660,o),
(410,660,cs)
);
},
{
closed = 1;
nodes = (
(518,560,o),
(586,468,o),
(586,322,cs),
(586,179,o),
(518,90,o),
(410,90,cs),
(272,90,o),
(186,179,o),
(186,322,cs),
(186,468,o),
(272,560,o),
(410,560,cs)
);
}
);
width = 746;
}
);
metricLeft = n;
metricRight = o;
unicode = 112;
},
{
color = 9;
glyphname = thorn;
lastChange = "2024-08-08 18:46:44 +0000";
layers = (
{
anchors = (
{
name = bottom;
pos = (270,0);
},
{
name = top;
pos = (270,650);
}
);
layerId = m002;
shapes = (
{
closed = 1;
nodes = (
(100,850,l),
(90,850,l),
(90,-200,l),
(100,-200,l)
);
},
{
closed = 1;
nodes = (
(169,660,o),
(90,524,o),
(90,308,cs),
(90,113,o),
(169,-10,o),
(295,-10,cs),
(412,-10,o),
(485,113,o),
(485,308,cs),
(485,524,o),
(412,660,o),
(295,660,cs)
);
},
{
closed = 1;
nodes = (
(406,650,o),
(475,518,o),
(475,308,cs),
(475,119,o),
(406,0,o),
(295,0,cs),
(175,0,o),
(100,119,o),
(100,308,cs),
(100,518,o),
(175,650,o),
(295,650,cs)
);
}
);
width = 540;
},
{
anchors = (
{
name = bottom;
pos = (300,0);
},
{
name = top;
pos = (300,850);
}
);
layerId = m01;
shapes = (
{
closed = 1;
nodes = (
(190,850,l),
(40,850,l),
(40,-200,l),
(190,-200,l)
);
},
{
closed = 1;
nodes = (
(193,660,o),
(135,556,o),
(135,342,cs),
(135,106,o),
(193,-10,o),
(320,-10,cs),
(437,-10,o),
(495,106,o),
(495,342,cs),
(495,556,o),
(437,660,o),
(320,660,cs)
);
},
{
closed = 1;
nodes = (
(317,525,o),
(340,465,o),
(340,342,cs),
(340,190,o),
(317,115,o),
(270,115,cs),
(230,115,o),
(200,190,o),
(200,342,cs),
(200,465,o),
(230,525,o),
(270,525,cs)
);
}
);
width = 510;
},
{
anchors = (
{
name = bottom;
pos = (540,0);
},
{
name = top;
pos = (540,650);
}
);
layerId = m003;
shapes = (
{
closed = 1;
nodes = (
(190,850,l),
(180,850,l),
(180,-200,l),
(190,-200,l)
);
},
{
closed = 1;
nodes = (
(327,660,o),
(180,524,o),
(180,308,cs),
(180,113,o),
(327,-10,o),
(560,-10,cs),
(812,-10,o),
(970,113,o),
(970,308,cs),
(970,524,o),
(812,660,o),
(560,660,cs)
);
},
{
closed = 1;
nodes = (
(806,650,o),
(960,518,o),
(960,308,cs),
(960,119,o),
(806,0,o),
(560,0,cs),
(333,0,o),
(190,119,o),
(190,308,cs),
(190,518,o),
(333,650,o),
(560,650,cs)
);
}
);
width = 1080;
},
{
anchors = (
{
name = bottom;
pos = (600,0);
},
{
name = top;
pos = (600,850);
}
);
layerId = m004;
shapes = (
{
closed = 1;
nodes = (
(380,850,l),
(80,850,l),
(80,-200,l),
(380,-200,l)
);
},
{
closed = 1;
nodes = (
(413,660,o),
(270,537,o),
(270,342,cs),
(270,126,o),
(413,-10,o),
(640,-10,cs),
(855,-10,o),
(990,126,o),
(990,342,cs),
(990,537,o),
(855,660,o),
(640,660,cs)
);
},
{
closed = 1;
nodes = (
(626,425,o),
(680,385,o),
(680,322,cs),
(680,256,o),
(626,215,o),
(540,215,cs),
(454,215,o),
(400,256,o),
(400,322,cs),
(400,385,o),
(454,425,o),
(540,425,cs)
);
}
);
width = 1020;
},
{
anchors = (
{
name = bottom;
pos = (389,0);
},
{
name = top;
pos = (423,745);
}
);
background = {
shapes = (
{
closed = 1;
nodes = (
(242,660,o),
(136,530,o),
(136,324,cs),
(136,119,o),
(242,-10,o),
(410,-10,cs),
(589,-10,o),
(702,119,o),
(702,324,cs),
(702,530,o),
(589,660,o),
(410,660,cs)
);
},
{
closed = 1;
nodes = (
(518,560,o),
(586,468,o),
(586,322,cs),
(586,179,o),
(518,90,o),
(410,90,cs),
(272,90,o),
(186,179,o),
(186,322,cs),
(186,468,o),
(272,560,o),
(410,560,cs)
);
}
);
};
layerId = "C42BF1BA-B3BB-492C-A865-1DF6B235F68F";
shapes = (
{
closed = 1;
nodes = (
(177,850,l),
(62,850,l),
(62,-200,l),
(177,-200,l)
);
},
{
closed = 1;
nodes = (
(236,660,o),
(130,530,o),
(130,324,cs),
(130,119,o),
(236,-10,o),
(406,-10,cs),
(585,-10,o),
(698,119,o),
(698,324,cs),
(698,530,o),
(585,660,o),
(406,660,cs)
);
},
{
closed = 1;
nodes = (
(512,561,o),
(579,470,o),
(579,324,cs),
(579,183,o),
(512,95,o),
(406,95,cs),
(270,95,o),
(184,183,o),
(184,324,cs),
(184,470,o),
(270,561,o),
(406,561,cs)
);
}
);
width = 718;
}
);
metricRight = o;
unicode = 254;
},
{
color = 9;
glyphname = q;
lastChange = "2024-08-08 18:46:51 +0000";
layers = (
{
anchors = (
{
name = bottom;
pos = (260,0);
},
{
name = top;
pos = (260,650);
}
);
layerId = m01;
shapes = (
{
closed = 1;
nodes = (
(480,-200,l),
(480,650,l),
(320,650,l),
(320,-200,l)
);
},
{
closed = 1;
nodes = (
(318,-10,o),
(375,106,o),
(375,342,cs),
(375,556,o),
(318,660,o),
(191,660,cs),
(73,660,o),
(15,556,o),
(15,342,cs),
(15,106,o),
(73,-10,o),
(191,-10,cs)
);
},
{
closed = 1;
nodes = (
(200,125,o),
(170,196,o),
(170,342,cs),
(170,465,o),
(200,525,o),
(240,525,cs),
(280,525,o),
(310,465,o),
(310,342,cs),
(310,196,o),
(280,125,o),
(240,125,cs)
);
}
);
width = 520;
},
{
anchors = (
{
name = bottom;
pos = (270,0);
},
{
name = top;
pos = (270,650);
}
);
layerId = m002;
shapes = (
{
closed = 1;
nodes = (
(450,-200,l),
(450,650,l),
(440,650,l),
(440,-200,l)
);
},
{
closed = 1;
nodes = (
(379,-10,o),
(450,94,o),
(450,308,cs),
(450,544,o),
(379,660,o),
(235,660,cs),
(114,660,o),
(55,544,o),
(55,308,cs),
(55,94,o),
(114,-10,o),
(235,-10,cs)
);
},
{
closed = 1;
nodes = (
(121,0,o),
(65,101,o),
(65,308,cs),
(65,538,o),
(121,650,o),
(235,650,cs),
(373,650,o),
(440,538,o),
(440,308,cs),
(440,101,o),
(373,0,o),
(235,0,cs)
);
}
);
width = 540;
},
{
anchors = (
{
name = bottom;
pos = (540,0);
},
{
name = top;
pos = (540,650);
}
);
layerId = m003;
shapes = (
{
closed = 1;
nodes = (
(900,-200,l),
(900,650,l),
(890,650,l),
(890,-200,l)
);
},
{
closed = 1;
nodes = (
(753,-10,o),
(900,113,o),
(900,308,cs),
(900,524,o),
(753,660,o),
(520,660,cs),
(268,660,o),
(110,524,o),
(110,308,cs),
(110,113,o),
(268,-10,o),
(520,-10,cs)
);
},
{
closed = 1;
nodes = (
(274,0,o),
(120,119,o),
(120,308,cs),
(120,518,o),
(274,650,o),
(520,650,cs),
(747,650,o),
(890,518,o),
(890,308,cs),
(890,119,o),
(747,0,o),
(520,0,cs)
);
}
);
width = 1080;
},
{
anchors = (
{
name = bottom;
pos = (382,-10);
},
{
name = top;
pos = (382,660);
}
);
layerId = m004;
shapes = (
{
closed = 1;
nodes = (
(960,-200,l),
(960,650,l),
(640,650,l),
(640,-200,l)
);
},
{
closed = 1;
nodes = (
(602,-10,o),
(740,126,o),
(740,342,cs),
(740,537,o),
(602,660,o),
(382,660,cs),
(166,660,o),
(30,537,o),
(30,342,cs),
(30,126,o),
(166,-10,o),
(382,-10,cs)
);
},
{
closed = 1;
nodes = (
(394,225,o),
(340,270,o),
(340,342,cs),
(340,393,o),
(394,425,o),
(480,425,cs),
(566,425,o),
(620,393,o),
(620,342,cs),
(620,270,o),
(566,225,o),
(480,225,cs)
);
}
);
width = 1040;
},
{
anchors = (
{
name = bottom;
pos = (352,-2);
},
{
name = top;
pos = (352,652);
}
);
layerId = "C42BF1BA-B3BB-492C-A865-1DF6B235F68F";
shapes = (
{
closed = 1;
nodes = (
(680,-200,l),
(680,650,l),
(560,650,l),
(560,-200,l)
);
},
{
closed = 1;
nodes = (
(509,-10,o),
(609,119,o),
(609,324,cs),
(609,530,o),
(509,660,o),
(349,660,cs),
(162,660,o),
(44,530,o),
(44,324,cs),
(44,119,o),
(162,-10,o),
(349,-10,cs)
);
},
{
closed = 1;
nodes = (
(233,90,o),
(160,180,o),
(160,324,cs),
(160,469,o),
(233,560,o),
(349,560,cs),
(479,560,o),
(560,469,o),
(560,324,cs),
(560,180,o),
(479,90,o),
(349,90,cs)
);
}
);
width = 746;
}
);
metricLeft = o;
metricRight = n;
unicode = 113;
},
{
color = 9;
glyphname = r;
lastChange = "2024-08-08 18:46:58 +0000";
layers = (
{
anchors = (
{
name = bottom;
pos = (114,0);
},
{
name = top;
pos = (173,650);
}
);
layerId = m01;
shapes = (
{
closed = 1;
nodes = (
(200,0,l),
(200,390,l),
(200,454,o),
(235,486,o),
(306,486,cs),
(318,486,o),
(326,485,o),
(330,484,c),
(330,660,l),
(252,660,o),
(202,620,o),
(177,537,c),
(190,525,l),
(190,650,l),
(40,650,l),
(40,0,l)
);
}
);
width = 345;
},
{
anchors = (
{
name = bottom;
pos = (168,0);
},
{
name = top;
pos = (168,650);
}
);
background = {
shapes = (
{
closed = 1;
nodes = (
(195,0,l),
(195,145,o),
(195,362,o),
(195,390,cs),
(195,454,o),
(230,486,o),
(301,486,cs),
(313,486,o),
(321,485,o),
(325,484,c),
(325,660,l),
(247,660,o),
(197,620,o),
(172,537,c),
(185,525,l),
(185,650,l),
(35,650,l),
(35,0,l)
);
}
);
};
layerId = m002;
shapes = (
{
closed = 1;
nodes = (
(100,0,l),
(100,370,l),
(100,556,o),
(158,655,o),
(275,647,cs),
(277,647,o),
(279,647,o),
(281,647,c),
(281,657,l),
(170,665,o),
(109,587,o),
(95,444,c),
(100,412,l),
(100,650,l),
(90,650,l),
(90,0,l)
);
}
);
width = 336;
},
{
anchors = (
{
name = bottom;
pos = (336,0);
},
{
name = top;
pos = (336,650);
}
);
background = {
shapes = (
{
closed = 1;
nodes = (
(195,0,l),
(195,145,o),
(195,362,o),
(195,390,cs),
(195,454,o),
(230,486,o),
(301,486,cs),
(313,486,o),
(321,485,o),
(325,484,c),
(325,660,l),
(247,660,o),
(197,620,o),
(172,537,c),
(185,525,l),
(185,650,l),
(35,650,l),
(35,0,l)
);
}
);
};
layerId = m003;
shapes = (
{
closed = 1;
nodes = (
(190,0,l),
(190,405,l),
(190,561,o),
(329,654,o),
(550,647,cs),
(554,647,o),
(558,647,o),
(562,647,c),
(562,657,l),
(357,664,o),
(211,582,o),
(184,444,c),
(190,412,l),
(190,650,l),
(180,650,l),
(180,0,l)
);
}
);
width = 672;
},
{
anchors = (
{
name = bottom;
pos = (228,0);
},
{
name = top;
pos = (237,650);
}
);
layerId = m004;
shapes = (
{
closed = 1;
nodes = (
(400,0,l),
(400,260,l),
(400,337,o),
(482,386,o),
(612,386,cs),
(629,386,o),
(648,385,o),
(660,384,c),
(660,660,l),
(529,660,o),
(411,601,o),
(354,507,c),
(380,495,l),
(380,650,l),
(80,650,l),
(80,0,l)
);
}
);
width = 690;
},
{
anchors = (
{
name = bottom;
pos = (181,0);
},
{
name = top;
pos = (197,650);
}
);
layerId = "C42BF1BA-B3BB-492C-A865-1DF6B235F68F";
shapes = (
{
closed = 1;
nodes = (
(186,0,l),
(186,358,l),
(186,476,o),
(269,548,o),
(402,544,cs),
(410,544,o),
(418,543,o),
(423,543,c),
(423,658,l),
(294,662,o),
(194,597,o),
(166,491,c),
(179,469,l),
(179,650,l),
(66,650,l),
(66,0,l)
);
}
);
width = 467;
}
);
metricLeft = n;
metricRight = o;
unicode = 114;
},
{
color = 9;
glyphname = s;
lastChange = "2024-08-08 18:47:35 +0000";
layers = (
{
anchors = (
{
name = bottom;
pos = (217,0);
},
{
name = top;
pos = (220,650);
}
);
layerId = m01;
shapes = (
{
closed = 1;
nodes = (
(357,-10,o),
(424,52,o),
(424,180,cs),
(424,384,o),
(160,391,o),
(160,470,cs),
(160,517,o),
(176,540,o),
(220,540,cs),
(264,540,o),
(285,500,o),
(285,440,c),
(415,440,l),
(415,581,o),
(351,660,o),
(220,660,cs),
(82,660,o),
(15,598,o),
(15,470,cs),
(15,265,o),
(279,263,o),
(279,180,cs),
(279,133,o),
(263,110,o),
(220,110,cs),
(174,110,o),
(152,150,o),
(152,210,c),
(22,210,l),
(22,69,o),
(87,-10,o),
(220,-10,cs)
);
}
);
width = 439;
},
{
anchors = (
{
name = bottom;
pos = (214,0);
},
{
name = top;
pos = (214,650);
}
);
layerId = m002;
shapes = (
{
closed = 1;
nodes = (
(324,-10,o),
(378,44,o),
(371,155,cs),
(358,356,o),
(79,322,o),
(67,490,cs),
(59,597,o),
(108,650,o),
(217,650,cs),
(304,650,o),
(338,597,o),
(346,490,c),
(356,490,l),
(348,604,o),
(310,660,o),
(217,660,cs),
(102,660,o),
(48,604,o),
(56,490,cs),
(69,308,o),
(348,348,o),
(361,155,cs),
(368,51,o),
(317,0,o),
(207,0,cs),
(114,0,o),
(76,51,o),
(69,155,c),
(59,155,l),
(66,44,o),
(108,-10,o),
(207,-10,cs)
);
}
);
width = 427;
},
{
anchors = (
{
name = bottom;
pos = (428,0);
},
{
name = top;
pos = (428,650);
}
);
layerId = m003;
shapes = (
{
closed = 1;
nodes = (
(615,-10,o),
(742,54,o),
(742,155,cs),
(742,456,o),
(122,224,o),
(124,490,cs),
(125,588,o),
(245,650,o),
(434,650,cs),
(584,650,o),
(687,588,o),
(702,490,c),
(712,490,l),
(697,594,o),
(590,660,o),
(434,660,cs),
(236,660,o),
(112,594,o),
(112,490,cs),
(112,208,o),
(732,448,o),
(732,155,cs),
(732,60,o),
(609,0,o),
(414,0,cs),
(251,0,o),
(141,60,o),
(128,155,c),
(118,155,l),
(131,54,o),
(245,-10,o),
(414,-10,cs)
);
}
);
width = 854;
},
{
anchors = (
{
name = bottom;
pos = (440,0);
},
{
name = top;
pos = (440,650);
}
);
layerId = m004;
shapes = (
{
closed = 1;
nodes = (
(689,-10,o),
(848,63,o),
(848,180,cs),
(848,484,o),
(330,391,o),
(330,470,cs),
(330,495,o),
(374,510,o),
(445,510,cs),
(522,510,o),
(570,479,o),
(570,430,c),
(830,430,l),
(840,571,o),
(688,660,o),
(435,660,cs),
(186,660,o),
(30,587,o),
(30,470,cs),
(30,165,o),
(548,263,o),
(548,180,cs),
(548,155,o),
(501,140,o),
(425,140,cs),
(345,140,o),
(294,171,o),
(294,220,c),
(34,220,l),
(24,79,o),
(179,-10,o),
(435,-10,cs)
);
}
);
width = 878;
},
{
anchors = (
{
name = bottom;
pos = (314,0);
},
{
name = top;
pos = (314,650);
}
);
layerId = "C42BF1BA-B3BB-492C-A865-1DF6B235F68F";
shapes = (
{
closed = 1;
nodes = (
(478,-10,o),
(583,58,o),
(583,167,cs),
(583,443,o),
(164,323,o),
(164,481,cs),
(164,530,o),
(221,560,o),
(312,560,cs),
(390,560,o),
(442,523,o),
(446,464,c),
(565,464,l),
(561,584,o),
(463,660,o),
(312,660,cs),
(147,660,o),
(44,591,o),
(44,481,cs),
(44,214,o),
(463,324,o),
(463,167,cs),
(463,120,o),
(405,90,o),
(312,90,cs),
(228,90,o),
(173,126,o),
(169,184,c),
(49,184,l),
(52,65,o),
(153,-10,o),
(312,-10,cs)
);
}
);
width = 627;
}
);
metricLeft = o;
metricRight = o;
unicode = 115;
},
{
color = 9;
glyphname = germandbls;
lastChange = "2024-08-08 18:48:07 +0000";
layers = (
{
anchors = (
{
name = bottom;
pos = (254,0);
},
{
name = top;
pos = (254,850);
}
);
layerId = m002;
shapes = (
{
closed = 1;
nodes = (
(140,0,l),
(140,650,l),
(130,650,l),
(130,0,l)
);
},
{
closed = 1;
nodes = (
(135,640,l),
(135,650,l),
(30,650,l),
(30,640,l)
);
},
{
closed = 1;
nodes = (
(140,650,l),
(140,780,o),
(169,844,o),
(270,844,c),
(270,855,l),
(163,855,o),
(130,788,o),
(130,650,c)
);
},
{
closed = 1;
nodes = (
(364,-18,o),
(458,46,o),
(451,160,cs),
(438,366,o),
(299,312,o),
(287,430,c),
(276,430,l),
(289,298,o),
(428,358,o),
(441,160,cs),
(448,53,o),
(357,-8,o),
(267,0,c),
(267,-10,l)
);
},
{
closed = 1;
nodes = (
(287,430,l),
(287,562,o),
(404,492,o),
(404,690,cs),
(404,801,o),
(373,855,o),
(270,855,c),
(270,844,l),
(367,844,o),
(394,793,o),
(394,690,cs),
(394,499,o),
(276,569,o),
(276,430,c)
);
}
);
width = 506;
},
{
anchors = (
{
name = bottom;
pos = (273,0);
},
{
name = top;
pos = (273,850);
}
);
background = {
shapes = (
{
closed = 1;
nodes = (
(200,0,l),
(200,650,l),
(190,650,l),
(190,0,l)
);
},
{
closed = 1;
nodes = (
(195,640,l),
(195,650,l),
(90,650,l),
(90,640,l)
);
},
{
closed = 1;
nodes = (
(200,650,l),
(200,780,o),
(249,844,o),
(350,844,c),
(350,855,l),
(243,855,o),
(190,788,o),
(190,650,c)
);
},
{
closed = 1;
nodes = (
(514,-10,o),
(558,46,o),
(551,160,cs),
(538,366,o),
(399,312,o),
(387,430,c),
(376,430,l),
(389,298,o),
(528,358,o),
(541,160,cs),
(548,53,o),
(507,0,o),
(417,0,cs),
(331,0,o),
(289,51,o),
(289,155,c),
(279,155,l),
(279,44,o),
(324,-10,o),
(417,-10,cs)
);
},
{
closed = 1;
nodes = (
(387,430,l),
(387,562,o),
(504,492,o),
(504,690,cs),
(504,801,o),
(453,855,o),
(350,855,c),
(350,844,l),
(447,844,o),
(494,793,o),
(494,690,cs),
(494,499,o),
(376,569,o),
(376,430,c)
);
}
);
};
layerId = m01;
shapes = (
{
closed = 1;
nodes = (
(220,0,l),
(220,650,l),
(70,650,l),
(70,0,l)
);
},
{
closed = 1;
nodes = (
(215,520,l),
(215,650,l),
(0,650,l),
(0,520,l)
);
},
{
closed = 1;
nodes = (
(220,650,l),
(220,697,o),
(236,720,o),
(270,720,c),
(270,855,l),
(136,855,o),
(70,788,o),
(70,650,c)
);
},
{
closed = 1;
nodes = (
(454,-10,o),
(531,64,o),
(531,215,cs),
(531,376,o),
(426,364,o),
(426,430,c),
(276,430,l),
(276,337,o),
(381,319,o),
(381,215,cs),
(381,155,o),
(353,125,o),
(297,125,c),
(297,-10,l)
);
},
{
closed = 1;
nodes = (
(426,430,l),
(424,496,o),
(494,489,o),
(494,650,cs),
(494,788,o),
(420,855,o),
(270,855,c),
(270,720,l),
(320,720,o),
(344,697,o),
(344,650,cs),
(344,546,o),
(276,523,o),
(276,430,c)
);
}
);
width = 546;
},
{
anchors = (
{
name = bottom;
pos = (508,0);
},
{
name = top;
pos = (508,850);
}
);
layerId = m003;
shapes = (
{
closed = 1;
nodes = (
(270,0,l),
(270,650,l),
(260,650,l),
(260,0,l)
);
},
{
closed = 1;
nodes = (
(270,640,l),
(270,650,l),
(60,650,l),
(60,640,l)
);
},
{
closed = 1;
nodes = (
(270,650,l),
(270,769,o),
(374,844,o),
(540,844,c),
(540,855,l),
(368,855,o),
(260,776,o),
(260,650,c)
);
},
{
closed = 1;
nodes = (
(764,-19,o),
(902,47,o),
(902,160,cs),
(902,386,o),
(572,262,o),
(574,430,c),
(562,430,l),
(562,248,o),
(892,378,o),
(892,160,cs),
(892,52,o),
(758,-10,o),
(544,0,c),
(544,-10,l)
);
},
{
closed = 1;
nodes = (
(574,430,l),
(574,592,o),
(808,472,o),
(808,690,cs),
(808,791,o),
(705,855,o),
(540,855,c),
(540,844,l),
(698,844,o),
(798,785,o),
(798,690,cs),
(798,479,o),
(562,599,o),
(562,430,c)
);
}
);
width = 1012;
},
{
anchors = (
{
name = bottom;
pos = (546,0);
},
{
name = top;
pos = (546,850);
}
);
background = {
shapes = (
{
closed = 1;
nodes = (
(200,0,l),
(200,650,l),
(190,650,l),
(190,0,l)
);
},
{
closed = 1;
nodes = (
(195,640,l),
(195,650,l),
(90,650,l),
(90,640,l)
);
},
{
closed = 1;
nodes = (
(200,650,l),
(200,780,o),
(249,844,o),
(350,844,c),
(350,855,l),
(243,855,o),
(190,788,o),
(190,650,c)
);
},
{
closed = 1;
nodes = (
(514,-10,o),
(558,46,o),
(551,160,cs),
(538,366,o),
(399,312,o),
(387,430,c),
(376,430,l),
(389,298,o),
(528,358,o),
(541,160,cs),
(548,53,o),
(507,0,o),
(417,0,cs),
(331,0,o),
(289,51,o),
(289,155,c),
(279,155,l),
(279,44,o),
(324,-10,o),
(417,-10,cs)
);
},
{
closed = 1;
nodes = (
(387,430,l),
(387,562,o),
(504,492,o),
(504,690,cs),
(504,801,o),
(453,855,o),
(350,855,c),
(350,844,l),
(447,844,o),
(494,793,o),
(494,690,cs),
(494,499,o),
(376,569,o),
(376,430,c)
);
}
);
};
layerId = m004;
shapes = (
{
closed = 1;
nodes = (
(440,0,l),
(440,580,l),
(140,650,l),
(140,0,l)
);
},
{
closed = 1;
nodes = (
(430,420,l),
(430,640,l),
(0,650,l),
(0,420,l)
);
},
{
closed = 1;
nodes = (
(440,580,l),
(440,611,o),
(471,630,o),
(520,630,c),
(520,855,l),
(287,855,o),
(140,776,o),
(140,650,c)
);
},
{
closed = 1;
nodes = (
(824,-10,o),
(1012,88,o),
(1012,245,cs),
(1012,406,o),
(832,334,o),
(832,400,c),
(532,400,l),
(532,307,o),
(662,349,o),
(662,245,cs),
(662,196,o),
(609,165,o),
(524,165,c),
(524,-10,l)
);
},
{
closed = 1;
nodes = (
(832,400,l),
(828,466,o),
(948,489,o),
(948,650,cs),
(948,776,o),
(783,855,o),
(520,855,c),
(520,630,l),
(574,630,o),
(608,611,o),
(608,580,cs),
(608,476,o),
(532,493,o),
(532,400,c)
);
}
);
width = 1042;
},
{
anchors = (
{
name = bottom;
pos = (356,0);
},
{
name = top;
pos = (356,850);
}
);
layerId = "C42BF1BA-B3BB-492C-A865-1DF6B235F68F";
shapes = (
{
closed = 1;
nodes = (
(233,0,l),
(233,633,l),
(113,650,l),
(113,0,l)
);
},
{
closed = 1;
nodes = (
(229,559,l),
(229,648,l),
(-15,650,l),
(-15,559,l)
);
},
{
closed = 1;
nodes = (
(233,633,l),
(233,708,o),
(286,755,o),
(371,755,c),
(371,855,l),
(213,855,o),
(113,776,o),
(113,650,c)
);
},
{
closed = 1;
nodes = (
(582,-14,o),
(706,72,o),
(703,213,cs),
(699,378,o),
(508,350,o),
(506,423,c),
(386,423,l),
(389,259,o),
(579,347,o),
(582,213,cs),
(584,133,o),
(506,86,o),
(349,90,c),
(349,-10,l)
);
},
{
closed = 1;
nodes = (
(506,423,l),
(504,524,o),
(650,503,o),
(650,663,cs),
(650,781,o),
(542,855,o),
(371,855,c),
(371,755,l),
(469,755,o),
(530,720,o),
(530,663,cs),
(530,514,o),
(386,590,o),
(386,423,c)
);
}
);
width = 723;
}
);
metricLeft = f;
metricRight = o;
unicode = 223;
},
{
color = 9;
glyphname = t;
lastChange = "2024-08-08 18:48:16 +0000";
layers = (
{
anchors = (
{
name = bottom;
pos = (150,0);
},
{
name = center;
pos = (150,325);
},
{
name = top;
pos = (150,750);
},
{
name = topright;
pos = (280,850);
}
);
layerId = m01;
shapes = (
{
closed = 1;
nodes = (
(60,50,o),
(109,-6,o),
(200,-6,cs),
(242,-6,o),
(280,-3,o),
(290,0,c),
(290,118,l),
(283,116,o),
(261,114,o),
(245,114,cs),
(225,114,o),
(210,134,o),
(210,175,cs),
(210,750,l),
(60,750,l),
(60,165,ls)
);
},
{
closed = 1;
nodes = (
(290,520,l),
(290,650,l),
(0,650,l),
(0,520,l)
);
}
);
width = 300;
},
{
anchors = (
{
name = bottom;
pos = (150,0);
},
{
name = center;
pos = (150,325);
},
{
name = top;
pos = (150,750);
},
{
name = topright;
pos = (280,850);
}
);
background = {
shapes = (
{
closed = 1;
nodes = (
(60,50,o),
(109,-6,o),
(200,-6,cs),
(242,-6,o),
(280,-3,o),
(290,0,c),
(290,118,l),
(283,116,o),
(261,114,o),
(245,114,cs),
(225,114,o),
(210,134,o),
(210,175,cs),
(210,750,l),
(60,750,l),
(60,165,ls)
);
},
{
closed = 1;
nodes = (
(290,520,l),
(290,650,l),
(0,650,l),
(0,520,l)
);
}
);
};
layerId = m002;
shapes = (
{
closed = 1;
nodes = (
(130,31,o),
(156,-10,o),
(210,-10,cs),
(225,-10,o),
(242,-9,o),
(260,-5,c),
(260,5,l),
(242,1,o),
(225,0,o),
(210,0,cs),
(163,0,o),
(140,38,o),
(140,116,cs),
(140,750,l),
(130,750,l),
(130,116,ls)
);
},
{
closed = 1;
nodes = (
(260,640,l),
(260,650,l),
(30,650,l),
(30,640,l)
);
}
);
width = 300;
},
{
anchors = (
{
name = bottom;
pos = (300,0);
},
{
name = center;
pos = (300,325);
},
{
name = top;
pos = (300,750);
},
{
name = topright;
pos = (560,850);
}
);
background = {
shapes = (
{
closed = 1;
nodes = (
(60,50,o),
(109,-6,o),
(200,-6,cs),
(242,-6,o),
(280,-3,o),
(290,0,c),
(290,118,l),
(283,116,o),
(261,114,o),
(245,114,cs),
(225,114,o),
(210,134,o),
(210,175,cs),
(210,750,l),
(60,750,l),
(60,165,ls)
);
},
{
closed = 1;
nodes = (
(290,520,l),
(290,650,l),
(0,650,l),
(0,520,l)
);
}
);
};
layerId = m003;
shapes = (
{
closed = 1;
nodes = (
(265,39,o),
(325,-10,o),
(420,-10,cs),
(453,-10,o),
(491,-8,o),
(520,-5,c),
(520,5,l),
(491,2,o),
(453,0,o),
(420,0,cs),
(331,0,o),
(275,45,o),
(275,116,cs),
(275,750,l),
(265,750,l),
(265,116,ls)
);
},
{
closed = 1;
nodes = (
(520,640,l),
(520,650,l),
(60,650,l),
(60,640,l)
);
}
);
width = 600;
},
{
anchors = (
{
name = bottom;
pos = (380,0);
},
{
name = center;
pos = (300,325);
},
{
name = top;
pos = (268,750);
},
{
name = topright;
pos = (560,850);
}
);
layerId = m004;
shapes = (
{
closed = 1;
nodes = (
(120,91,o),
(220,-10,o),
(400,-10,cs),
(492,-10,o),
(556,-5,o),
(580,0,c),
(580,219,l),
(567,215,o),
(535,214,o),
(490,214,cs),
(445,214,o),
(420,236,o),
(420,275,cs),
(420,750,l),
(120,750,l),
(120,265,ls)
);
},
{
closed = 1;
nodes = (
(580,420,l),
(580,650,l),
(0,650,l),
(0,420,l)
);
}
);
width = 600;
},
{
anchors = (
{
name = bottom;
pos = (222,0);
},
{
name = center;
pos = (186,325);
},
{
name = top;
pos = (163,750);
},
{
name = topright;
pos = (381,850);
}
);
layerId = "C42BF1BA-B3BB-492C-A865-1DF6B235F68F";
shapes = (
{
closed = 1;
nodes = (
(103,57,o),
(169,-9,o),
(269,-9,cs),
(308,-9,o),
(347,-7,o),
(372,-3,c),
(372,97,l),
(360,94,o),
(332,92,o),
(301,92,cs),
(251,92,o),
(223,121,o),
(223,168,cs),
(223,750,l),
(103,750,l),
(103,163,ls)
);
},
{
closed = 1;
nodes = (
(372,560,l),
(372,650,l),
(-15,650,l),
(-15,560,l)
);
}
);
width = 379;
}
);
unicode = 116;
},
{
color = 9;
glyphname = u;
lastChange = "2024-08-08 18:49:06 +0000";
layers = (
{
anchors = (
{
name = bottom;
pos = (260,0);
},
{
name = ogonek;
pos = (438,10);
},
{
name = top;
pos = (260,650);
},
{
name = topright;
pos = (500,650);
}
);
layerId = m01;
shapes = (
{
closed = 1;
nodes = (
(320,650,l),
(320,206,l),
(320,143,o),
(300,112,o),
(260,112,cs),
(220,112,o),
(200,143,o),
(200,206,cs),
(200,650,l),
(40,650,l),
(40,206,l),
(40,61,o),
(93,-10,o),
(200,-10,cs),
(292,-10,o),
(341,24,o),
(350,93,c),
(340,115,l),
(340,0,l),
(480,0,l),
(480,650,l)
);
}
);
width = 520;
},
{
anchors = (
{
name = bottom;
pos = (280,0);
},
{
name = ogonek;
pos = (504,10);
},
{
name = top;
pos = (280,650);
},
{
name = topright;
pos = (540,650);
}
);
background = {
shapes = (
{
closed = 1;
nodes = (
(360,650,l),
(360,206,l),
(360,143,o),
(340,112,o),
(300,112,cs),
(260,112,o),
(240,143,o),
(240,206,cs),
(240,650,l),
(80,650,l),
(80,206,l),
(80,61,o),
(133,-10,o),
(240,-10,cs),
(332,-10,o),
(381,24,o),
(390,93,c),
(380,115,l),
(380,0,l),
(520,0,l),
(520,650,l)
);
}
);
};
layerId = m002;
shapes = (
{
closed = 1;
nodes = (
(460,650,l),
(460,206,ls),
(460,68,o),
(401,0,o),
(280,0,c),
(159,0,o),
(100,68,o),
(100,206,cs),
(100,650,l),
(90,650,l),
(90,206,ls),
(90,61,o),
(152,-10,o),
(280,-10,cs),
(378,-10,o),
(437,36,o),
(460,129,c),
(460,172,l),
(460,0,l),
(470,0,l),
(470,650,l)
);
}
);
width = 560;
},
{
anchors = (
{
name = bottom;
pos = (560,0);
},
{
name = ogonek;
pos = (1008,10);
},
{
name = top;
pos = (560,650);
},
{
name = topright;
pos = (1080,650);
}
);
background = {
shapes = (
{
closed = 1;
nodes = (
(360,650,l),
(360,206,l),
(360,143,o),
(340,112,o),
(300,112,cs),
(260,112,o),
(240,143,o),
(240,206,cs),
(240,650,l),
(80,650,l),
(80,206,l),
(80,61,o),
(133,-10,o),
(240,-10,cs),
(332,-10,o),
(381,24,o),
(390,93,c),
(380,115,l),
(380,0,l),
(520,0,l),
(520,650,l)
);
}
);
};
layerId = m003;
shapes = (
{
closed = 1;
nodes = (
(930,650,l),
(930,161,ls),
(930,102,o),
(787,0,o),
(560,0,c),
(333,0,o),
(190,79,o),
(190,206,cs),
(190,650,l),
(180,650,l),
(180,206,ls),
(180,73,o),
(327,-10,o),
(560,-10,cs),
(732,-10,o),
(875,44,o),
(930,129,c),
(930,172,l),
(930,0,l),
(940,0,l),
(940,650,l)
);
}
);
width = 1120;
},
{
anchors = (
{
name = bottom;
pos = (520,0);
},
{
name = ogonek;
pos = (903,10);
},
{
name = top;
pos = (520,650);
},
{
name = topright;
pos = (1000,650);
}
);
layerId = m004;
shapes = (
{
closed = 1;
nodes = (
(640,650,l),
(640,336,l),
(640,260,o),
(594,212,o),
(520,212,cs),
(446,212,o),
(400,248,o),
(400,306,cs),
(400,650,l),
(80,650,l),
(80,236,l),
(80,85,o),
(203,-10,o),
(400,-10,cs),
(563,-10,o),
(679,41,o),
(700,123,c),
(680,145,l),
(680,0,l),
(960,0,l),
(960,650,l)
);
}
);
width = 1040;
},
{
anchors = (
{
name = bottom;
pos = (363,0);
},
{
name = ogonek;
pos = (672,10);
},
{
name = top;
pos = (363,650);
},
{
name = topright;
pos = (739,650);
}
);
layerId = "C42BF1BA-B3BB-492C-A865-1DF6B235F68F";
shapes = (
{
closed = 1;
nodes = (
(540,650,l),
(540,278,ls),
(540,163,o),
(476,90,o),
(357,90,c),
(236,90,o),
(186,164,o),
(186,283,cs),
(186,650,l),
(66,650,l),
(66,253,ls),
(66,91,o),
(182,-10,o),
(357,-10,cs),
(458,-10,o),
(538,49,o),
(581,142,c),
(554,162,l),
(554,0,l),
(659,0,l),
(659,650,l)
);
}
);
width = 725;
}
);
metricLeft = n;
metricRight = n;
unicode = 117;
},
{
color = 9;
glyphname = v;
lastChange = "2024-08-08 18:49:40 +0000";
layers = (
{
anchors = (
{
name = bottom;
pos = (220,0);
},
{
name = top;
pos = (220,650);
}
);
layerId = m01;
shapes = (
{
closed = 1;
nodes = (
(285,0,l),
(440,650,l),
(290,650,l),
(209,200,l),
(220,200,l),
(150,650,l),
(0,650,l),
(145,0,l)
);
}
);
width = 440;
},
{
anchors = (
{
name = bottom;
pos = (220,0);
},
{
name = top;
pos = (220,650);
}
);
background = {
shapes = (
{
closed = 1;
nodes = (
(285,0,l),
(440,650,l),
(290,650,l),
(209,200,l),
(220,200,l),
(150,650,l),
(0,650,l),
(145,0,l)
);
}
);
};
layerId = m002;
shapes = (
{
closed = 1;
nodes = (
(222,0,l),
(407,650,l),
(397,650,l),
(214,11,l),
(219,11,l),
(42,650,l),
(32,650,l),
(211,0,l)
);
}
);
width = 440;
},
{
anchors = (
{
name = bottom;
pos = (440,0);
},
{
name = top;
pos = (440,650);
}
);
background = {
shapes = (
{
closed = 1;
nodes = (
(285,0,l),
(440,650,l),
(290,650,l),
(209,200,l),
(220,200,l),
(150,650,l),
(0,650,l),
(145,0,l)
);
}
);
};
layerId = m003;
shapes = (
{
closed = 1;
nodes = (
(433,0,l),
(803,650,l),
(792,650,l),
(428,11,l),
(428,11,l),
(75,650,l),
(64,650,l),
(422,0,l)
);
}
);
width = 880;
},
{
anchors = (
{
name = bottom;
pos = (440,0);
},
{
name = top;
pos = (440,650);
}
);
layerId = m004;
shapes = (
{
closed = 1;
nodes = (
(600,0,l),
(880,650,l),
(550,650,l),
(418,300,l),
(440,300,l),
(330,650,l),
(0,650,l),
(260,0,l)
);
}
);
width = 880;
},
{
anchors = (
{
name = bottom;
pos = (290,0);
},
{
name = top;
pos = (290,650);
}
);
layerId = "C42BF1BA-B3BB-492C-A865-1DF6B235F68F";
shapes = (
{
closed = 1;
nodes = (
(345,0,l),
(594,650,l),
(463,650,l),
(268,112,l),
(297,112,l),
(115,650,l),
(-15,650,l),
(222,0,l)
);
}
);
width = 578;
}
);
unicode = 118;
},
{
color = 9;
glyphname = w;
lastChange = "2024-08-08 18:51:49 +0000";
layers = (
{
anchors = (
{
name = bottom;
pos = (350,0);
},
{
name = top;
pos = (350,650);
}
);
layerId = m01;
shapes = (
{
closed = 1;
nodes = (
(272,0,l),
(415,650,l),
(285,650,l),
(206,200,l),
(217,200,l),
(150,650,l),
(0,650,l),
(132,0,l)
);
},
{
closed = 1;
nodes = (
(578,0,l),
(700,650,l),
(550,650,l),
(492,200,l),
(503,200,l),
(414,650,l),
(284,650,l),
(438,0,l)
);
}
);
width = 700;
},
{
anchors = (
{
name = bottom;
pos = (350,0);
},
{
name = top;
pos = (350,650);
}
);
background = {
shapes = (
{
closed = 1;
nodes = (
(272,0,l),
(415,650,l),
(285,650,l),
(206,200,l),
(217,200,l),
(150,650,l),
(0,650,l),
(132,0,l)
);
},
{
closed = 1;
nodes = (
(578,0,l),
(700,650,l),
(550,650,l),
(492,200,l),
(503,200,l),
(414,650,l),
(284,650,l),
(438,0,l)
);
}
);
};
layerId = m002;
shapes = (
{
closed = 1;
nodes = (
(176,0,l),
(355,650,l),
(345,650,l),
(170,18,l),
(175,18,l),
(51,650,l),
(41,650,l),
(169,0,l)
);
},
{
closed = 1;
nodes = (
(541,0,l),
(660,650,l),
(650,650,l),
(535,18,l),
(539,18,l),
(355,650,l),
(345,650,l),
(533,0,l)
);
}
);
width = 700;
},
{
anchors = (
{
name = bottom;
pos = (700,0);
},
{
name = top;
pos = (700,650);
}
);
background = {
shapes = (
{
closed = 1;
nodes = (
(272,0,l),
(415,650,l),
(285,650,l),
(206,200,l),
(217,200,l),
(150,650,l),
(0,650,l),
(132,0,l)
);
},
{
closed = 1;
nodes = (
(578,0,l),
(700,650,l),
(550,650,l),
(492,200,l),
(503,200,l),
(414,650,l),
(284,650,l),
(438,0,l)
);
}
);
};
layerId = m003;
shapes = (
{
closed = 1;
nodes = (
(397,0,l),
(706,650,l),
(695,650,l),
(393,13,l),
(398,13,l),
(92,650,l),
(82,650,l),
(393,0,l)
);
},
{
closed = 1;
nodes = (
(1024,0,l),
(1320,650,l),
(1310,650,l),
(1016,7,l),
(1023,7,l),
(706,650,l),
(695,650,l),
(1016,0,l)
);
}
);
width = 1400;
},
{
anchors = (
{
name = bottom;
pos = (700,0);
},
{
name = top;
pos = (700,650);
}
);
layerId = m004;
shapes = (
{
closed = 1;
nodes = (
(574,0,l),
(860,650,l),
(540,650,l),
(412,300,l),
(434,300,l),
(330,650,l),
(0,650,l),
(234,0,l)
);
},
{
closed = 1;
nodes = (
(1186,0,l),
(1400,650,l),
(1070,650,l),
(984,300,l),
(1006,300,l),
(858,650,l),
(538,650,l),
(846,0,l)
);
}
);
width = 1400;
},
{
anchors = (
{
name = bottom;
pos = (482,0);
},
{
name = top;
pos = (478,650);
}
);
layerId = "C42BF1BA-B3BB-492C-A865-1DF6B235F68F";
shapes = (
{
closed = 1;
nodes = (
(322,0,l),
(543,650,l),
(421,650,l),
(258,132,l),
(269,132,l),
(116,650,l),
(-11,650,l),
(192,0,l)
);
},
{
closed = 1;
nodes = (
(787,0,l),
(976,650,l),
(850,650,l),
(709,132,l),
(720,132,l),
(543,650,l),
(420,650,l),
(657,0,l)
);
}
);
width = 966;
}
);
unicode = 119;
},
